<svg width="740" height="715" viewBox="0 0 740 715" fill="none" xmlns="http://www.w3.org/2000/svg">
<path d="M269.706 494.156C293.998 480.836 311.711 496.175 317.53 505.509C296.278 514.592 271.223 544.617 261.352 558.495L295.089 564.87L327.395 577.417C345.614 589.526 337.011 607.186 330.432 614.503C353.509 646.594 340.047 675.304 330.432 685.648C321.93 697.757 303.612 703.308 295.516 704.569C189.996 680.35 218.091 525.193 241.619 505.509C252.874 496.093 263.38 492.641 269.706 494.156Z" fill="#FF0029"/>
<path d="M480.126 548.422C495.296 496.405 530.946 484.408 546.875 484.912C589.355 484.912 620.445 531.785 612.102 556.736C605.427 576.696 572.407 623.017 556.731 643.683C496.809 748.776 464.198 695.096 453.579 684.511C442.96 673.926 451.303 641.415 456.613 636.122C461.922 630.83 467.99 616.465 461.922 580.174C457.068 551.141 472.035 546.909 480.126 548.422Z" fill="#FF0029"/>
<path d="M481.668 148.298C494.319 169.83 501.002 188.785 499.882 213.733L486.303 212.939C460.815 205.053 456.101 218.66 435.657 235.807L413.279 233.777C392.865 232.583 379.877 239.405 361.014 257.478C360.798 261.174 342.293 259.735 342.488 256.395C334.888 259.555 329.18 259.439 320.97 258.846C311.365 258.153 301.698 268.938 292.091 268.311C290.952 268.236 288.923 253.898 288.01 253.211C285.347 251.206 287.163 247.099 288.276 243.955C290.251 238.38 289.097 232.244 287.926 226.449C286.468 219.24 272.894 223.829 271.436 216.62C269.874 208.896 272.817 198.738 269.374 191.649C264.018 180.62 263.421 182.338 254.839 173.58C253.776 172.495 255.854 156.224 251.139 150.235C250.442 147.033 257.969 152.061 260.999 150.812C268.894 147.559 279.395 136.367 287.374 139.411C295.354 142.454 301.174 141.932 308.628 146.101C311.838 147.895 313.121 154.473 316.448 152.905C318.498 151.941 318.004 154.979 319.22 153.067C322.131 148.482 325.046 143.897 327.957 139.312C329.261 137.259 330.647 135.128 332.745 133.9C334.153 133.078 335.78 132.724 337.38 132.408C350.054 129.899 366.397 119.749 377.92 125.595C385.312 129.345 397.788 143.327 405.777 141.116C416.817 138.06 410.152 123.403 420.067 117.662C422.994 115.967 426.439 115.407 429.813 115.19C454.736 113.588 469.015 126.766 481.668 148.298Z" fill="white"/>
<path d="M543.611 235.363C537.133 248.725 512.567 246.329 501.094 243.461C500.588 243.967 499.272 243.562 498.057 237.893C496.539 230.807 511.724 235.363 521.847 233.844C531.97 232.326 551.71 218.66 543.611 235.363Z" fill="white"/>
<path d="M299.036 534.779C301.928 520.213 326.302 516.324 338.127 516.201C338.489 515.583 339.865 515.642 342.472 520.82C345.732 527.293 329.889 526.722 320.478 530.749C311.067 534.776 295.42 552.987 299.036 534.779Z" fill="white"/>
<path d="M459.094 473.857C470.087 483.841 460.862 506.734 454.875 516.933C455.218 517.561 454.458 518.71 448.677 518.277C441.45 517.735 450.102 504.451 451.5 494.311C452.898 484.17 445.352 461.378 459.094 473.857Z" fill="white"/>
<path d="M440.378 559.219C424.677 555.905 420.791 529.518 420.81 516.739C420.148 516.34 420.23 514.855 425.858 512.104C432.894 508.666 432.072 525.777 436.301 535.998C440.53 546.219 460.004 563.361 440.378 559.219Z" fill="white"/>
<path d="M446.891 579.465C431.19 576.151 427.304 549.765 427.323 536.986C426.661 536.587 426.743 535.101 432.371 532.351C439.407 528.912 438.585 546.024 442.814 556.244C447.043 566.465 466.517 583.608 446.891 579.465Z" fill="white"/>
<path d="M43.5336 286.473C43.6563 255.94 91.3243 238.528 115.143 233.639C115.631 232.25 118.431 231.83 125.725 241.258C134.844 253.043 102.644 258.107 85.2294 269.927C67.8151 281.747 43.3801 324.64 43.5336 286.473Z" fill="white"/>
<path d="M276.62 506.411C300.914 493.261 311.033 503.254 316.854 512.469C301.67 510.238 272.064 545.097 262.192 558.796H249.289C241.696 532.647 270.293 504.914 276.62 506.411Z" fill="#920017"/>
<path d="M488.51 289.321C485.543 285.098 476.153 275.607 470.999 276.076C461.63 265.911 477.891 252.979 488.51 243.909C499.129 234.995 505.234 217.956 498.207 206.071C491.961 195.437 452.125 199.136 441.35 223.375C409.181 225.408 395.283 231.194 373.577 249.334C347.655 250.898 325.324 257.154 302.681 276.076C336.568 302.817 371.074 339.066 409.02 359.708C437.597 375.346 417.877 382.623 424.136 399.822C421.637 409.048 424.329 409.314 379.667 428.862C365.925 434.804 343.268 441.216 350.07 441.216C368.208 458.1 347.803 503.511 368.208 506.538C383.668 513.888 397.626 495.168 412.148 478.122C415.822 489.131 427.639 496.187 436.228 483.833C445.297 428.862 447.339 445.833 454.367 445.99C488.51 455.072 458.151 394.524 483.084 385.441C508.783 361.979 513.001 313.86 508.785 299.16" fill="#F5D52B"/>
<path d="M593.548 197.976C595.388 198.207 597.219 198.336 599.017 198.392C610.221 198.696 620.162 195.723 623.73 192.233C624.814 191.171 624.891 189.371 623.902 188.208C622.914 187.044 621.237 186.961 620.153 188.023C617.702 190.424 606.911 193.914 594.149 192.316C592.705 192.141 591.381 193.258 591.209 194.819C591.037 196.379 592.086 197.792 593.539 197.976H593.548Z" fill="black"/>
<path d="M618.842 210.496C618.98 208.999 617.896 207.678 616.43 207.537C614.964 207.388 613.654 208.497 613.515 209.986C612.968 215.974 616.369 228.858 633.208 234.706C633.477 234.794 633.746 234.847 634.006 234.856C635.143 234.882 636.218 234.169 636.6 233.024C637.077 231.606 636.331 230.065 634.934 229.572C621.253 224.816 618.425 215.014 618.833 210.488L618.842 210.496Z" fill="black"/>
<path d="M411.505 135.65C414.937 127.223 423.209 116.808 432.257 115.404C453.01 111.354 440.827 101.602 438.331 91.6143C438.175 90.9901 424.821 90.058 424.665 89.5898C401.888 106.293 398.338 62.1771 379.617 63.2695C331.532 59.7265 295.433 68.0947 255.964 84.0127C216.494 99.7748 185.662 106.825 151.341 132.107L144.254 147.798C137.858 149.514 149.568 160.794 152.688 172.03C154.56 178.429 151.752 197.312 162.205 183.891C166.885 177.961 168.913 183.891 189.818 187.324C206.978 189.353 222.111 194.503 226.947 204.335C239.115 253.181 245.823 230.24 244.263 242.725C243.015 253.181 244.731 263.013 255.028 260.204C270.16 255.834 267.508 278.619 283.733 264.73C265.48 252.869 251.908 205.739 265.948 179.833C291.533 132.235 310.254 150.494 337.867 160.95C349.248 131.601 362.876 117.851 407.962 139.699" fill="#F3CD2D"/>
<path d="M94.145 108.824C161.837 46.5757 255.417 10.1877 347.185 6.12121C360.786 5.49561 382.047 11.126 392.991 20.5101C403.465 29.4251 419.411 46.6293 399.4 58.203C390.646 63.3643 376.419 61.4874 366.414 61.331C285.277 60.549 217.261 90.5495 154.884 130.588L147.291 138.687C136.035 145.725 143.323 152.393 152.859 161.464C157.921 166.279 141.45 189.809 173.105 177.155C190.821 190.821 207.524 173.105 226.496 200.216C236.657 212.728 233.843 224.302 238.221 237.127C239.315 240.255 244.474 240.724 246.506 243.852C246.35 244.165 246.35 244.634 246.35 244.947C246.35 244.947 245.256 246.511 245.099 246.98C244.318 248.544 243.849 249.952 243.692 251.672C243.536 254.8 245.881 257.928 247.913 260.118C250.102 262.62 252.519 261.056 256.115 260.118C258.304 259.492 259.926 259.004 261.176 257.127C266.023 261.194 270.317 266.184 272.818 269.781C256.115 276.361 239.412 282.435 221.649 289.052C221.024 289.208 220.242 289.365 219.461 289.521C218.366 286.862 217.585 284.36 214.927 283.265C213.989 282.483 213.051 281.858 211.8 281.545C210.862 280.919 209.768 280.45 208.517 280.294C204.296 278.104 200.996 275.608 197.401 278.892L194.364 277.88C185.922 273.97 177.876 273.568 168.652 265.279C156.146 254.174 148.329 241.193 139.731 228.525C141.294 227.273 141.919 225.397 141.45 223.051C141.138 221.33 139.887 219.766 138.324 218.984C138.011 218.828 137.386 218.515 136.917 218.358C136.135 217.576 139.418 215.935 138.324 215.623C137.542 214.997 135.197 212.549 134.103 212.079C134.103 212.079 130.864 211.224 130.082 211.067C124.61 204.498 117.375 201.78 109.089 196.149C88.7659 182.386 70.8247 167.467 70.3557 147.291C70.3557 132.746 83.2017 118.833 94.145 108.824Z" fill="#DE9855"/>
<path d="M174.314 66.0776C160.693 72.7852 147.996 81.2964 136.581 91.3534C135.456 92.3396 135.334 94.072 136.302 95.2181C136.817 95.8222 137.541 96.142 138.264 96.1687C138.91 96.1864 139.564 95.9643 140.087 95.5023C151.153 85.7563 163.449 77.5117 176.651 71.0084C177.986 70.351 178.544 68.7074 177.898 67.3481C177.253 65.9888 175.649 65.4113 174.306 66.0776H174.314Z" fill="black"/>
<path d="M590.178 248.522C576.815 256.216 563.689 254.427 558.796 252.571C554.578 259.152 545.433 261.885 542.599 220.177C539.764 178.47 560.652 181.204 571.45 187.784C571.618 176.817 580.358 149.518 613.967 128.057C647.576 106.596 670.15 119.115 677.236 128.057C688.979 125.223 698.326 134.975 701.532 140.205C729.877 169.562 709.124 222.202 682.804 220.177C639.882 275.247 603.169 262.02 590.178 248.522Z" fill="white"/>
<path d="M127.551 319.385L122.996 356.334L267.757 477.305L422.134 408.974L427.702 373.543L284.46 265.226L127.551 319.385Z" fill="white" stroke="black" stroke-width="1.01231"/>
<path d="M275.855 440.356L129.576 321.409L123.502 355.322L269.275 479.836L421.628 408.468L426.183 372.531L275.855 440.356Z" fill="#D9D9D9" stroke="black" stroke-width="1.01231"/>
<path d="M410.292 54.0826C412.763 48.8684 412.816 42.2678 410.431 35.955C403.938 18.7777 389.03 7.98311 366.107 3.86754C288.763 -10.0312 135.243 57.8146 96.2883 102.327C92.2676 105.614 69.7704 128.921 67.9863 145.645C67.9863 145.724 67.9776 145.802 67.9689 145.881C67.7861 155.01 71.2499 163.965 78.073 171.882C93.982 188.458 110.709 199.313 128.411 210.814C130.726 212.314 133.05 213.822 135.373 215.348C85.3661 225.114 15.2897 263.174 24.0275 329.224C27.0388 355.853 38.5789 377.163 58.3521 392.562C79.6047 409.111 109.987 418.136 146.313 419.06C160.281 419.417 175.129 418.563 190.663 416.496C215.606 437.676 240.932 459.23 265.378 480.288C265.709 480.741 266.17 481.072 266.684 481.247C267.015 481.404 267.363 481.508 267.728 481.517C268.042 481.517 268.364 481.474 268.668 481.369C269.008 481.256 269.295 481.055 269.547 480.828C299.546 470.348 323.714 458.69 348.057 446.36C348.17 446.857 348.37 447.328 348.762 447.712C359.849 458.48 357.813 469.694 355.837 480.541C353.757 492.007 351.599 503.856 369.248 509.541C370.902 510.073 372.477 510.344 373.983 510.378C379.457 510.518 384.043 507.658 388.116 503.699C392.764 512.785 397.585 523.126 402.32 533.79C395.279 537.182 387.011 536.72 379.405 535.316C373.844 534.304 368.378 532.848 363.026 531.009L363.087 530.799C355.68 527.224 355.019 516.77 349.406 510.745C346.655 507.789 342.8 506.054 338.866 505.147C332.304 503.621 325.594 504.231 319.102 506.08C315.716 495.529 305.064 487.141 292.714 486.077C287.467 485.615 281.984 486.4 276.553 488.266C251.454 487.08 231.593 505.766 221.898 539.745C210.689 579.035 215.51 630.672 236.58 666.081C198.278 665.488 169.811 670.641 169.176 679.204C168.41 689.528 208.548 700.898 258.79 704.603C271.027 705.51 282.741 705.859 293.463 705.754C293.498 705.728 293.533 705.711 293.559 705.685C294.15 705.72 294.742 705.772 295.334 705.78C302.175 705.955 308.815 704.795 314.794 702.267C321.817 699.293 329.58 693.085 331.208 684.374C342.452 675.167 348.231 659.044 345.394 643.585C343.575 633.662 338.431 624.176 330.912 616.415C334.158 614.942 336.865 612.291 338.753 608.69C342.017 602.455 342.191 594.451 339.206 588.313C336.56 582.872 332.33 578.73 327.596 575.469C328.449 573.664 328.423 571.327 327.84 569.339C327.022 566.47 325.385 563.811 325.011 560.838C324.855 559.556 325.072 558.161 325.603 556.958C325.951 557.193 326.308 557.437 326.673 557.655C331.669 560.637 372.355 581.651 414.304 561.553C426.027 589.376 435.565 613.363 438.002 615.125C419.282 634.203 421.484 652.61 430.021 664.991C406.262 666.229 389.422 672.002 388.621 680.451C387.516 692.222 418.029 704.726 456.774 708.37C466.234 709.26 475.285 709.521 483.614 709.268C485.111 709.46 486.617 709.582 488.14 709.617C490.994 709.687 493.866 709.486 496.721 708.998C498.801 708.641 500.794 708.152 502.726 707.559C502.839 707.542 502.961 707.524 503.074 707.507C503.074 707.489 503.091 707.463 503.091 707.446C524.953 700.566 537.668 679.274 552.185 654.929C555.127 650.002 558.164 644.902 561.367 639.775C564.065 635.458 568.503 629.817 573.646 623.286C592.01 599.97 619.755 564.727 613.141 531.915C612.627 529.387 611.896 526.928 610.991 524.513C611.052 523.85 610.869 523.161 610.417 522.594C610.303 522.455 610.182 522.333 610.068 522.202C604.542 509.454 593.376 498.372 576.719 489.164C555.379 477.367 529.862 481.064 508.461 499.052C495.041 510.335 483.527 527.512 477.992 546.765C473.336 545.788 469.141 546.581 465.956 549.154C461.883 552.441 459.611 558.44 459.15 567.046C455.913 560.044 451.692 551.168 446.983 541.332C475.364 518.269 469.811 472.859 461.1 448.279C461.404 448.226 461.718 448.192 462.022 448.122C467.461 446.788 471.726 442.515 473.423 436.691C475.111 430.91 474.842 423.402 474.563 415.459C474.241 406.208 473.902 396.642 476.913 390.94C476.939 390.888 476.948 390.844 476.974 390.792C479.698 389.51 482.326 387.906 484.754 385.961C492.152 380.049 496.965 372.08 499.941 366.604C508.452 350.935 513.1 334.194 513.387 318.176C513.474 313.442 513.257 306.396 510.28 299.927C507.217 293.309 501.586 288.338 495.207 286.612C492.404 285.853 489.402 285.705 486.216 286.098C485.746 283.996 484.528 282.226 483.666 280.953C483.101 280.107 482.483 279.218 481.665 278.407C479.559 276.306 476.443 275.207 473.266 275.381C472.326 273.795 472.518 271.623 472.727 270.429C472.953 269.173 473.327 267.918 473.728 266.584C473.849 266.191 473.963 265.799 474.076 265.406C484.981 270.35 496.721 272.957 508.444 273.254C528.269 273.76 548.034 267.743 563.516 255.623C570.113 257.995 578.947 257.925 590.191 251.386C591.557 252.85 593.08 254.237 594.786 255.492C600.721 259.87 607.997 262.163 616.543 262.381C621.817 262.512 627.57 261.858 633.775 260.402C658.335 254.638 674.827 242.378 684.113 222.96C696.567 225.131 707.498 215.889 713.625 197.735C721.197 175.309 718.629 145.994 703.095 138.591C701.737 135.609 698.195 129.453 691.171 126.419C686.289 124.309 680.832 124.178 674.932 126.027C670.45 116.139 658.762 111.552 643 113.671C616.187 117.281 579.364 140.823 569.6 182.929C558.016 176.66 550.958 181.552 547.659 185.258C541.202 192.521 539.043 205.984 540.732 219.246C540.506 219.35 540.279 219.446 540.088 219.612C528.861 229.456 512.795 229.23 501.516 225.742C501.455 225.724 501.394 225.716 501.333 225.707C507.208 189.888 483.562 131.372 454.764 116.392C451.248 114.561 447.897 113.471 444.712 112.956C449.203 103.748 447.915 96.4154 440.865 91.1576C432.38 84.8273 423.233 85.1586 413.59 92.1255C403.695 85.8649 396.106 76.0905 392.477 64.9645C394.948 64.5373 397.411 63.953 399.839 63.1334C404.582 61.5465 408.186 58.3988 410.248 54.039L410.292 54.0826ZM312.74 697.331C300.547 702.485 285.134 701.177 271.523 693.835C235.466 674.408 208.357 606.955 227.103 541.236C234.222 516.29 247.05 500.246 263.229 495.259C261.288 496.637 259.391 498.154 257.554 499.819C248.669 507.876 241.889 518.147 237.947 529.509C234.5 539.466 233.343 549.799 232.446 559.538C230.253 583.386 229.191 611.236 237.921 636.949C247.285 664.538 267.815 685.412 291.505 691.411C295.569 692.44 299.633 692.998 303.593 693.103C310.686 693.286 317.457 691.969 323.349 689.292C320.695 692.946 316.587 695.71 312.74 697.34V697.331ZM334.419 590.684C336.656 595.271 336.499 601.505 334.045 606.214C332.296 609.544 329.615 611.681 326.465 612.239C323.593 609.815 320.46 607.617 317.109 605.708C302.697 597.477 286.614 595.968 274.09 601.671C272.741 602.29 272.141 603.877 272.759 605.228C273.368 606.58 274.96 607.173 276.309 606.562C287.266 601.566 301.522 602.996 314.446 610.373C328.04 618.124 337.648 630.907 340.154 644.57C342.609 657.972 337.752 671.897 328.214 679.936C327.431 680.111 326.769 680.634 326.412 681.349C325.908 681.715 325.403 682.081 324.872 682.413C316.291 687.801 304.611 689.179 292.81 686.197C270.87 680.634 251.776 661.102 242.994 635.214C234.587 610.451 235.64 583.308 237.781 560.027C238.643 550.619 239.766 540.652 243.012 531.27C246.658 520.754 252.933 511.259 261.149 503.804C266.24 499.183 271.819 495.738 277.458 493.663C277.885 493.62 278.276 493.48 278.616 493.271C282.628 491.919 286.657 491.248 290.539 491.353C291.131 491.37 291.714 491.396 292.297 491.449C301.165 492.207 309.172 497.709 312.818 504.815C303.393 499.052 293.306 496.898 284.29 498.878C274.83 500.944 265.753 506.96 257.311 516.761C251.219 523.841 241.437 538.036 244.396 553.601C245.1 557.254 246.493 559.783 248.669 561.335C251.541 563.375 255.022 563.174 257.972 563.009C274.29 562.067 292.175 565.459 311.156 573.08C319.65 576.48 329.972 581.555 334.419 590.702V590.684ZM301.435 530.791L305.926 527.076C307.031 526.169 308.65 526.326 309.546 527.451C310.442 528.567 310.277 530.206 309.18 531.122L304.69 534.836C304.194 535.246 303.593 535.438 302.993 535.421C302.27 535.403 301.557 535.081 301.061 534.461C300.164 533.345 300.33 531.706 301.426 530.791H301.435ZM260.148 557.524C259.269 557.551 258.39 557.585 257.511 557.629C255.344 557.751 253.107 557.882 251.776 556.94C250.784 556.225 250.087 554.795 249.661 552.572C247.128 539.24 255.91 526.605 261.375 520.257C269.042 511.355 277.136 505.932 285.439 504.118C293.124 502.426 301.853 504.362 310.112 509.454C307.605 510.605 305.16 511.878 302.819 513.247C284.899 523.702 269.974 539.222 260.148 557.524ZM340.859 524.774C339.771 525.698 338.144 525.55 337.23 524.443C335.411 522.237 332.148 521.775 329.711 522.08C326.56 522.472 323.436 524.007 320.407 525.498C320.024 525.681 319.615 525.768 319.224 525.759C318.293 525.733 317.405 525.201 316.97 524.286C316.352 522.987 316.883 521.435 318.171 520.807C321.574 519.141 325.09 517.415 329.084 516.909C333.993 516.29 338.518 517.86 341.19 521.103C342.104 522.211 341.956 523.85 340.859 524.774ZM699.761 143.021C699.97 143.143 700.196 143.23 700.423 143.291C713.442 148.871 715.505 175.614 708.604 196.052C706.689 201.711 699.744 219.054 686.393 217.868C688.743 212.087 693.469 199.409 695.88 185.772C699.448 165.56 696.724 151.095 687.777 142.698C690.902 141.565 696.254 140.989 699.77 143.021H699.761ZM676.298 131.284C681.067 129.741 685.367 129.776 689.1 131.389C691.72 132.523 693.869 134.371 695.514 136.403C690.832 136.054 685.871 137.196 682.93 139.202C680.502 138.042 677.56 137.432 674.792 137.187C675.776 135.278 676.289 133.185 676.298 131.284ZM551.715 188.867C555.788 184.29 561.436 184.176 568.529 188.527C567.781 192.974 567.328 197.604 567.215 202.435C567.18 203.917 568.346 205.147 569.826 205.19C571.305 205.225 572.541 204.057 572.576 202.566C573.821 151.4 614.951 122.922 643.758 119.042C657.952 117.133 668.039 121.274 670.78 130.125C670.78 130.16 670.798 130.186 670.806 130.221C671.381 132.305 670.145 135.792 667.7 137.432C667.395 137.493 667.125 137.554 666.873 137.623C661.181 139.21 657.674 141.591 655.559 145.201C653.009 145.968 646.212 147.895 641.33 148.13C641.312 148.13 641.286 148.13 641.269 148.13C641.034 148.148 632.13 148.662 626.978 144.268C625.847 143.3 624.159 143.439 623.192 144.573C622.235 145.706 622.366 147.398 623.497 148.366C628.31 152.473 635.046 153.362 638.823 153.519C638.727 155.507 638.249 157.068 637.039 159.936C623.367 155.83 606.909 154.984 597.179 158.463C595.787 158.96 595.056 160.503 595.552 161.898C596.048 163.293 597.58 164.026 598.981 163.529C613.906 158.192 644.471 164.575 652.896 174.576C652.913 174.942 652.922 175.317 652.939 175.692C653.079 179.555 653.235 183.732 653.348 188.353C653.192 188.414 653.044 188.493 652.896 188.588C645.994 193 642.13 198.345 641.417 204.484C640.268 214.328 647.822 222.28 648.144 222.611C649.171 223.675 650.868 223.701 651.93 222.673C652.992 221.644 653.026 219.943 651.999 218.871C651.938 218.81 645.872 212.366 646.743 205.077C647.195 201.31 649.458 197.84 653.47 194.736C653.488 195.764 653.496 196.811 653.505 197.883C653.522 199.366 654.715 200.534 656.212 200.543C657.691 200.525 658.883 199.313 658.866 197.831C658.788 189.129 658.518 181.892 658.283 175.501C657.387 151.069 657.569 145.802 668.291 142.811C668.483 142.759 668.718 142.707 668.97 142.663C669.04 142.663 669.101 142.646 669.162 142.637C672.129 142.201 678.5 142.471 681.703 144.721C681.703 144.721 681.711 144.721 681.72 144.73C691.128 151.304 694.104 164.811 690.562 184.856C687.586 201.737 680.902 217.127 680.145 218.827C680.101 218.923 680.066 219.01 680.04 219.106C674.662 231.174 663.844 247.898 632.583 255.231C617.91 258.666 606.274 257.315 597.997 251.22C596.361 250.017 594.917 248.665 593.646 247.227C593.576 246.93 593.463 246.633 593.289 246.363C592.993 245.901 592.584 245.561 592.123 245.352C585.97 237.156 584.499 226.806 584.151 222.036C584.047 220.554 582.75 219.446 581.279 219.551C579.8 219.656 578.685 220.946 578.799 222.428C579.164 227.486 580.678 238.141 586.84 247.192C574.395 254.15 563.777 253.034 555.997 243.896C545.257 231.27 541.219 200.7 551.698 188.894L551.715 188.867ZM652.661 167.147C649.737 165.037 646.134 163.197 642.139 161.654C643.488 158.41 644.123 156.274 644.202 153.257C647.352 152.865 650.729 152.089 653.383 151.391C652.582 155.533 652.504 160.695 652.661 167.147ZM131.335 206.289C113.894 194.971 97.4197 184.272 82.0416 168.255C76.1409 161.401 73.2167 153.946 73.3386 146.099C73.8085 141.922 75.9408 137.065 78.8041 132.217C79.0042 132.034 79.1783 131.816 79.3175 131.572C88.7603 114.273 111.78 106.277 126.053 110.68C132.388 112.634 139.655 117.795 138.35 131.258C137.558 139.359 137.584 147.607 142.936 153.17C144.877 157.416 148.506 160.381 150.63 162.107C151.03 162.43 151.491 162.805 151.796 163.075C151.491 163.799 151.195 164.505 150.9 165.168C148.933 169.658 147.07 173.905 150.769 179.032C153.302 182.537 156.408 183.758 159.489 183.836C163.919 183.95 168.262 181.683 170.69 180.418C171.256 180.122 171.935 179.773 172.3 179.616C172.761 179.607 173.197 179.459 173.588 179.232C175.102 180.392 176.643 181.578 178.053 182.659C177.652 182.729 177.243 182.807 176.852 182.877C168.01 184.543 156.73 187.394 147.993 194.622C141.03 200.368 138.071 205.652 137.07 210.029C135.156 208.783 133.241 207.536 131.344 206.297L131.335 206.289ZM241.41 258.239C243.943 261.744 247.059 262.965 250.131 263.043C253.777 263.139 257.346 261.622 259.852 260.375C261.897 262.738 264.473 265.816 266.64 268.45C252.576 273.141 236.145 278.634 219.557 284.171C217.164 281.755 214.675 279.384 212.099 277.099C215.023 274.963 217.39 272.155 219.505 269.339C227.912 258.169 233.264 246.581 235.31 235.324C235.649 235.612 235.971 235.9 236.302 236.179C238.356 237.958 240.149 239.501 242.577 241.916C242.229 242.78 241.872 243.608 241.532 244.384C239.565 248.874 237.703 253.121 241.402 258.248L241.41 258.239ZM353.218 145C354.314 145.183 355.167 146.02 355.933 146.822C360.215 151.348 364.079 156.248 367.917 161.148C368.77 162.212 369.64 163.625 368.979 164.811C368.526 165.595 367.525 165.9 366.638 165.761C365.236 165.534 364.183 164.357 363.252 163.258C359.666 159.047 356.098 154.818 352.53 150.598C351.782 149.691 350.998 148.749 350.755 147.598C350.528 146.447 351.042 145.052 352.165 144.73C350.85 145.724 352.147 144.834 353.226 145H353.218ZM421.797 135.749C422.824 135.932 423.651 136.647 424.382 137.344C428.49 141.242 432.197 145.453 435.922 149.656C436.74 150.563 437.584 151.784 436.992 152.76C436.601 153.414 435.661 153.65 434.825 153.501C433.494 153.275 432.484 152.263 431.579 151.313C428.133 147.677 424.704 144.058 421.257 140.422C420.518 139.638 419.769 138.835 419.517 137.859C419.264 136.882 419.726 135.705 420.779 135.47C419.552 136.272 420.761 135.557 421.788 135.74L421.797 135.749ZM423.494 167.269C429.96 180.165 436.592 198.581 439.716 216.831C439.351 217.711 439.447 218.757 440.091 219.551C440.117 219.586 440.152 219.603 440.178 219.638C440.465 221.565 440.709 223.484 440.909 225.393C440.604 225.053 440.212 224.783 439.751 224.634C422.223 219.045 405.261 224.198 392.085 231.357C392.781 230.433 393.382 229.448 393.808 228.34C395.053 225.07 394.679 221.443 394.287 217.99C393.451 210.71 391.163 198.005 390.771 195.887C390.736 195.686 390.579 195.555 390.405 195.52L368.953 191.832C368.953 191.832 368.448 191.335 368.718 191.091L387.446 180.2C387.629 180.096 387.725 179.869 387.655 179.668C387.255 178.421 385.88 174.079 384.992 171.769C379.335 157.085 369.353 143.492 355.228 136.926C354.279 137.641 353.365 138.391 352.486 139.167C361.503 130.604 371.885 128.076 383.956 131.441C399.43 135.749 414.574 149.482 423.494 167.269ZM377.873 247.392C378.091 247.296 378.308 247.2 378.508 247.043C390.388 237.269 413.93 222.027 438.132 229.753C439.333 230.136 440.587 229.622 441.222 228.602C442.493 244.506 440.36 259.303 432.223 268.999C423.381 279.541 407.916 283.996 393.747 280.081C387.925 278.468 384.635 276.062 379.17 272.077C378.917 271.894 378.648 271.772 378.369 271.684C379.135 263.532 378.761 255.1 377.89 247.401L377.873 247.392ZM365.463 294.451C360.641 301.104 353.479 304.818 344.201 305.568C329.998 294.407 316.5 283.831 305.168 275.172C321.104 261.178 348.022 247.941 373.156 255.257C374.052 270.56 372.216 285.138 365.463 294.451ZM371.328 170.783C371.355 169.606 372.329 168.673 373.495 168.699C374.662 168.726 375.584 169.711 375.549 170.888C375.515 172.065 374.549 172.998 373.382 172.972C372.216 172.946 371.294 171.96 371.328 170.783ZM367.795 223.013C370.014 231.305 371.781 240.46 372.695 249.555C354.662 245.012 336.055 249.842 320.773 257.951C322.296 256.495 323.558 254.847 324.315 252.85C325.586 249.459 325.177 245.701 324.75 242.108C323.871 234.575 321.408 221.408 320.999 219.185C320.964 218.984 320.808 218.836 320.616 218.819L298.128 214.947C298.128 214.947 297.588 214.415 297.893 214.171L317.492 202.932C317.692 202.81 317.788 202.6 317.718 202.382C317.3 201.083 315.847 196.575 314.924 194.186C309.111 179.346 297.919 164.47 283.637 157.382C284.986 156.379 286.413 155.446 287.954 154.609C299.085 148.584 313.523 149.7 326.569 157.591C345.62 169.135 359.101 190.533 367.786 223.013H367.795ZM301.548 195.677C301.583 194.465 302.575 193.515 303.767 193.541C304.96 193.567 305.908 194.579 305.873 195.782C305.839 196.985 304.846 197.944 303.654 197.918C302.462 197.892 301.513 196.88 301.548 195.677ZM283.768 168.316C282.436 169.31 283.733 168.403 284.83 168.586C285.926 168.769 286.779 169.606 287.545 170.408C291.827 174.934 295.691 179.834 299.529 184.734C300.382 185.798 301.252 187.211 300.591 188.397C300.138 189.181 299.137 189.487 298.25 189.347C296.848 189.12 295.795 187.943 294.864 186.845C291.278 182.633 287.71 178.404 284.142 174.184C283.394 173.277 282.61 172.335 282.367 171.184C282.14 170.033 282.654 168.638 283.777 168.316H283.768ZM286.1 267.621C299.25 277.134 319.337 292.855 341.051 309.928C341.355 310.346 341.747 310.678 342.234 310.861C344.018 312.265 345.803 313.668 347.604 315.081C375.288 336.853 403.86 359.315 421.893 372.115C401.771 381.523 318.58 420.228 275.935 437.467C253.812 418.964 231.237 400.697 209.375 383.014C183.771 362.305 157.331 340.917 131.796 319.284C151.944 312.413 237.712 283.752 286.1 267.612V267.621ZM215.223 266.095C212.682 269.47 209.819 272.809 206.12 274.387C201.864 276.192 196.355 275.73 189.271 272.984C165.138 263.584 146.644 241.001 142.153 215.453C142.153 215.453 142.153 215.444 142.153 215.435C140.969 208.939 146.522 202.784 151.396 198.764C159.185 192.312 169.62 189.704 177.827 188.152C182.631 187.246 188.627 186.356 194.823 186.513C200.306 186.653 205.946 187.612 211.063 190.106C223.038 195.948 231.01 210.204 230.889 225.576C230.784 238.603 225.371 252.615 215.214 266.095H215.223ZM104.948 242.187C108.525 239.824 112.641 238.15 116.836 237.356C118.237 237.086 119.577 238.019 119.839 239.44C120.1 240.853 119.177 242.221 117.776 242.483C114.243 243.154 110.779 244.558 107.759 246.555C107.306 246.852 106.793 246.991 106.288 246.982C105.47 246.965 104.678 246.546 104.191 245.805C103.416 244.602 103.747 242.98 104.939 242.195L104.948 242.187ZM49.1965 295.209C48.6918 296.012 47.8302 296.439 46.9599 296.413C46.5073 296.404 46.0548 296.273 45.6457 296.003C44.4447 295.227 44.0966 293.614 44.8625 292.402C57.2033 272.835 74.4613 256.783 94.774 245.997C96.0359 245.326 97.5938 245.823 98.2552 247.096C98.9166 248.369 98.4293 249.947 97.1673 250.618C77.6553 260.986 61.0674 276.402 49.2052 295.209H49.1965ZM73.2167 335.851C63.0082 312.753 80.4315 288.19 102.903 275.861C115.035 269.217 133.119 263.575 158.184 258.623C158.306 258.597 158.419 258.553 158.541 258.518C166.626 266.967 176.434 273.751 187.339 277.997C191.969 279.793 196.111 280.744 199.836 280.831C202.412 280.901 204.771 280.535 206.964 279.785C209.323 281.816 211.603 283.926 213.822 286.08C169.637 300.851 126.174 315.43 125.252 315.901C124.46 316.31 123.92 317.095 123.816 317.984C123.798 318.107 123.816 318.229 123.816 318.342L120.422 355.26C120.343 356.132 120.691 356.986 121.353 357.553C125.408 361.015 129.49 364.485 133.572 367.964C100.796 365.436 79.4829 350.028 73.208 335.833L73.2167 335.851ZM266.083 473.792C242.463 453.467 218.06 432.706 194.031 412.294C193.727 411.779 193.257 411.387 192.709 411.169C187.835 407.027 182.97 402.903 178.131 398.796C160.586 383.895 143.102 369.054 125.896 354.388L128.716 323.696C154.181 345.268 180.49 366.578 205.998 387.208C227.843 404.882 250.409 423.141 272.506 441.617L266.075 473.792H266.083ZM271.418 474.472L277.754 442.768C277.806 442.716 277.858 442.681 277.902 442.629C277.954 442.568 277.989 442.489 278.041 442.428C320.712 425.172 403.564 386.624 423.999 377.076C422.632 385.237 420.004 400.88 419.16 405.824C396.149 415.834 376.42 425.896 357.343 435.627C330.024 449.561 304.141 462.753 271.418 474.481V474.472ZM441.3 557.036C440.935 557.202 440.561 557.271 440.186 557.263C439.22 557.237 438.315 556.67 437.897 555.719L422.276 520.136C421.701 518.819 422.276 517.275 423.581 516.691C424.878 516.116 426.401 516.691 426.984 518.017L442.606 553.601C443.18 554.917 442.606 556.461 441.3 557.045V557.036ZM424.826 494.858C429.621 494.622 434.094 491.318 437.34 487.063C437.558 497.273 436.227 506.873 432.589 511.207C429.969 505.722 427.367 500.238 424.826 494.867V494.858ZM607.901 533.005C614.028 563.375 587.206 597.442 569.46 619.982C564.221 626.634 559.696 632.389 556.841 636.949C553.612 642.12 550.558 647.247 547.599 652.2C532.403 677.678 519.288 699.677 495.833 703.723C492.483 704.298 489.097 704.412 485.781 704.124C483.701 703.845 481.595 703.453 479.445 702.912C477.357 702.389 475.355 701.717 473.432 700.95C468.723 688.525 470.238 676.431 477.983 664.974C481.726 659.437 486.347 654.31 490.812 649.357C494.476 645.285 498.27 641.082 501.647 636.592C512.264 622.467 518.644 605.769 524.814 589.62C527.399 582.863 530.071 575.87 533.004 569.208C541.463 549.999 556.667 525.812 581.009 519.708C588.833 517.755 599.19 518.226 605.473 525.114C606.535 527.678 607.353 530.311 607.893 533.014L607.901 533.005ZM593.907 508.312C596.109 510.5 598.067 512.759 599.781 515.087C593.185 512.715 585.787 512.951 579.712 514.477C553.255 521.112 537.042 546.712 528.095 567.028C525.11 573.812 522.412 580.866 519.801 587.685C513.761 603.484 507.513 619.825 497.356 633.348C494.127 637.647 490.411 641.763 486.826 645.747C482.239 650.839 477.496 656.097 473.536 661.948C465.973 673.135 463.658 684.889 466.582 696.965C464.52 695.431 462.657 693.661 461.056 691.707C461.074 691.454 461.056 691.202 461.004 690.94C458.993 682.465 461.213 672.376 467.253 662.532C471.065 656.315 475.982 650.613 480.742 645.093C482.77 642.739 484.876 640.306 486.878 637.839C497.278 625.082 505.772 610.948 512.125 595.811C514.588 589.961 516.738 583.909 518.818 578.05C521.141 571.519 523.543 564.761 526.354 558.344C536.354 535.621 551.663 518.313 569.46 509.602C577.998 505.417 586.875 504.964 593.907 508.312ZM471.874 628.326C488.392 614.889 465.503 602.987 465.703 582.627C465.703 582.322 465.495 581.607 465.103 580.552C463.023 562.721 466.2 555.911 469.359 553.365C471.221 551.857 473.728 551.403 476.695 551.979C473.51 566.069 473.606 581.058 478.54 595.524C479.019 596.927 480.551 597.686 481.943 597.198C483.344 596.718 484.093 595.192 483.614 593.788C471.996 559.713 489.062 522.42 511.934 503.194C531.863 486.444 554.535 483.052 574.151 493.89C578.094 496.07 581.688 498.354 584.969 500.744C579.182 500.517 573.046 501.86 567.111 504.763C548.173 514.032 531.959 532.282 521.446 556.173C518.557 562.765 516.12 569.618 513.761 576.236C511.707 582.017 509.584 587.999 507.182 593.71C501.029 608.367 492.796 622.065 482.726 634.421C480.768 636.827 478.697 639.225 476.687 641.553C471.787 647.238 466.722 653.115 462.684 659.698C458.68 666.229 456.2 672.926 455.303 679.352C455.112 674.382 442.397 652.331 471.883 628.317L471.874 628.326ZM447.836 567.011L450.613 574.074C451.135 575.417 450.491 576.925 449.168 577.457C448.837 577.588 448.489 577.649 448.158 577.64C447.157 577.614 446.218 576.995 445.826 575.992L443.05 568.929C442.527 567.587 443.171 566.078 444.503 565.546C445.826 565.014 447.323 565.668 447.845 567.011H447.836ZM456.348 509.454C456 510.596 454.947 511.32 453.824 511.294C453.589 511.294 453.363 511.25 453.128 511.181C451.77 510.753 451.004 509.297 451.431 507.92C454.364 498.328 455.182 487.987 453.798 478.021C453.598 476.591 454.581 475.274 455.991 475.074C457.392 474.873 458.706 475.867 458.898 477.288C460.386 488.013 459.507 499.139 456.348 509.454ZM472.727 280.866C474.676 280.5 476.713 281.04 477.922 282.244C478.392 282.714 478.819 283.334 479.263 283.996C480.081 285.199 480.768 286.281 480.995 287.257C478.967 287.868 476.887 288.661 474.746 289.681C465.025 294.32 456.792 301.287 450.952 309.814C450.116 311.044 450.43 312.709 451.648 313.555C452.875 314.392 454.538 314.087 455.382 312.857C460.691 305.106 468.184 298.767 477.052 294.538C483.484 291.469 489.132 290.553 493.849 291.826C498.714 293.143 503.048 297.023 505.441 302.202C507.382 306.423 508.183 311.323 508.052 318.098C507.782 333.252 503.361 349.148 495.259 364.058C490.82 372.228 486.565 377.695 481.438 381.784C475.129 386.824 467.418 389.379 460.264 388.812C457.427 388.577 455.112 387.897 453.389 386.772C451.77 385.717 450.343 384.139 448.907 381.776C444.808 375.132 443.189 367.092 444.468 359.724C444.721 358.259 443.746 356.873 442.284 356.612C440.83 356.367 439.438 357.335 439.177 358.8C437.645 367.572 439.481 376.745 444.329 384.601C446.174 387.618 448.176 389.806 450.465 391.289C452.936 392.902 456.087 393.878 459.829 394.183C460.369 394.227 460.917 394.253 461.465 394.271C464.433 394.349 467.444 393.983 470.421 393.224C468.689 399.72 468.941 407.803 469.219 415.694C469.481 423.193 469.733 430.273 468.288 435.226C467.113 439.245 464.372 442.062 460.769 442.942C457.401 443.762 453.885 442.672 451.361 440.022C446.435 434.86 445.669 424.858 449.255 412.59C449.673 411.169 448.855 409.669 447.436 409.251C446.017 408.841 444.52 409.652 444.103 411.073C439.655 426.297 441.997 435.348 444.999 440.405C440.63 446.744 439.812 454.845 439.02 462.701C438.333 469.502 437.68 475.928 434.904 480.985C432.632 485.101 427.506 490.707 422.667 489.286C419.778 488.423 418.011 487.106 417.271 485.258C415.113 479.869 421.014 469.554 425.757 461.271C427.55 458.132 429.247 455.167 430.596 452.403C431.248 451.069 430.7 449.456 429.369 448.811C428.037 448.157 426.427 448.706 425.774 450.04C424.495 452.647 422.85 455.542 421.101 458.603C418.194 463.686 415.244 468.848 413.381 473.722C404.522 474.829 398.282 482.869 392.233 490.655C384.244 500.944 378.822 507.004 370.911 504.449C357.734 500.203 359.014 493.175 361.129 481.526C363.139 470.487 365.619 456.772 352.669 444.05C355.028 442.847 357.395 441.643 359.771 440.431C363.661 438.443 367.586 436.447 371.555 434.441C371.825 439.054 373.852 443.37 377.386 446.561C380.493 449.369 384.313 450.895 388.221 450.99C390.04 451.034 391.885 450.772 393.678 450.188C401.197 447.721 407.394 439.891 408.081 431.973C408.534 426.812 406.593 422.304 402.746 419.156C409.134 416.165 415.731 413.166 422.641 410.175C423.572 409.774 424.147 408.902 424.234 407.96C424.878 404.289 429.908 374.233 430.126 372.934C430.291 371.949 429.899 370.955 429.099 370.345C428.768 370.092 428.376 369.943 427.985 369.865C419.056 363.666 406.871 354.493 393.225 343.96C396.776 340.437 398.83 335.406 398.691 330.087C398.525 323.739 395.314 318.185 390.109 315.247C385.253 312.509 379.031 312.212 373.878 314.479C370.084 316.145 367.282 318.97 365.75 322.545C360.815 318.673 355.846 314.767 350.903 310.878C350.607 310.643 350.302 310.407 350.006 310.172C358.335 308.419 364.993 304.251 369.788 297.633C373.887 291.983 376.298 285.016 377.568 277.596C382.329 281.049 386.202 283.604 392.294 285.287C395.801 286.255 399.369 286.769 402.929 286.865C415.766 287.196 428.342 281.973 436.305 272.487C441.266 266.584 444.477 258.71 445.948 249.188C449.02 250.801 452.144 252.083 455.269 252.946C460.151 254.289 464.72 255.013 468.941 255.118C469.359 255.126 469.759 255.118 470.168 255.118C470.142 257.498 469.977 259.904 469.428 262.224C469.202 263.192 468.915 264.142 468.628 265.093C468.201 266.514 467.757 267.979 467.479 269.539C466.983 272.312 467.183 274.823 468.053 276.925C466.321 277.823 464.703 279.087 463.319 280.665C462.335 281.782 462.449 283.482 463.554 284.458C464.668 285.444 466.356 285.33 467.34 284.223C468.898 282.453 470.812 281.276 472.709 280.91L472.727 280.866ZM530.715 234.505C532.429 234.261 534.057 233.485 535.414 232.246C536.467 231.279 538.104 231.366 539.052 232.438C540.001 233.511 539.922 235.159 538.861 236.118C536.737 238.062 534.161 239.283 531.42 239.667C531.28 239.684 531.141 239.693 531.002 239.693C529.766 239.658 528.696 238.725 528.522 237.443C528.33 236.013 529.314 234.697 530.723 234.505H530.715ZM500.472 237.818C500.924 236.449 502.378 235.708 503.727 236.17C509.784 238.211 516.529 238.524 522.708 237.042C524.092 236.711 525.484 237.583 525.806 238.978C526.128 240.382 525.275 241.785 523.892 242.117C520.558 242.91 517.147 243.268 513.744 243.181C509.81 243.076 505.885 242.387 502.099 241.114C500.75 240.661 500.019 239.178 500.472 237.818ZM493.744 233.755C488.079 248.238 475.616 252.946 456.705 247.732C453.415 246.825 450.108 245.413 446.862 243.547C446.783 243.503 446.705 243.477 446.618 243.442C447.157 236.345 446.835 228.471 445.617 219.908C445.565 219.516 445.478 219.115 445.417 218.723C455.956 210.57 475.068 199.348 494.737 205.6C495.346 205.792 495.972 205.748 496.521 205.53C497.504 216.22 496.738 226.064 493.727 233.755H493.744ZM452.336 121.213C473.153 132.043 491.517 168.839 495.929 200.342C481.09 195.799 466.783 199.915 455.582 205.783C455.965 205.19 456.304 204.58 456.565 203.9C457.653 201.109 457.323 198.023 456.966 195.067C456.226 188.841 454.216 178.003 453.867 176.181C453.833 176.015 453.711 175.91 453.554 175.867L435.026 172.667C435.026 172.667 434.59 172.222 434.825 172.03L450.969 162.761C451.135 162.674 451.213 162.482 451.161 162.299C450.813 161.236 449.62 157.53 448.846 155.55C443.92 143.003 435.287 131.363 423.05 125.721C422.467 126.157 421.91 126.628 421.353 127.09C430.892 117.464 441.274 115.45 452.327 121.196L452.336 121.213ZM437.61 157.582C437.636 156.562 438.472 155.76 439.473 155.786C440.474 155.812 441.274 156.658 441.248 157.678C441.222 158.698 440.387 159.5 439.386 159.474C438.385 159.448 437.584 158.602 437.61 157.582ZM393.06 78.776C393.06 78.776 393.095 78.837 393.121 78.8632C393.095 78.9678 393.068 79.0812 393.042 79.1859C393.06 79.0464 393.06 78.9155 393.068 78.776H393.06ZM396.759 84.0339C400.309 88.5418 404.53 92.5178 409.282 95.744C408.464 96.4939 407.646 97.2786 406.819 98.1157C405.784 99.1707 405.792 100.88 406.854 101.917C407.907 102.955 409.613 102.946 410.648 101.882C420.918 91.4192 429.517 89.3963 437.706 95.5173C444.346 100.47 442.153 106.722 439.142 112.18C439.038 112.372 438.951 112.538 438.855 112.712C425 113.549 414.878 125.189 409.343 133.578C408.229 135.26 407.672 136.821 407.324 138.225C400.492 132.549 392.999 128.381 385.401 126.262C367.151 121.179 351.773 127.936 339.702 146.369C337.674 149.473 335.942 152.865 334.497 156.475C332.818 155.245 331.112 154.068 329.345 152.996C314.655 144.111 298.232 142.951 285.404 149.892C274.508 155.795 265.953 167.13 261.323 181.805C252.898 208.46 259.443 240.582 277.911 264.691C276.04 265.319 274.099 265.965 272.106 266.627C270.008 264.081 267.206 260.707 264.839 257.943C265.074 257.69 265.274 257.411 265.405 257.062C265.918 255.667 265.204 254.124 263.821 253.609C262.315 253.051 261.01 253.731 258.851 254.856C252.75 258.03 248.651 259.085 245.753 255.083C243.943 252.571 244.483 251.037 246.449 246.538C248.268 242.396 250.749 236.72 250.714 227.896C250.714 226.413 249.495 225.21 248.016 225.219C246.536 225.219 245.335 226.431 245.344 227.922C245.353 231.148 244.979 233.851 244.422 236.222C242.751 234.644 241.306 233.397 239.809 232.098C238.695 231.139 237.512 230.11 236.128 228.863C236.197 227.773 236.25 226.692 236.258 225.62C236.398 208.216 227.216 192.006 213.413 185.275C204.318 180.846 194.084 180.636 185.407 181.569C185.337 181.499 185.276 181.43 185.198 181.369C184.154 180.575 182.822 179.546 181.369 178.422C177.705 175.596 173.136 172.074 170.368 170.138C169.15 169.284 167.479 169.58 166.634 170.801C165.782 172.022 166.077 173.696 167.296 174.541C167.679 174.812 168.105 175.117 168.558 175.448C168.436 175.509 168.332 175.57 168.201 175.631C162.1 178.805 158.001 179.869 155.112 175.858C153.302 173.347 153.832 171.812 155.808 167.313C157.627 163.171 160.107 157.495 160.072 148.671C160.072 147.189 158.802 145.985 157.375 145.994C155.895 145.994 154.694 147.206 154.703 148.697C154.72 152.202 154.268 155.106 153.624 157.608C149.881 154.539 146.409 151.104 147.044 146.116C147.932 139.184 157.087 127.23 195.694 109.66C197.434 108.867 199.184 108.073 200.933 107.28C201.203 112.886 204.814 118.728 210.167 121.859C212.908 123.463 215.989 124.309 219.035 124.387C222.29 124.474 225.51 123.681 228.26 122.016C233.064 119.095 236.284 113.732 237.102 107.297C237.799 101.769 236.406 96.6073 233.317 92.9713C274.734 75.4888 317.779 61.747 364.34 65.4702C362.147 68.7225 361.085 72.9776 361.52 77.4943C362.147 84.0251 366.246 89.8322 371.964 92.2911C373.939 93.1369 376.08 93.5903 378.282 93.6426C381.833 93.7298 385.549 92.8056 389.065 90.8873C391.58 89.5096 394.739 87.417 396.759 84.0339ZM225.284 117.525C226.38 116.784 227.39 115.929 228.295 114.979C227.468 115.947 226.537 116.784 225.484 117.429C225.423 117.473 225.345 117.49 225.284 117.534V117.525ZM371.494 60.5699L369.318 60.5263C305.299 53.9083 248.46 79.7701 193.483 104.786C164.964 117.761 148.48 129.392 143.371 140.152C143.197 137.414 143.406 134.528 143.676 131.781C144.955 118.65 139.098 109.085 127.619 105.536C118.977 102.868 107.672 104.019 97.3153 108.649C98.4119 107.55 99.2125 106.809 99.5781 106.547C99.7956 106.408 99.9871 106.242 100.161 106.05C118.246 85.2459 165.486 57.3524 217.704 36.6351C277.188 13.0316 330.929 3.02172 365.149 9.16891C386.08 12.927 399.631 22.5881 405.401 37.8733C407.272 42.8259 407.28 47.9006 405.435 51.7894C403.991 54.8412 401.545 56.9688 398.168 58.0936C389.535 60.9884 379.944 60.7704 371.485 60.5786L371.494 60.5699Z" fill="black"/>
<path d="M593.915 194.125C592.447 194.014 591.118 195.095 590.979 196.592L590.951 196.619C590.813 198.088 591.921 199.418 593.416 199.557C595.327 199.723 597.211 199.806 599.039 199.806C610.505 199.806 620.614 196.73 624.187 193.294C625.267 192.241 625.295 190.523 624.27 189.442C623.217 188.361 621.5 188.333 620.42 189.359C617.983 191.686 607.015 195.317 593.915 194.125Z" fill="black"/>
<path d="M616.93 209.117C618.426 209.201 619.561 210.503 619.451 211.999C619.146 216.544 622.248 226.271 636.262 230.677C637.675 231.121 638.478 232.645 638.035 234.086C637.675 235.25 636.622 235.998 635.459 235.998C635.21 235.998 634.933 235.943 634.656 235.86C617.392 230.677 613.634 217.653 614.05 211.639C614.133 210.143 615.435 209.007 616.93 209.117Z" fill="black"/>
<path d="M379.509 103.583C370.5 97.1296 357.192 96.4039 346.39 101.777C336.893 106.494 329.138 115.703 325.108 127.028C324.611 128.419 325.343 129.94 326.744 130.432C327.014 130.527 327.292 130.579 327.571 130.588C328.702 130.614 329.773 129.931 330.173 128.808C333.751 118.77 340.54 110.649 348.801 106.546C357.87 102.036 368.951 102.581 376.376 107.911C377.577 108.775 379.257 108.507 380.119 107.315C380.989 106.123 380.719 104.455 379.518 103.6L379.509 103.583Z" fill="black"/>
<path d="M302.574 124.841C293.565 118.388 280.256 117.662 269.454 123.036C259.957 127.761 252.202 136.961 248.172 148.287C247.676 149.678 248.407 151.198 249.808 151.691C250.078 151.786 250.357 151.838 250.635 151.846C251.767 151.872 252.837 151.19 253.238 150.067C256.815 140.028 263.605 131.908 271.865 127.804C280.935 123.295 292.015 123.839 299.44 129.169C300.641 130.033 302.321 129.765 303.183 128.573C304.053 127.381 303.784 125.714 302.582 124.859L302.574 124.841Z" fill="black"/>
<path d="M428.711 300.271C417.08 309.707 411.598 325.706 415.064 340.071C415.361 341.292 416.459 342.126 417.692 342.162C417.926 342.162 418.161 342.144 418.404 342.091C419.898 341.749 420.825 340.29 420.474 338.832C417.485 326.417 422.221 312.598 432.267 304.436C433.447 303.478 433.609 301.773 432.627 300.622C431.646 299.472 429.891 299.313 428.72 300.271H428.711Z" fill="black"/>
<path d="M467.429 368.275C475.202 370.15 484.535 359.072 488.282 343.531C491.995 328.094 488.794 314.072 481.135 312.049C483.451 310.348 486.096 308.915 489.141 307.899C490.546 307.431 491.301 305.92 490.832 304.513C490.364 303.107 488.855 302.352 487.449 302.82C477.084 306.267 470.682 313.734 466.605 321.157C463.882 325.35 461.574 330.699 460.126 336.741C456.387 352.282 459.649 366.399 467.429 368.275Z" fill="black"/>
<path d="M376.165 435.728C377.859 442.55 388.601 444.708 390.47 444.372C398.721 443.992 405.639 435.98 403.53 428.326C400.273 416.481 401.475 421.303 385.858 428.126C374.307 433.169 375.028 431.169 376.165 435.738V435.728Z" fill="#FF0029"/>
<path d="M379.233 68.1604C367.081 68.1604 365.932 65.8133 364.644 73.5355C363.031 83.24 370.911 91.1081 378.897 91.1081C386.882 91.1081 396.074 85.5871 393.277 82.7779C384.096 73.5356 386.731 68.1483 379.233 68.1483V68.1604Z" fill="#FF0029"/>
<path d="M372.857 318.638C363.153 326.576 367.16 323.452 380.054 333.579C389.591 341.072 387.43 341.337 391.217 338.383C396.882 333.962 394.406 323.983 393.315 322.57C389.507 315.8 379.131 313.505 372.868 318.638H372.857Z" fill="#FF0029"/>
<path d="M311.792 95.6635C311.792 88.1154 305.672 81.9973 298.126 81.9973C290.58 81.9973 284.46 88.1154 284.46 95.6635C284.46 103.212 290.58 109.33 298.126 109.33C305.672 109.33 311.792 103.212 311.792 95.6635Z" fill="#FF0029"/>
<path d="M215.383 102.477C203.189 107.678 204.048 105.409 204.958 110.731C206.323 118.683 217.279 121.749 219.225 121.459C227.754 121.459 235.336 112.589 233.592 103.659C230.888 89.8182 231.861 95.4537 215.37 102.477H215.383Z" fill="#FF0029"/>
<path d="M203.475 141.724C195.091 141.724 188.29 148.303 188.29 156.402C188.29 164.502 195.091 171.081 203.475 171.081C211.858 171.081 218.659 164.502 218.659 156.402C218.659 148.303 211.858 141.724 203.475 141.724Z" fill="#FF0029"/>
<path d="M533.809 349.644C530.735 349.644 528.242 347.178 528.242 344.129C528.242 341.081 530.735 338.615 533.809 338.615C536.883 338.615 539.376 341.081 539.376 344.129C539.376 347.178 536.883 349.644 533.809 349.644Z" fill="black"/>
<path d="M662.346 356.267C659.327 365.44 651.683 365.19 647.39 363.583C642.516 361.81 634.65 355.796 638.223 348.397C639.774 345.155 643.679 343.27 647.944 343.52C654.647 343.908 658.136 349.644 658.441 350.004C661.46 340.998 666.75 314.948 668.55 311.734C668.855 311.18 669.27 310.653 669.88 310.376C670.489 310.099 671.209 310.043 671.929 310.154C686.386 312.399 681.373 332.102 701.508 338.254C697.133 341.968 692.424 343.436 688.297 341.968C676.637 337.839 676.444 331.492 673.591 325.313C672.926 323.899 671.597 321.876 670.683 324.62C669.215 329.026 664.617 349.478 662.346 356.267Z" fill="black"/>
<path d="M612.937 288.844C632.296 291.864 625.594 318.246 652.57 326.504C646.698 331.492 640.383 333.46 634.872 331.492C619.223 325.922 618.974 317.442 615.152 309.157C614.266 307.272 612.493 304.584 611.275 308.242C609.308 314.117 603.132 341.497 600.113 350.614C596.014 362.918 585.822 362.53 580.061 360.424C573.553 358.013 563 349.976 567.792 340.056C569.897 335.76 575.131 333.211 580.837 333.543C589.81 334.07 594.491 341.746 594.906 342.245C598.978 330.19 606.012 295.273 608.45 290.977C608.865 290.229 609.391 289.536 610.195 289.148C610.97 288.76 611.967 288.705 612.937 288.844Z" fill="black"/>
<path d="M520.986 346.041C519.462 346.041 518.216 344.739 518.216 343.132C518.216 341.524 519.462 340.222 520.986 340.222C522.509 340.222 523.755 341.524 523.755 343.132C523.755 344.739 522.509 346.041 520.986 346.041Z" fill="black"/>
<path d="M549.983 349.783C546.577 349.783 543.807 346.9 543.807 343.353C543.807 339.806 546.577 336.924 549.983 336.924C553.39 336.924 556.16 339.806 556.16 343.353C556.16 346.9 553.39 349.783 549.983 349.783Z" fill="black"/>
<path d="M736.615 54.5182C740.756 43.5 736.265 34.4588 725.944 30.6005C715.6 26.7869 706.281 30.6043 702.14 41.6226C697.948 52.7736 703.606 58.8288 713.891 62.6726C724.212 66.5309 732.423 65.6692 736.615 54.5182ZM717.947 51.8844C716.058 51.1784 715.414 49.5089 716.571 46.4119C717.78 43.1907 719.956 40.6774 721.888 41.3973C723.821 42.1171 723.8 45.4364 722.592 48.6576C721.433 51.746 719.835 52.582 717.955 51.8752L717.947 51.8844Z" fill="black"/>
<path d="M704.599 111.989C707.752 113.123 710.781 112.074 712.003 108.697C713.253 105.232 711.64 102.511 708.435 101.364C705.238 100.217 702.253 101.279 701.017 104.701C699.78 108.122 701.401 110.834 704.599 111.989Z" fill="black"/>
<path d="M713.789 100.653C716.35 97.0957 720.133 90.2735 722.836 84.0756C723.094 83.5057 722.692 82.6512 721.98 82.3449C720.484 81.7033 717.61 80.6173 716.166 80.1005C714.723 79.5838 711.644 78.5221 709.943 78.0165C709.203 77.7983 708.391 78.2215 708.222 78.8189C706.334 85.3153 705.236 93.006 704.773 97.4077C704.742 97.9085 705.047 98.6243 705.529 98.8452C706.626 99.3369 707.87 99.8346 708.906 100.211C709.81 100.537 711.267 101.009 712.251 101.261C712.85 101.429 713.501 101.044 713.797 100.643L713.789 100.653Z" fill="black"/>
<path d="M685.061 82.8469C685.326 81.9241 686.408 81.0934 688.987 81.8238C692.034 82.6903 694.79 84.3699 697.288 86.963C698.104 87.9404 699.226 87.8629 699.551 86.7121C700.294 83.9391 701.42 79.6327 702.022 76.819C702.188 76.0671 701.834 75.3723 701.064 75.1047C698.658 74.2751 693.415 72.7347 688.714 71.4021C685.483 70.4895 679.082 68.6684 676.535 68.1417C675.834 67.9892 675.112 68.2337 674.872 68.9139C672.232 75.3734 668.307 87.2001 665.053 98.1073C664.828 98.8895 665.302 99.6697 666.014 99.976C668.763 101.003 675.829 102.962 679.192 103.916C683.85 105.235 692.086 107.629 695.2 108.258C695.967 108.371 696.735 107.942 696.907 107.156C697.808 103.631 698.941 98.6284 699.552 94.9201C699.778 93.5964 698.336 92.8818 697.428 93.6218C693.837 96.4327 691.02 96.8722 686.865 95.6954C683.405 94.7145 682.091 93.1994 682.594 91.4504L682.723 90.9936C683.185 89.3853 684.579 89.0292 687.543 89.8247C689.537 90.3421 690.805 91.1474 692.916 92.842C693.43 93.4815 694.342 93.2483 694.593 92.3695L695.622 88.9301C695.86 88.1039 695.315 87.398 694.518 87.227C692.198 86.6228 690.716 86.4012 688.735 85.8312C685.741 84.9778 684.7 84.0865 684.998 83.0322L685.052 82.8475L685.061 82.8469Z" fill="black"/>
<path d="M673.258 47.6532C672.897 48.4458 673.236 49.3825 674.127 49.7697C675.884 50.4428 679.534 51.4264 681.337 51.9155C683.096 52.3909 686.614 53.3415 688.419 53.6329C689.384 53.7479 690.153 53.1131 690.241 52.2383C691.039 45.4644 692.259 36.776 692.6 33.6902C692.663 31.8202 693.832 31.3438 694.852 31.6179C696.655 32.1071 699.026 35.2773 700.669 36.707C701.145 37.5299 702.367 37.4104 702.716 36.1202C703.106 34.6893 704.775 27.2557 705.185 24.8435C705.342 24.0923 705.005 23.5079 704.139 23.2219C700.438 22.0274 693.921 20.2582 690.077 19.2207C686.234 18.1833 679.716 16.4141 675.915 15.5883C675.022 15.3989 674.437 15.736 674.191 16.4597C673.316 18.7528 671.108 25.7895 670.633 27.3472C670.284 28.6374 671.251 29.4485 672.076 28.9812C674.223 28.5673 677.825 27.019 679.672 27.5135C680.736 27.8014 681.51 28.7992 680.611 30.441C679.347 33.2712 675.999 41.3836 673.257 47.6361L673.258 47.6532Z" fill="black"/>
<path d="M563.35 94.3467C567.139 94.228 574.035 93.8539 577.09 93.6024C585.974 92.8695 596.687 90.2688 596.113 83.351C595.811 79.6354 591.681 75.6461 583.155 74.8646C582.128 74.6082 582.123 73.9897 583.001 73.5356C589.783 71.7779 593.347 68.2729 593.052 64.6513C592.697 60.3639 588.121 58.5317 579.622 59.2265C572.929 59.7742 567.996 60.0321 561.671 60.8868C560.913 60.9965 560.47 61.5117 560.427 62.1854C560.379 69.194 560.584 81.0821 561.537 92.7152C561.61 93.6722 562.396 94.3769 563.35 94.3467ZM578.441 83.0302L576.815 83.155C576.003 83.2345 575.635 82.8243 575.572 82.1158L575.244 78.0584C575.193 77.3919 575.591 76.9746 576.175 77.0673C578.982 77.2732 580.752 78.8994 580.87 80.3343C581.003 81.9571 580.068 82.8969 578.45 83.0296L578.441 83.0302ZM575.462 68.4412L576.036 68.3972C577.662 68.2639 578.814 68.7944 578.916 70.1273C578.997 71.1783 578.603 72.7899 575.887 73.6429C575.321 73.7894 574.871 73.5317 574.815 72.9172L574.538 69.5348C574.491 68.911 574.839 68.5062 575.463 68.4497L575.462 68.4412Z" fill="black"/>
<path d="M584.741 41.6354C586.377 41.6388 589.998 41.2322 591.577 41.0424C593.105 40.865 596.05 40.5274 597.607 40.1588C598.402 39.9689 598.952 39.2821 598.813 38.4763C597.19 26.8687 594.205 15.1164 592.309 8.25697C592.084 7.5609 591.461 7.19606 590.741 7.23413C588.818 7.31286 585.911 7.59594 584.246 7.7838C582.718 7.96115 579.815 8.28694 578.267 8.66345C577.186 8.93548 576.502 9.68406 576.358 10.95C576.183 12.3644 575.981 15.2334 575.645 17.8204C575.389 20.2122 574.765 21.9618 573.912 22.0617C572.956 22.1694 571.969 20.6464 570.979 17.9633C570.264 15.9297 569.353 13.0429 568.973 11.7914C568.545 10.5866 567.708 10.0061 566.545 10.0008C564.951 9.9941 562.142 10.3127 560.571 10.4933C558.949 10.6779 555.716 11.0976 554.071 11.4301C553.409 11.5582 552.835 12.0492 552.823 12.7807C552.524 19.8944 552.23 32.0099 553.272 43.6877C553.369 44.4968 554.057 45.0457 554.875 45.0431C556.469 45.0498 559.465 44.7083 560.994 44.5395C562.565 44.3588 566.134 43.9476 567.733 43.5757C568.434 43.4016 568.992 42.8088 568.787 41.8189C568.259 39.3239 567.419 35.3315 567.119 32.7675C566.673 29.3036 567.073 27.3305 567.841 27.2458C568.891 27.1223 569.674 28.9101 570.604 31.5978C571.098 32.9866 571.556 34.4728 572.008 35.8649C572.841 38.0787 573.99 39.2454 575.749 39.0503C577.559 38.8428 578.537 37.6762 578.821 35.0846C578.851 33.6813 578.995 32.4154 579.112 30.9109C579.487 27.831 579.767 25.635 580.86 25.5082C581.67 25.4117 582.454 27.1995 582.849 30.6759C583.157 33.3339 583.296 37.5089 583.258 40.1591C583.275 41.1719 583.955 41.6183 584.731 41.6275L584.741 41.6354Z" fill="black"/>
<path d="M597.925 91.807C600.831 92.1943 608.16 92.5261 611.653 92.7052C616.487 92.9533 625.051 93.4397 628.223 93.3683C628.994 93.3092 629.647 92.7262 629.644 91.9099C629.736 88.2758 629.713 83.1464 629.477 79.4C629.4 78.0565 627.839 77.6863 627.117 78.6097C624.245 82.1476 621.596 83.2103 617.29 82.9904C613.701 82.8015 612.078 81.6196 612.18 79.8069L612.204 79.3323C612.291 77.6582 613.576 77.0096 616.642 77.1183C618.705 77.175 620.112 77.6772 622.554 78.8565C623.196 79.366 624.041 78.9316 624.084 78.0259L624.317 74.4411C624.363 73.5781 623.674 73.0207 622.856 73.0233C620.456 72.9495 618.966 73.0637 616.908 72.9551C613.796 72.7985 612.584 72.1608 612.637 71.0566L612.648 70.8666C612.695 69.909 613.571 68.8535 616.251 68.9917C619.407 69.1536 622.474 70.1733 625.494 72.1506C626.509 72.9236 627.586 72.5918 627.641 71.4015C627.74 68.5318 627.881 64.086 627.833 61.2104C627.826 60.446 627.331 59.8393 626.515 59.7558C623.988 59.4855 618.528 59.1564 613.652 58.903C610.297 58.7306 603.647 58.3896 601.05 58.4427C600.328 58.4551 599.686 58.8481 599.604 59.5678C598.478 66.4527 597.301 78.8507 596.57 90.209C596.529 91.0201 597.165 91.6761 597.925 91.8155L597.925 91.807Z" fill="black"/>
<path d="M618.226 7.49C607.209 7.01989 599.516 13.506 598.953 25.2639C598.393 37.1592 605.635 41.1934 616.604 41.7016C627.616 42.2151 635.164 38.8859 635.733 26.99C636.287 15.2327 629.247 8.00282 618.226 7.49ZM620.579 25.7026C620.418 28.9981 619.165 30.2804 617.15 30.1856C615.136 30.0908 614.005 28.6993 614.165 25.4037C614.332 21.9616 615.623 18.9145 617.688 19.0054C619.746 19.1055 620.746 22.2604 620.588 25.7019L620.579 25.7026Z" fill="black"/>
<path d="M657.549 13.9631C657.864 13.2428 657.356 12.2332 656.471 12.0346C654.653 11.5809 653.341 11.312 651.019 10.9142C647.808 10.3697 645.4 9.96139 643.146 9.77324C642.421 9.7515 641.743 10.0183 641.573 10.7189C639.651 17.4329 637.036 29.606 634.984 40.8078C634.847 41.609 635.402 42.3314 636.143 42.5582C638.989 43.2854 646.228 44.4664 649.675 45.0444C654.448 45.8558 662.899 47.3392 666.056 47.63C666.826 47.6655 667.544 47.1549 667.638 46.3484C668.154 42.7505 668.942 35.8485 669.242 32.1126C669.351 30.6259 667.933 30.0986 666.989 31.0477C663.71 34.3246 660.964 35.025 656.706 34.303C653.163 33.6981 651.869 31.8806 652.303 29.3377C653.146 24.3825 654.839 20.7374 657.55 13.9717L657.549 13.9631Z" fill="black"/>
<path d="M631.111 93.6283C632.727 94.1489 635.415 94.6132 636.978 94.8887C638.628 95.1747 641.604 95.6856 643.349 95.7495C644.266 95.8081 645.063 95.4118 645.102 94.3516C645.215 92.5724 645.279 89.1381 645.613 87.2045C645.942 85.3227 646.542 83.8242 647.485 83.984C650.697 84.537 651.064 97.5214 659.617 98.997C663.537 99.6762 664.991 96.6253 665.431 93.8326C667.15 83.1119 668.071 73.8963 668.609 67.4347C668.639 66.7104 668.099 66.1845 667.359 65.9577C665.968 65.5744 663.424 65.0819 662.098 64.8571C660.824 64.6368 658.396 64.3158 657.059 64.1777C656.093 64.1573 655.293 64.846 655.378 65.7334C655.525 69.1085 654.967 75.0817 653.501 74.8332C651.284 74.4531 649.302 67.3597 648.403 64.7298C647.474 63.0649 646.876 62.5693 645.39 62.1676C644.553 61.9309 643.018 61.5588 642.119 61.4042C641.359 61.2734 638.998 60.913 638.215 60.9215C637.431 60.93 636.798 61.2106 636.628 61.9112C634.752 68.7763 631.898 80.4178 629.89 91.9685C629.759 92.7264 630.319 93.4054 631.112 93.6368L631.111 93.6283Z" fill="black"/>
<g clip-path="url(#clip0_7390_52352)">
<path d="M288.737 303.268C295.328 304.313 304.283 307.013 311.535 313.799C315.308 311.59 319.857 309.735 324.42 308.668C324.42 308.668 335.331 306.208 340.107 313.881C344.75 321.324 336.976 328.5 326.504 338.084C334.409 368.382 310.028 398.118 277.65 396.043C270.264 395.762 263.651 393.481 257.549 389.949C258.942 388.645 261.606 386.295 263.105 385.211C269.539 388.124 274.881 389.382 280.264 389.344C292.48 389.264 304.179 383.401 311.5 374.395C318.82 365.389 324.92 352.988 317.641 333.401C323.894 330.604 329.999 324.842 332.183 320.665C333.085 319.372 332.037 317.088 329.927 316.917C312.181 315.118 292.645 343.091 281.792 354.893C275.775 361.611 269.681 368.256 263.315 374.644C255.358 382.805 244.896 389.381 233.468 391.092C218.684 391.961 214.633 379.244 223.86 368.744C225.996 366.192 231.711 362.172 235.22 360.182C234.452 360.427 226.193 313.457 272.695 303.752C277.979 302.649 283.398 302.431 288.723 303.269L288.737 303.268ZM251.693 365.721C248.498 360.071 246.776 354.13 247.04 347.571C251.104 348.502 253.573 347.289 254.086 344.377C254.478 341.614 252.478 339.512 248.891 339.211C250.401 332.792 257.404 324.024 262.884 321.54C263.005 323.976 264.272 325.611 266.627 325.906C268.577 326.245 269.994 325.415 271.054 323.806C272.328 321.63 271.709 319.654 269.873 317.807C271.468 317.367 272.927 316.94 274.279 316.797C282.89 315.479 288.137 315.578 300.115 322.177L305.215 318.426C289.986 306.293 266.124 306.91 251.462 323.427C237.042 339.647 239.794 361.808 250.369 373.889C251.379 373.102 253.931 370.982 254.942 370.195C253.745 368.838 252.646 367.362 251.693 365.721ZM238.235 369.048C234.755 371.049 231.751 373.68 229.36 376.926C228.513 377.968 227.829 379.265 228.527 380.688C229.224 382.111 230.74 382.223 232.121 382.349L232.391 382.321C236.583 381.878 240.39 380.387 243.871 378.386C242.028 375.179 240.199 372.106 238.235 369.048ZM266.798 332.692C264.364 332.949 262.549 335.182 262.94 337.59C263.196 340.012 265.423 341.682 267.722 341.439C270.156 341.182 271.971 338.949 271.715 336.527C271.459 334.104 269.232 332.435 266.798 332.692ZM291.55 328.851C289.337 327.316 287.024 327.425 285.451 329.36C283.999 331.146 284.227 333.299 285.75 334.771C287.607 332.942 289.572 330.829 291.55 328.851ZM268.753 355.073C266.689 353.659 264.255 353.916 262.817 355.837C261.501 357.609 261.757 360.031 263.401 361.354C265.23 359.256 266.924 357.172 268.753 355.073Z" fill="black"/>
<path d="M300.934 344.542C304.151 341.345 307.247 338.296 310.585 334.95C314.726 343.084 315.43 351.038 312.497 359.512C310.825 357.92 308.982 357.299 306.904 358.335C305.217 359.193 304.413 360.639 304.462 362.403C304.597 364.974 306.362 366.148 308.611 366.727C301.059 379.363 281.637 385.77 269.254 379.867C277.809 370.254 286.514 360.762 295.19 351C296.158 352.395 297.652 353.597 299.666 353.249C300.734 353 301.894 352.333 302.62 351.44C304.719 349.313 304.044 346.799 300.934 344.542ZM286.864 367.311C284.43 367.568 282.615 369.801 282.871 372.223C283.127 374.645 285.504 376.435 287.803 376.192C290.102 375.949 291.916 373.716 291.675 371.429C291.54 368.858 289.298 367.053 286.864 367.311Z" fill="black"/>
</g>
<defs>
<clipPath id="clip0_7390_52352">
<rect width="128.467" height="93.2476" fill="white" transform="translate(211.455 309.98) rotate(-6.03308)"/>
</clipPath>
</defs>
</svg>
