<svg width="740" height="703" viewBox="0 0 740 703" fill="none" xmlns="http://www.w3.org/2000/svg">
<g clip-path="url(#clip0_8599_49498)">
<path d="M250.44 183.915C250.829 185.04 251.478 186.057 252.336 186.883C255.913 190.96 259.706 195.072 263.462 199.185C264.325 200.39 265.596 201.242 267.04 201.581C267.483 201.666 267.942 201.616 268.357 201.437C268.771 201.259 269.123 200.96 269.365 200.579C270.009 199.399 269.079 198.005 268.221 197.003C264.214 192.247 260.207 187.455 255.77 183.057C255.356 182.418 254.781 181.9 254.103 181.555C253.424 181.21 252.667 181.049 251.906 181.09C251.358 181.3 250.906 181.703 250.636 182.224C250.366 182.745 250.296 183.346 250.44 183.915Z" fill="white"/>
<path d="M329.148 174.76C330.021 175.954 331.288 176.802 332.725 177.156C333.168 177.231 333.623 177.177 334.036 176.999C334.449 176.822 334.801 176.528 335.051 176.155C335.695 174.939 334.8 173.58 333.906 172.579C329.899 167.787 325.856 163.031 321.456 158.632C318.951 156.129 317.556 156.665 317.556 156.665C317.021 156.895 316.591 157.315 316.346 157.843C316.102 158.37 316.061 158.97 316.232 159.526C316.612 160.645 317.264 161.653 318.128 162.458L329.148 174.76Z" fill="white"/>
<path d="M394.936 161.529C395.796 162.556 396.962 163.283 398.263 163.603C398.659 163.683 399.069 163.652 399.448 163.513C399.827 163.374 400.16 163.133 400.41 162.816C400.982 161.815 400.088 160.635 399.265 159.741C395.401 155.664 391.537 151.552 387.316 147.797C386.897 147.246 386.356 146.801 385.735 146.497C385.114 146.192 384.43 146.038 383.738 146.045C383.501 146.121 383.282 146.244 383.093 146.407C382.904 146.57 382.75 146.769 382.64 146.993C382.53 147.216 382.466 147.459 382.452 147.708C382.438 147.957 382.474 148.206 382.558 148.44C382.926 149.416 383.543 150.279 384.346 150.944L394.936 161.529Z" fill="white"/>
<path d="M274.406 207.409C274.406 206.831 274.177 206.276 273.767 205.867C273.358 205.458 272.803 205.228 272.224 205.228C271.645 205.228 271.09 205.458 270.681 205.867C270.272 206.276 270.042 206.831 270.042 207.409C270.042 207.988 270.272 208.543 270.681 208.952C271.09 209.361 271.645 209.591 272.224 209.591C272.803 209.591 273.358 209.361 273.767 208.952C274.177 208.543 274.406 207.988 274.406 207.409Z" fill="white"/>
<path d="M341.167 181.59C341.174 181.164 341.054 180.746 340.823 180.388C340.591 180.031 340.258 179.75 339.867 179.582C339.475 179.415 339.042 179.367 338.624 179.446C338.205 179.524 337.819 179.726 337.515 180.024C337.212 180.323 337.004 180.705 336.918 181.122C336.832 181.54 336.872 181.973 337.034 182.367C337.195 182.761 337.47 183.098 337.824 183.336C338.178 183.573 338.594 183.7 339.02 183.7C339.583 183.7 340.124 183.479 340.526 183.084C340.927 182.689 341.157 182.153 341.167 181.59Z" fill="white"/>
<path d="M404.273 167.215C404.273 166.854 404.166 166.502 403.966 166.202C403.765 165.902 403.481 165.668 403.147 165.53C402.814 165.392 402.447 165.356 402.093 165.426C401.739 165.496 401.414 165.67 401.159 165.925C400.904 166.18 400.73 166.505 400.659 166.859C400.589 167.213 400.625 167.579 400.763 167.913C400.901 168.246 401.135 168.531 401.435 168.731C401.735 168.932 402.088 169.039 402.449 169.039C402.933 169.039 403.397 168.846 403.739 168.504C404.081 168.162 404.273 167.699 404.273 167.215Z" fill="white"/>
<path d="M281.492 537.583L285.928 533.792C286.186 533.557 286.396 533.274 286.545 532.958C286.694 532.642 286.779 532.3 286.795 531.952C286.812 531.603 286.76 531.254 286.642 530.926C286.523 530.597 286.342 530.295 286.107 530.037C285.872 529.779 285.588 529.569 285.272 529.421C284.957 529.272 284.614 529.187 284.266 529.17C283.917 529.154 283.568 529.206 283.239 529.324C282.911 529.442 282.609 529.624 282.35 529.858L277.914 533.649C277.431 534.105 277.137 534.726 277.091 535.388C277.044 536.051 277.249 536.706 277.664 537.225C277.909 537.506 278.211 537.731 278.551 537.885C278.89 538.039 279.258 538.119 279.631 538.119C280.298 538.193 280.967 538 281.492 537.583Z" fill="white"/>
<path d="M293.369 171.899C280.561 164.747 266.572 163.889 255.947 169.968C254.507 170.794 253.132 171.726 251.832 172.758C265.821 179.23 276.876 193.32 282.994 207.481C283.96 209.769 285.462 214.061 285.927 215.312C285.957 215.413 285.952 215.52 285.913 215.618C285.874 215.715 285.804 215.797 285.713 215.849L267.037 227.185C266.751 227.435 267.288 227.936 267.288 227.936L289.111 231.118C289.203 231.123 289.29 231.157 289.361 231.215C289.432 231.272 289.482 231.351 289.505 231.44C289.934 233.586 292.653 246.209 293.691 253.468C294.515 256.876 294.515 260.431 293.691 263.839C292.993 265.738 291.867 267.451 290.399 268.845C304.996 260.656 322.849 255.542 340.486 259.476C339.371 250.846 337.565 242.32 335.084 233.979C325.568 202.868 311.972 182.556 293.369 171.899Z" fill="white"/>
<path d="M294.942 528.5C295.354 528.513 295.762 528.414 296.122 528.214C299.02 526.55 302.158 525.344 305.424 524.638C306.776 524.369 308.173 524.426 309.499 524.806C310.824 525.185 312.04 525.875 313.045 526.819C313.496 527.312 314.122 527.61 314.79 527.65C315.458 527.69 316.115 527.469 316.622 527.034C317.129 526.592 317.44 525.968 317.487 525.298C317.534 524.627 317.313 523.966 316.873 523.458C315.303 521.843 313.357 520.644 311.208 519.97C309.059 519.296 306.776 519.167 304.566 519.596C300.783 520.377 297.157 521.779 293.833 523.744C293.299 523.997 292.868 524.427 292.614 524.96C292.359 525.493 292.296 526.098 292.434 526.672C292.572 527.247 292.904 527.756 293.374 528.115C293.844 528.474 294.422 528.66 295.013 528.643L294.942 528.5Z" fill="white"/>
<path d="M248.219 688.419C257.027 693.548 266.888 696.606 277.055 697.359C282.78 697.362 288.439 696.143 293.655 693.783C297.666 692.05 301.147 689.286 303.744 685.773C297.816 688.665 291.307 690.169 284.711 690.172C280.761 690.152 276.826 689.696 272.976 688.813C249.936 683.627 229.579 663.995 219.812 637.604C210.761 613.001 211.083 586.109 212.657 563.044C213.013 553.193 214.55 543.42 217.236 533.935C220.784 522.858 227.058 512.849 235.482 504.827C237.588 502.82 239.836 500.967 242.208 499.284C225.393 503.146 212.442 518.952 205.895 544.163C193.195 593.333 208.722 663.208 248.219 688.419Z" fill="white"/>
<path d="M98.171 131.562C84.2897 127.664 62.3946 135.96 53.522 153.018C53.3752 153.247 53.2075 153.463 53.0211 153.661C50.492 157.794 48.8135 162.39 48.084 167.179C48.3787 175.091 51.6495 182.6 57.2428 188.206C72.5193 203.297 88.6902 213.238 105.863 223.68L111.48 227.256C113.053 221.179 116.633 215.811 121.64 212.022C129.69 205.753 139.188 201.608 149.26 199.971L150.405 199.721L145.825 196.681C145.455 196.902 145.039 197.036 144.609 197.074C144.079 197.315 143.565 197.59 143.07 197.897C139.831 199.931 136.15 201.158 132.338 201.473C130.658 201.492 128.999 201.098 127.507 200.324C126.016 199.551 124.738 198.422 123.787 197.038C120.209 192.175 121.748 188.063 123.572 183.664C123.823 183.021 124.109 182.341 124.359 181.626L123.215 180.732C120.052 178.539 117.434 175.652 115.558 172.292C110.228 167.036 110.013 159.097 110.585 151.265C111.516 138.07 104.36 133.278 98.171 131.562ZM75.7034 149.764C76.1877 149.308 76.8275 149.055 77.4922 149.055C78.157 149.055 78.7967 149.308 79.281 149.764C79.7445 150.244 80.0035 150.885 80.0035 151.552C80.0035 152.219 79.7445 152.86 79.281 153.34C77.6714 155.069 76.6779 157.282 76.4547 159.633C76.4012 160.282 76.1075 160.887 75.631 161.33C75.1545 161.773 74.5296 162.023 73.8788 162.029H73.6641C72.9742 161.966 72.3368 161.634 71.8886 161.106C71.4405 160.578 71.2174 159.895 71.2671 159.204C71.629 155.645 73.1938 152.315 75.7034 149.764ZM110.621 206.372C110.382 206.743 110.054 207.049 109.667 207.262C109.279 207.474 108.845 207.586 108.403 207.588C107.923 207.579 107.454 207.443 107.044 207.194C99.1284 202.214 91.6269 196.606 84.6117 190.423C78.494 185.023 72.0184 178.3 70.5516 169.539C70.4378 168.856 70.6 168.156 71.0026 167.593C71.4051 167.029 72.015 166.649 72.6982 166.535C73.0349 166.474 73.3805 166.481 73.7142 166.557C74.0479 166.633 74.3629 166.775 74.6402 166.976C74.9175 167.176 75.1515 167.43 75.3281 167.723C75.5046 168.016 75.6201 168.342 75.6676 168.681C76.884 175.833 82.6082 181.733 88.0463 186.561C94.8501 192.557 102.124 197.998 109.798 202.832C110.369 203.199 110.774 203.774 110.927 204.435C111.081 205.096 110.971 205.791 110.621 206.372Z" fill="white"/>
<path d="M73.0606 127.735C72.8868 127.921 72.6951 128.088 72.4881 128.236C71.7435 128.884 71.0386 129.577 70.3773 130.31C79.4066 125.752 89.7442 124.487 99.6067 126.734C110.769 129.881 116.672 138.964 115.778 151.766C115.563 154.412 113.488 158.918 115.778 159.848C120.464 149.334 136.099 137.712 163.36 124.517C215.916 99.0196 270.225 72.6644 332.332 77.4563L334.443 77.4563C343.128 77.9079 351.826 76.8801 360.167 74.4166C361.683 73.869 363.068 73.0102 364.233 71.8955C365.397 70.7807 366.315 69.4347 366.928 67.944C368.595 63.5916 368.467 58.7559 366.571 54.4982C360.596 39.9081 347.251 30.8965 326.93 27.7854C293.694 22.6359 241.961 33.6143 185.005 57.8597C135.025 79.137 90.0186 107.28 73.0606 127.735ZM145.973 92.4398C133.408 98.9197 121.741 107.01 111.27 116.506C110.809 116.95 110.192 117.194 109.553 117.186C109.025 117.196 108.507 117.044 108.069 116.751C107.631 116.457 107.293 116.036 107.102 115.545C106.911 115.053 106.875 114.515 107 114.003C107.125 113.49 107.404 113.029 107.799 112.68C118.574 102.802 130.603 94.3858 143.576 87.6479C143.88 87.4704 144.218 87.358 144.568 87.318C144.918 87.278 145.272 87.3112 145.609 87.4154C145.945 87.5197 146.256 87.6927 146.522 87.9236C146.788 88.1545 147.003 88.4381 147.154 88.7565C147.342 89.0705 147.461 89.4209 147.503 89.7845C147.545 90.1481 147.509 90.5165 147.397 90.8651C147.285 91.2136 147.1 91.5344 146.855 91.8059C146.609 92.0774 146.309 92.2935 145.973 92.4398ZM157.421 86.5393L153.271 88.6492C152.901 88.8177 152.498 88.9031 152.091 88.8995C151.503 88.9081 150.93 88.7155 150.467 88.3537C150.004 87.9919 149.679 87.4828 149.545 86.9107C149.411 86.3386 149.477 85.738 149.732 85.2086C149.987 84.6793 150.415 84.2529 150.946 84.0004L155.096 81.8905C155.702 81.6563 156.374 81.6564 156.98 81.8908C157.586 82.1252 158.083 82.577 158.374 83.158C158.664 83.739 158.728 84.4074 158.552 85.0327C158.375 85.6579 157.973 86.1952 157.421 86.5393Z" fill="white"/>
<path d="M417.082 385.138C418.191 387.033 419.721 388.648 421.554 389.858C423.604 390.992 425.902 391.606 428.244 391.646C435.668 391.915 442.918 389.359 448.53 384.494C453.989 379.631 458.396 373.705 461.481 367.079C468.729 353.297 472.58 337.984 472.715 322.414C472.947 317.165 471.942 311.935 469.781 307.145C468.693 304.79 467.105 302.701 465.128 301.021C463.151 299.342 460.832 298.112 458.332 297.418C452.756 296.466 447.023 297.531 442.161 300.422C433.846 304.599 426.776 310.888 421.662 318.659C421.276 319.22 420.689 319.611 420.023 319.751C419.357 319.891 418.662 319.769 418.084 319.41C417.515 319.031 417.118 318.444 416.978 317.776C416.837 317.107 416.965 316.41 417.333 315.834C422.932 307.29 430.697 300.38 439.836 295.809C441.763 294.827 443.76 293.99 445.811 293.305C445.41 292.186 444.816 291.146 444.058 290.23C443.672 289.628 443.229 289.065 442.734 288.549C442.038 287.97 441.216 287.561 440.334 287.356C439.452 287.151 438.534 287.155 437.654 287.369C435.629 287.886 433.831 289.055 432.538 290.695C432.096 291.221 431.464 291.551 430.78 291.611C430.095 291.672 429.415 291.458 428.888 291.017C428.362 290.576 428.032 289.944 427.972 289.26C427.911 288.576 428.125 287.896 428.566 287.369C429.816 285.904 431.334 284.69 433.038 283.793C432.127 281.525 431.879 279.045 432.323 276.641C432.556 275.177 432.891 273.731 433.325 272.314C433.575 271.384 433.826 270.455 434.004 269.525C434.463 267.266 434.655 264.962 434.577 262.659H433.396C428.917 262.618 424.459 262.03 420.123 260.907C416.962 260.046 413.904 258.847 411 257.331C410.221 265.561 407.189 273.418 402.235 280.038C398.346 284.709 393.463 288.452 387.942 290.995C382.421 293.538 376.401 294.816 370.322 294.736C366.85 294.727 363.392 294.307 360.019 293.484C354.831 292.047 349.971 289.618 345.708 286.332C344.857 293.304 342.408 299.985 338.553 305.857C334.127 312.31 327.39 316.816 319.734 318.445L320.593 319.124L335.261 329.852C336.685 326.304 339.429 323.445 342.918 321.878C345.387 320.733 348.086 320.167 350.808 320.223C353.53 320.279 356.203 320.955 358.623 322.2C361.171 323.598 363.31 325.636 364.828 328.114C366.347 330.591 367.192 333.421 367.281 336.325C367.427 338.796 367.064 341.27 366.215 343.595C365.366 345.92 364.048 348.046 362.344 349.842C375.796 359.676 387.817 368.223 396.618 373.98C397 374.054 397.364 374.2 397.691 374.409C398.077 374.683 398.379 375.06 398.562 375.495C398.745 375.931 398.803 376.41 398.729 376.877C398.729 378.164 394.436 407.38 393.899 410.849C393.867 411.305 393.714 411.743 393.456 412.12C393.199 412.498 392.845 412.799 392.432 412.995C385.814 416.07 379.517 419.11 373.399 422.149C375.268 423.562 376.749 425.424 377.706 427.562C378.663 429.7 379.064 432.045 378.873 434.379C378.49 438.312 377.028 442.063 374.648 445.218C372.268 448.373 369.063 450.809 365.385 452.259C363.696 452.856 361.917 453.159 360.126 453.153C356.178 453.182 352.357 451.756 349.393 449.148C346.013 446.301 343.881 442.246 343.454 437.848L332.185 443.927L326.818 446.824C327.498 448.397 329.501 451.437 330.396 453.439C337.551 463.738 335.834 474.538 334.439 483.55C331.934 493.705 332.042 504.29 340.556 509.047C355.189 515.376 392.218 460.377 392.218 460.377C393.827 457.373 395.366 454.548 396.546 451.973C396.688 451.646 396.895 451.352 397.156 451.11C397.416 450.867 397.724 450.681 398.061 450.563C398.397 450.446 398.754 450.399 399.109 450.426C399.464 450.453 399.81 450.554 400.124 450.722C400.451 450.864 400.745 451.071 400.989 451.33C401.232 451.59 401.42 451.897 401.541 452.232C401.661 452.567 401.712 452.923 401.69 453.278C401.668 453.633 401.573 453.98 401.412 454.298C400.16 456.98 398.586 459.912 396.94 462.952C392.54 471.069 387.102 481.189 389.32 486.339C389.746 487.343 390.381 488.245 391.183 488.985C391.985 489.725 392.935 490.285 393.971 490.63C393.971 490.63 404.704 494.85 409.748 464.704C411.143 456.837 410.964 448.612 415.043 442.39C412.002 437.562 409.533 428.908 413.469 414.103C413.644 413.439 414.076 412.872 414.67 412.527C415.264 412.182 415.971 412.086 416.635 412.262C417.299 412.437 417.866 412.869 418.212 413.463C418.558 414.056 418.653 414.763 418.477 415.426C415.293 427.335 416.295 436.883 421.196 441.817C422.191 442.869 423.416 443.676 424.774 444.178C426.563 444.178 428.352 444.392 429.819 444.499H430.212C431.984 443.987 433.585 443.005 434.844 441.658C436.104 440.311 436.976 438.649 437.367 436.847C437.944 434.35 438.22 431.792 438.19 429.23C436.974 414.568 436.044 407.345 437.582 401.623C437.727 399.631 438.05 397.656 438.548 395.723C435.577 396.622 432.493 397.092 429.389 397.117H427.815C424.608 397.054 421.47 396.181 418.692 394.578C416.212 392.97 414.132 390.818 412.61 388.284C407.747 380.998 405.747 372.173 406.993 363.503C407.041 363.166 407.156 362.843 407.329 362.551C407.503 362.259 407.733 362.004 408.006 361.801C408.278 361.599 408.589 361.452 408.918 361.369C409.248 361.287 409.591 361.271 409.927 361.321C410.609 361.427 411.222 361.799 411.631 362.355C412.04 362.911 412.212 363.607 412.109 364.289C411.225 371.609 412.989 379.004 417.082 385.138ZM426.67 341.653C427.767 336.268 429.762 331.106 432.573 326.384C436.55 317.96 443.643 311.409 452.358 308.11C453.003 307.878 453.714 307.911 454.335 308.203C454.955 308.495 455.435 309.021 455.667 309.666C455.9 310.311 455.866 311.021 455.574 311.642C455.282 312.262 454.756 312.741 454.111 312.974C451.351 313.965 448.767 315.39 446.455 317.193C453.932 318.981 457.188 332.463 454.147 347.518C451.106 362.573 442.126 373.623 434.541 372.014C426.956 370.404 423.415 356.78 426.67 341.653ZM398.872 311.114C394.319 315.198 390.966 320.447 389.176 326.295C387.385 332.142 387.225 338.367 388.711 344.299C388.886 344.968 388.788 345.678 388.439 346.275C388.091 346.872 387.519 347.306 386.851 347.482C386.626 347.519 386.396 347.519 386.171 347.482C385.599 347.484 385.041 347.296 384.588 346.946C384.134 346.596 383.81 346.105 383.667 345.551C381.957 338.681 382.152 331.475 384.232 324.708C386.312 317.941 390.199 311.869 395.473 307.145C395.99 306.694 396.665 306.467 397.35 306.514C398.034 306.561 398.672 306.878 399.122 307.395C399.573 307.912 399.8 308.586 399.753 309.271C399.706 309.955 399.389 310.592 398.872 311.042V311.114Z" fill="white"/>
<path d="M261.17 503.182C268.644 500.697 276.687 500.485 284.281 502.574C281.384 497.424 274.3 496.244 268.79 495.815L266.715 495.815C256.166 496.398 246.231 500.961 238.917 508.581C231.138 516.009 225.345 525.267 222.066 535.509C219.485 544.595 218.019 553.961 217.702 563.402C216.199 585.931 215.841 612.143 224.606 635.816C233.729 660.562 252.655 678.943 274.014 683.77C279.211 685.154 284.633 685.483 289.96 684.74C295.287 683.997 300.412 682.196 305.032 679.443L306.499 678.371C306.663 678.021 306.902 677.712 307.199 677.465C307.496 677.218 307.843 677.039 308.216 676.94C312.829 672.624 316.243 667.185 318.124 661.155C320.005 655.126 320.29 648.711 318.949 642.539C317.22 635.65 314.033 629.211 309.601 623.659C305.17 618.107 299.598 613.57 293.261 610.355C280.561 603.525 266.751 602.523 256.269 607.601C255.955 607.765 255.612 607.863 255.26 607.89C254.908 607.917 254.554 607.872 254.219 607.759C253.885 607.645 253.577 607.465 253.314 607.229C253.052 606.993 252.84 606.706 252.691 606.385C252.527 606.072 252.429 605.73 252.402 605.377C252.375 605.025 252.42 604.672 252.534 604.337C252.647 604.003 252.828 603.695 253.064 603.433C253.3 603.17 253.587 602.958 253.907 602.809C265.892 597.016 281.455 598.053 295.587 605.67C298.841 607.337 301.942 609.287 304.853 611.499C306.43 611.133 307.899 610.402 309.142 609.365C310.385 608.328 311.367 607.013 312.008 605.527C313.129 603.182 313.711 600.616 313.711 598.018C313.711 595.419 313.129 592.853 312.008 590.508C307.465 581.818 297.376 577.169 289.076 574.094C272.671 567.526 255.02 564.657 237.379 565.69C234.303 566.289 231.114 565.796 228.363 564.296C226.008 562.504 224.453 559.858 224.034 556.929C220.778 542.017 229.901 528.071 235.626 521.169C241.956 512.556 250.925 506.241 261.17 503.182Z" fill="white"/>
<path d="M214.121 255.292C211.688 253.039 209.935 251.716 207.896 249.928L206.93 249.105C204.805 261.14 199.906 272.514 192.619 282.327C190.635 285.235 188.223 287.828 185.464 290.015C188.004 292.161 190.508 294.378 192.869 296.666L238.019 280.324C235.944 277.928 233.333 274.96 231.258 272.707C228.363 274.325 225.126 275.232 221.813 275.353C220.138 275.364 218.486 274.97 216.997 274.204C215.508 273.438 214.226 272.323 213.262 270.955C209.684 266.091 211.259 261.943 213.047 257.581C213.477 256.937 213.799 256.15 214.121 255.292ZM208.289 286.081C208.042 286.369 207.734 286.598 207.387 286.752C207.041 286.907 206.665 286.983 206.286 286.975C205.68 286.988 205.092 286.771 204.64 286.367L198.379 281.075C197.87 280.638 197.552 280.02 197.492 279.352C197.431 278.685 197.634 278.02 198.057 277.499C198.504 277.006 199.12 276.698 199.783 276.639C200.446 276.579 201.107 276.771 201.635 277.177L207.967 282.505C208.468 282.947 208.781 283.564 208.841 284.229C208.901 284.894 208.703 285.557 208.289 286.081Z" fill="white"/>
<path d="M197.31 140.001C194.666 141.666 191.598 142.535 188.474 142.504C185.446 142.509 182.467 141.747 179.816 140.287C177.264 138.905 175.087 136.923 173.472 134.512C171.858 132.101 170.855 129.333 170.55 126.448L165.541 128.88C128.62 146.76 120.069 158.525 119.389 165.248C118.888 170.075 122.323 173.294 126.008 176.19C126.664 173.355 126.94 170.445 126.831 167.536C126.821 166.85 127.082 166.188 127.558 165.692C128.033 165.197 128.684 164.909 129.371 164.89C129.71 164.876 130.049 164.93 130.368 165.049C130.686 165.167 130.977 165.349 131.224 165.582C131.471 165.816 131.668 166.096 131.805 166.407C131.941 166.719 132.014 167.054 132.018 167.393C132.221 173.619 130.997 179.808 128.441 185.488C126.652 189.887 126.151 191.388 127.976 193.749C130.874 197.539 134.809 196.431 140.64 193.212L140.962 193.033L139.531 192.175C138.969 191.79 138.579 191.201 138.445 190.533C138.312 189.865 138.445 189.171 138.816 188.599C139.003 188.317 139.245 188.075 139.526 187.886C139.808 187.697 140.124 187.566 140.456 187.499C140.789 187.433 141.131 187.433 141.463 187.499C141.796 187.565 142.112 187.696 142.394 187.884C145.148 189.672 149.549 192.962 153.126 195.608L156.883 198.362H157.098C166.251 196.777 175.665 197.767 184.288 201.223C198.026 207.409 207.507 222.965 207.507 239.593C207.507 240.63 207.507 241.703 207.507 242.74L211.084 245.78C212.587 246.996 213.982 248.14 215.664 249.642C216.208 246.996 216.436 244.295 216.343 241.596C216.324 240.909 216.576 240.243 217.045 239.741C217.514 239.239 218.161 238.942 218.848 238.914C219.192 238.899 219.536 238.954 219.858 239.075C220.181 239.196 220.476 239.38 220.726 239.616C220.976 239.853 221.176 240.138 221.315 240.453C221.453 240.768 221.527 241.108 221.531 241.453C221.727 247.608 220.503 253.726 217.953 259.333C216.165 263.731 215.699 265.233 217.524 267.593C220.422 271.42 224.357 270.275 230.153 267.057C232.228 265.913 233.48 265.233 234.947 265.734C235.594 265.961 236.125 266.434 236.426 267.049C236.727 267.665 236.774 268.374 236.557 269.024C236.443 269.346 236.26 269.639 236.02 269.882C238.453 272.6 241.351 275.89 243.176 278.107L248.721 276.069C230.26 253.289 223.141 222.428 230.833 196.538C233.992 183.558 242.057 172.306 253.336 165.141C265.572 157.988 281.492 158.847 295.91 167.072C297.627 168.037 299.488 169.146 300.955 170.29C302.226 167.023 303.807 163.886 305.677 160.921C316.911 142.826 331.579 135.889 349.36 140.394C357.203 142.518 364.515 146.258 370.826 151.373C371.184 149.776 371.813 148.252 372.686 146.867C377.803 138.606 387.319 127.163 400.699 125.983C400.699 125.983 400.699 125.661 400.95 125.483C403.74 120.154 405.708 114.039 399.161 109.426C391.076 103.74 382.811 105.85 373.152 116.256C372.666 116.711 372.026 116.964 371.361 116.963C370.696 116.962 370.057 116.707 369.573 116.251C369.089 115.795 368.798 115.171 368.758 114.508C368.718 113.845 368.933 113.191 369.359 112.68L371.542 110.427C366.914 107.374 362.777 103.636 359.27 99.3418C357.523 102.195 355.055 104.538 352.115 106.136C348.985 108.001 345.419 109.012 341.776 109.069C339.671 109.073 337.584 108.685 335.622 107.924C332.797 106.718 330.342 104.786 328.507 102.324C326.672 99.8612 325.523 96.957 325.175 93.9063C324.608 89.8649 325.442 85.7512 327.537 82.2485C282.423 79.8168 241.136 94.1566 201.496 112.037C203.074 113.927 204.244 116.122 204.933 118.485C205.623 120.848 205.817 123.327 205.503 125.769C205.293 128.603 204.447 131.354 203.029 133.818C201.611 136.281 199.656 138.395 197.31 140.001ZM190.584 179.123C189.55 181.918 187.823 184.405 185.564 186.351C183.304 188.296 180.588 189.636 177.669 190.244C176.492 190.489 175.294 190.621 174.091 190.638C169.392 190.636 164.844 188.977 161.248 185.953C159.837 184.844 158.626 183.502 157.67 181.984C156.663 180.26 156.018 178.35 155.774 176.369C155.424 173.041 156.104 169.686 157.723 166.757C159.341 163.828 161.821 161.466 164.825 159.991C167.658 158.538 170.8 157.79 173.984 157.81C178.542 157.806 182.95 159.444 186.399 162.423C188.636 164.504 190.223 167.189 190.966 170.153C191.709 173.117 191.576 176.233 190.584 179.123ZM291.116 142.326C294.322 131.747 301.451 122.792 311.044 117.293C316.011 114.575 321.614 113.231 327.274 113.4C332.935 113.57 338.447 115.247 343.242 118.259C343.742 118.675 344.068 119.261 344.158 119.905C344.247 120.548 344.094 121.201 343.727 121.738C343.361 122.274 342.807 122.654 342.175 122.804C341.543 122.955 340.878 122.864 340.309 122.55C336.322 120.077 331.747 118.71 327.056 118.59C322.365 118.471 317.727 119.603 313.62 121.871C305.177 126.757 298.929 134.692 296.161 144.042C295.984 144.558 295.652 145.007 295.21 145.327C294.768 145.647 294.238 145.823 293.692 145.83C293.42 145.881 293.141 145.881 292.869 145.83C292.504 145.746 292.162 145.583 291.868 145.351C291.573 145.12 291.333 144.826 291.166 144.491C290.998 144.156 290.907 143.788 290.898 143.414C290.89 143.039 290.964 142.668 291.116 142.326ZM247.326 109.069C247.661 107.38 248.278 105.76 249.15 104.277C250.215 102.563 251.6 101.069 253.229 99.8782C255.94 97.8602 259.145 96.6093 262.506 96.2569C265.868 95.9045 269.263 96.4637 272.334 97.8757C275.055 99.1853 277.377 101.198 279.06 103.705C280.269 105.473 281.096 107.474 281.491 109.579C281.885 111.684 281.837 113.849 281.349 115.935C280.421 118.852 278.759 121.482 276.523 123.573C274.287 125.664 271.551 127.147 268.577 127.878C267.01 128.276 265.4 128.48 263.783 128.486C259.453 128.556 255.25 127.028 251.977 124.195C249.958 122.292 248.468 119.897 247.652 117.246C246.837 114.594 246.725 111.777 247.326 109.069ZM217.596 165.141C220.83 154.566 227.967 145.617 237.559 140.108C242.523 137.384 248.124 136.034 253.785 136.198C259.445 136.361 264.959 138.032 269.758 141.038C270.314 141.428 270.697 142.02 270.824 142.688C270.951 143.356 270.812 144.047 270.437 144.614C270.047 145.171 269.455 145.553 268.787 145.68C268.118 145.807 267.427 145.668 266.86 145.294C262.87 142.825 258.294 141.465 253.603 141.352C248.912 141.239 244.275 142.377 240.171 144.65C231.729 149.529 225.471 157.447 222.676 166.785C222.513 167.31 222.185 167.768 221.74 168.091C221.295 168.413 220.757 168.583 220.207 168.574C219.946 168.608 219.681 168.608 219.42 168.574C219.067 168.481 218.737 168.315 218.45 168.089C218.164 167.862 217.928 167.578 217.756 167.256C217.585 166.934 217.482 166.579 217.455 166.215C217.427 165.851 217.475 165.485 217.596 165.141Z" fill="white"/>
<path d="M388.89 409.097C389.606 404.305 391.752 389.143 392.861 381.24C373.363 390.931 294.19 430.159 253.333 447.861V448.075L247.967 478.829C276.258 467.492 303.75 454.255 330.252 439.207C348.069 429.48 366.888 419.324 388.89 409.097Z" fill="white"/>
<path d="M411.716 251.859C414.75 253.527 417.984 254.8 421.34 255.65C439.729 260.192 451.678 255.364 456.794 241.346C459.389 233.099 460.134 224.381 458.977 215.813L458.44 214.168C458.203 214.206 457.962 214.206 457.724 214.168C435.758 213.632 423.415 218.924 410.714 234.444C411.47 240.181 411.71 245.973 411.43 251.752L411.716 251.859Z" fill="white"/>
<path d="M415.012 134.244C404.279 127.771 394.476 129.702 385.783 138.785C397.768 143.899 406.39 154.949 411.47 166.928C412.257 168.788 413.509 172.364 413.867 173.365C413.885 173.452 413.877 173.541 413.845 173.624C413.814 173.706 413.759 173.778 413.688 173.83L398.304 183.164C398.09 183.342 398.519 183.772 398.519 183.772L416.407 186.382C416.486 186.4 416.558 186.44 416.615 186.497C416.671 186.554 416.711 186.625 416.729 186.704C417.087 188.42 419.305 198.862 420.307 204.834C421.023 207.626 421.023 210.553 420.307 213.345C418.769 217.744 414.261 220.175 410.468 222.857L409.145 223.823L409.896 227.721C422.704 213.417 436.227 208.41 458.087 208.982H457.944C454.302 187.7 445.725 167.566 432.9 150.193C427.6 144.177 421.594 138.822 415.012 134.244Z" fill="white"/>
<path d="M463.023 246.066C462.822 246.725 462.889 247.437 463.211 248.047C463.533 248.656 464.082 249.114 464.74 249.32C468.559 250.466 472.524 251.056 476.511 251.072C479.952 251.062 483.378 250.617 486.707 249.749C487.371 249.574 487.939 249.142 488.284 248.548C488.63 247.954 488.725 247.248 488.55 246.584C488.374 245.92 487.942 245.353 487.348 245.008C486.754 244.663 486.048 244.567 485.383 244.743C479.086 246.352 472.469 246.216 466.243 244.349C465.919 244.25 465.578 244.216 465.241 244.248C464.903 244.281 464.576 244.38 464.277 244.539C463.977 244.699 463.713 244.916 463.498 245.178C463.283 245.44 463.121 245.741 463.023 246.066Z" fill="white"/>
<path d="M347.031 281.039C351.247 284.447 356.118 286.954 361.342 288.406C367.97 290.129 374.95 289.949 381.481 287.887C388.011 285.825 393.828 281.965 398.263 276.748C405.418 267.665 407.422 254.255 406.205 239.808C384.561 234.372 359.911 244.707 345.779 256.901C345.598 257.054 345.392 257.175 345.171 257.259C346.325 265.01 346.684 272.858 346.244 280.682C346.527 280.748 346.795 280.87 347.031 281.039Z" fill="white"/>
<path d="M256.84 279.18C269.755 287.905 289.54 302.567 311.006 318.516C311.31 318.908 311.72 319.206 312.187 319.374L317.482 323.308C344.779 343.619 372.828 364.611 390.716 376.519C371.468 385.924 291.973 425.474 251.188 443.14C229.328 425.832 207.039 408.775 185.466 392.397C160.208 373.05 133.913 353.06 108.869 332.819C128.046 325.667 210.331 295.951 256.84 279.18ZM266.724 317.169C261.398 316.33 255.979 316.55 250.694 317.652C204.193 327.357 212.453 374.326 213.22 374.082C209.711 376.072 203.996 380.092 201.859 382.645C192.633 393.145 196.685 405.861 211.469 404.992C222.896 403.281 233.358 396.705 241.315 388.544C247.681 382.156 253.774 375.511 259.791 368.793C270.644 356.992 290.181 329.018 307.927 330.816C310.037 330.988 311.085 333.273 310.183 334.565C307.999 338.742 301.894 344.504 295.641 347.301C302.92 366.888 296.82 379.289 289.5 388.295C282.18 397.301 270.479 403.164 258.264 403.244C252.881 403.282 247.539 402.024 241.106 399.111C239.607 400.195 236.943 402.545 235.549 403.849C241.651 407.381 248.264 409.663 255.65 409.943C288.028 412.019 312.408 382.282 304.503 351.984C314.975 342.4 322.75 335.224 318.108 327.781C313.339 320.121 302.456 322.559 302.42 322.567C297.857 323.635 293.308 325.49 289.535 327.698C282.282 320.913 273.328 318.213 266.736 317.168L266.724 317.169ZM216.234 382.948C218.198 386.006 220.027 389.079 221.87 392.286C218.39 394.287 214.582 395.778 210.391 396.221L210.12 396.249C208.74 396.123 207.224 396.011 206.526 394.588C205.829 393.165 206.513 391.868 207.359 390.826C209.751 387.58 212.754 384.949 216.234 382.948ZM288.585 348.85C285.247 352.196 282.151 355.245 278.934 358.442C282.043 360.699 282.72 363.213 280.62 365.34C279.894 366.233 278.734 366.9 277.666 367.148C275.652 367.497 274.157 366.295 273.19 364.9C264.514 374.662 255.809 384.154 247.254 393.767C259.637 399.67 279.058 393.263 286.61 380.627C284.362 380.048 282.597 378.874 282.462 376.303C282.412 374.539 283.217 373.093 284.903 372.234C286.982 371.198 288.825 371.82 290.497 373.412C293.43 364.938 292.726 356.984 288.585 348.85ZM264.864 381.211C267.298 380.954 269.54 382.757 269.675 385.328C269.917 387.616 268.102 389.849 265.803 390.092C263.504 390.335 261.127 388.545 260.871 386.123C260.615 383.701 262.43 381.468 264.864 381.211ZM229.462 337.327C244.124 320.81 267.986 320.193 283.215 332.326L278.115 336.076C266.138 329.477 260.89 329.379 252.278 330.697C250.926 330.84 249.467 331.266 247.873 331.707C249.709 333.554 250.328 335.53 249.054 337.706C247.993 339.315 246.577 340.145 244.627 339.807C242.272 339.511 241.005 337.876 240.884 335.44C235.404 337.924 228.401 346.693 226.892 353.111C230.478 353.413 232.478 355.515 232.086 358.277C231.573 361.189 229.104 362.402 225.04 361.471C224.776 368.03 226.499 373.972 229.693 379.621C230.646 381.262 231.745 382.738 232.942 384.095C231.931 384.882 229.379 387.002 228.368 387.789C217.794 375.708 215.042 353.547 229.462 337.327ZM240.817 369.736C242.255 367.816 244.689 367.559 246.753 368.974C244.924 371.072 243.23 373.156 241.401 375.254C239.757 373.931 239.501 371.508 240.817 369.736ZM244.798 346.592C247.232 346.335 249.459 348.005 249.715 350.427C249.971 352.849 248.156 355.082 245.722 355.339C243.423 355.582 241.196 353.912 240.94 351.49C240.548 349.082 242.364 346.849 244.798 346.592ZM263.451 343.26C265.024 341.325 267.337 341.216 269.55 342.751C267.571 344.729 265.607 346.842 263.749 348.671C262.227 347.199 261.999 345.046 263.451 343.26Z" fill="white"/>
<path d="M75.8495 264.232C75.6818 263.93 75.4559 263.664 75.1847 263.45C74.9136 263.236 74.6026 263.077 74.2699 262.984C73.9371 262.891 73.5891 262.865 73.2462 262.907C72.9032 262.949 72.572 263.059 72.2718 263.23C55.198 272.407 40.4987 285.434 29.3401 301.279C28.9452 301.831 28.7838 302.515 28.891 303.185C28.9982 303.854 29.3652 304.455 29.9125 304.855C30.3545 305.19 30.8964 305.366 31.4509 305.356C31.8609 305.348 32.2638 305.247 32.6293 305.061C32.9948 304.875 33.3136 304.609 33.5617 304.283C44.2459 289.068 58.3334 276.554 74.7046 267.736C75.3207 267.422 75.7871 266.877 76.0017 266.22C76.2164 265.563 76.1616 264.848 75.8495 264.232Z" fill="white"/>
<path d="M82.2893 264.804C82.8146 264.804 83.3271 264.642 83.7562 264.339C86.7787 262.285 90.167 260.828 93.7378 260.048C94.1029 260.012 94.4563 259.899 94.7749 259.717C95.0934 259.535 95.3701 259.288 95.5867 258.992C95.8034 258.696 95.9552 258.357 96.0323 257.999C96.1095 257.64 96.1101 257.27 96.0343 256.911C95.9584 256.552 95.8078 256.213 95.5922 255.916C95.3765 255.619 95.1008 255.371 94.7828 255.188C94.4649 255.005 94.1119 254.891 93.747 254.854C93.382 254.816 93.0131 254.856 92.6645 254.97C88.4215 255.887 84.3987 257.624 80.8225 260.084C80.2657 260.474 79.8832 261.066 79.7562 261.734C79.6293 262.402 79.768 263.092 80.1428 263.66C80.383 264.008 80.7033 264.294 81.0768 264.493C81.4503 264.692 81.8661 264.799 82.2893 264.804Z" fill="white"/>
<path d="M94.0907 283.542C106.092 277.943 118.882 274.216 132.014 272.493L127.792 267.844C115.407 269.812 103.362 273.52 92.0157 278.858C73.9486 287.333 61.1764 298.526 54.0569 312.079C45.1843 328.672 46.508 349.091 57.241 361.678C64.3962 370.189 75.1292 374.838 85.397 378.557C93.2678 380.801 101.436 381.826 109.618 381.597C111.12 381.597 112.623 381.597 114.126 381.597C112.015 379.88 109.904 378.021 107.757 376.483C100.796 376.568 93.8576 375.665 87.1501 373.801C77.4904 370.225 67.6519 366.005 61.1764 358.424C51.8387 347.41 50.7297 329.387 58.5289 314.618C65.0045 302.138 77.3115 291.445 94.0907 283.542Z" fill="white"/>
<path d="M524.021 571.876C523.681 571.916 523.353 572.023 523.056 572.19C522.758 572.358 522.497 572.583 522.287 572.853C522.077 573.122 521.923 573.431 521.834 573.761C521.744 574.09 521.722 574.434 521.767 574.773C521.802 575.111 521.905 575.438 522.069 575.735C522.233 576.032 522.455 576.294 522.722 576.504C522.988 576.714 523.295 576.868 523.622 576.958C523.95 577.048 524.292 577.071 524.629 577.026C524.629 577.026 532.535 576.168 535.827 580.387C536.069 580.697 536.379 580.948 536.732 581.121C537.085 581.295 537.473 581.386 537.866 581.389C538.446 581.386 539.01 581.198 539.476 580.852C539.993 580.425 540.327 579.816 540.406 579.15C540.486 578.484 540.307 577.813 539.905 577.276C534.825 570.66 524.45 571.841 524.021 571.876Z" fill="white"/>
<path d="M524.627 556.786C524.288 556.826 523.96 556.933 523.662 557.101C523.365 557.268 523.103 557.493 522.893 557.763C522.684 558.033 522.53 558.341 522.44 558.671C522.351 559 522.328 559.344 522.373 559.683C522.409 560.021 522.511 560.348 522.675 560.645C522.839 560.942 523.061 561.204 523.328 561.414C523.595 561.624 523.901 561.778 524.229 561.868C524.557 561.958 524.899 561.981 525.235 561.936C525.414 561.936 542.48 560.041 549.957 569.624C550.201 569.941 550.516 570.196 550.876 570.37C551.236 570.544 551.632 570.631 552.032 570.626C552.601 570.623 553.154 570.435 553.606 570.089C554.137 569.673 554.483 569.065 554.57 568.396C554.657 567.728 554.478 567.051 554.071 566.513C544.769 554.534 525.45 556.715 524.627 556.786Z" fill="white"/>
<path d="M0.00200658 335.895C-0.103066 347.61 2.46136 359.194 7.50088 369.77C12.5404 380.347 19.9227 389.637 29.0883 396.938C44.1859 409.132 69.6587 421.219 111.374 421.219C126.973 421.084 142.532 419.624 157.883 416.856L152.481 412.494C86.7599 422.971 50.9119 408.095 32.1293 392.897C23.5552 386.048 16.6564 377.335 11.9573 367.42C7.25813 357.506 4.88241 346.651 5.01071 335.681C2.93568 270.454 86.581 241.381 109.12 237.197L110.73 236.804L111.839 236.554C111.589 235.445 111.267 234.301 111.052 233.192C111.052 233.192 111.052 232.87 111.052 232.727C110.659 232.701 110.278 232.578 109.943 232.37L109.12 231.869L108.226 232.084C85.9715 237.143 64.8194 246.194 45.7959 258.797C14.9208 279.394 -0.892405 306.107 0.00200658 335.895Z" fill="white"/>
<path d="M530.242 541.302C529.875 541.307 529.513 541.39 529.18 541.544C528.847 541.699 528.551 541.922 528.31 542.199C528.069 542.475 527.889 542.8 527.782 543.151C527.675 543.502 527.643 543.872 527.689 544.236C527.734 544.6 527.856 544.95 528.046 545.264C528.236 545.578 528.491 545.848 528.792 546.057C529.094 546.266 529.436 546.41 529.797 546.477C530.158 546.545 530.529 546.536 530.886 546.451C531.065 546.451 550.778 544.198 559.507 555.391C559.748 555.703 560.057 555.955 560.411 556.129C560.764 556.302 561.153 556.393 561.547 556.393C562.116 556.39 562.668 556.202 563.121 555.856C563.651 555.44 563.997 554.832 564.084 554.163C564.171 553.494 563.992 552.818 563.586 552.28C553.068 538.727 531.208 541.194 530.242 541.302Z" fill="white"/>
<path d="M663.546 143.041C663.319 142.995 663.101 142.91 662.902 142.79C658.824 141.106 654.244 141.106 650.166 142.79C659.682 151.087 662.902 165.856 659.754 186.775C657.903 198.146 654.907 209.3 650.81 220.068C656.534 220.354 667.052 217.672 673.456 197.074C680.039 175.976 677.177 148.476 663.546 143.041Z" fill="white"/>
<path d="M492.573 242.132C491.889 242.184 491.255 242.505 490.809 243.025C490.363 243.545 490.141 244.221 490.194 244.903C490.246 245.586 490.567 246.22 491.087 246.666C491.607 247.112 492.283 247.334 492.966 247.282H493.396C496.172 246.876 498.757 245.627 500.801 243.705C501.144 243.503 501.436 243.224 501.654 242.892C501.873 242.559 502.013 242.181 502.062 241.786C502.112 241.391 502.071 240.99 501.942 240.613C501.813 240.237 501.6 239.894 501.318 239.613C501.036 239.331 500.694 239.118 500.317 238.989C499.941 238.86 499.539 238.819 499.144 238.869C498.749 238.919 498.371 239.058 498.038 239.277C497.705 239.495 497.426 239.787 497.224 240.129C495.9 241.233 494.284 241.928 492.573 242.132Z" fill="white"/>
<path d="M464.416 218.674C464.416 220.462 464.595 222.25 464.595 224.002C469.167 224.997 473.833 225.501 478.512 225.504C486.211 225.596 493.839 224.022 500.872 220.891C500.872 218.995 500.622 217.1 500.586 215.241C489.304 220.583 476.503 221.798 464.416 218.674Z" fill="white"/>
<path d="M555.68 356.994C557.535 357.836 559.553 358.258 561.59 358.23C563.627 358.203 565.633 357.726 567.464 356.835C569.296 355.943 570.908 354.659 572.186 353.073C573.464 351.487 574.376 349.639 574.857 347.661C577.755 338.935 583.658 312.795 585.59 307.18C586.77 303.604 588.487 306.25 589.167 308.038C592.745 315.977 593.067 324.059 608.021 329.495C613.281 331.39 619.327 329.494 624.944 324.738C599.149 316.835 605.553 291.66 587.056 288.764C586.177 288.598 585.268 288.697 584.445 289.05C583.707 289.434 583.116 290.049 582.763 290.802C580.438 294.879 573.676 328.243 569.776 339.758C568.304 337.46 566.334 335.521 564.012 334.085C561.69 332.649 559.075 331.753 556.36 331.461C553.899 331.152 551.401 331.565 549.171 332.651C546.941 333.737 545.076 335.448 543.803 337.576C539.402 347.053 549.455 354.705 555.68 356.994Z" fill="white"/>
<path d="M620.006 360.069C621.403 360.701 622.923 361.014 624.455 360.985C625.988 360.955 627.494 360.584 628.866 359.899C630.237 359.214 631.437 358.232 632.381 357.024C633.324 355.816 633.985 354.413 634.317 352.917C636.499 346.444 640.9 326.919 642.295 322.7C643.154 320.089 644.442 322.02 645.05 323.343C647.769 329.279 647.948 335.323 659.11 339.257C661.343 339.843 663.692 339.821 665.913 339.192C668.134 338.563 670.146 337.35 671.739 335.681C652.491 329.816 657.429 311.006 643.476 308.86C642.833 308.677 642.151 308.677 641.508 308.86C640.962 309.159 640.524 309.622 640.256 310.184C638.539 313.223 633.494 338.112 630.596 346.73C629.49 345.011 628.013 343.559 626.274 342.483C624.534 341.406 622.576 340.732 620.543 340.508C618.706 340.31 616.85 340.647 615.2 341.478C613.55 342.309 612.175 343.599 611.241 345.193C607.842 352.631 615.355 358.388 620.006 360.069Z" fill="white"/>
<path d="M418.983 573.843C419.171 574.314 419.498 574.716 419.919 574.997C420.341 575.278 420.838 575.424 421.345 575.417C421.687 575.485 422.04 575.485 422.382 575.417C422.715 575.282 423.016 575.08 423.268 574.823C423.519 574.566 423.714 574.261 423.842 573.925C423.969 573.589 424.026 573.231 424.009 572.872C423.992 572.514 423.901 572.163 423.742 571.841L420.772 564.903C420.642 564.567 420.442 564.262 420.186 564.008C419.93 563.754 419.623 563.556 419.286 563.428C418.949 563.3 418.588 563.244 418.228 563.264C417.868 563.284 417.516 563.38 417.195 563.544C416.561 563.813 416.059 564.32 415.798 564.956C415.537 565.592 415.537 566.306 415.799 566.942L418.983 573.843Z" fill="white"/>
<path d="M453.467 702.544C455.948 702.509 458.423 702.294 460.873 701.901C463.413 701.471 465.846 700.971 468.028 700.47L471.141 699.827C496.184 694.892 508.742 672.363 523.41 646.186C526.165 641.359 528.956 636.388 531.925 631.346C534.429 627.126 538.579 621.583 543.409 615.146C560.582 592.188 586.556 557.501 579.186 526.032C575.608 509.797 563.301 496.208 542.944 485.659L542.121 485.301C536.666 482.077 530.582 480.061 524.281 479.388C517.979 478.716 511.607 479.403 505.594 481.403C495.016 484.204 485.271 489.516 477.187 496.887C473.703 499.962 470.484 503.323 467.563 506.936C463.586 511.615 460.164 516.739 457.367 522.206C454.909 526.803 452.816 531.585 451.106 536.51C451.136 536.735 451.136 536.964 451.106 537.189C451.106 537.189 443.45 557.608 455.542 570.875C455.982 571.367 456.226 572.004 456.226 572.663C456.226 573.323 455.982 573.96 455.542 574.451C455.056 574.876 454.435 575.117 453.789 575.131C453.425 575.13 453.065 575.054 452.733 574.906C452.4 574.758 452.102 574.542 451.857 574.273C441.912 563.33 443.021 549.24 444.702 541.194C436.652 540.801 431.751 551.422 430.392 560.255C428.138 555.57 424.882 549.026 420.374 540.122C451.321 509.976 446.706 488.484 438.262 449.648L437.439 446.072C436.471 446.933 435.387 447.655 434.22 448.218L434.864 450.471C442.877 487.769 447.314 508.545 418.585 537.01L409.319 518.522L406.099 512.264C407.838 511.064 409.382 509.605 410.679 507.937C415.859 500.863 418.102 492.06 416.94 483.37C416.746 478.387 416.256 473.419 415.473 468.494C415.473 467.528 415.187 466.313 414.972 464.918L413.111 477.756C414.149 486.016 412.467 499.999 407.96 505.72C406.938 507.009 405.732 508.142 404.382 509.082L397.227 495.028H396.01C395.08 495.029 394.154 494.908 393.256 494.67L406.171 519.989C416.403 539.943 426.885 560.433 429.891 567.407C428.897 575.085 429.933 582.889 432.896 590.043C440.516 607.923 450.319 610.819 446.849 617.471C445.561 619.974 445.024 619.366 438.799 625.91C435.749 629.187 433.062 632.784 430.785 636.638C427.479 641.805 425.529 647.721 425.116 653.84C424.703 659.96 425.841 666.084 428.424 671.648C422.705 670.892 417.258 668.747 412.562 665.399C407.865 662.051 404.061 657.603 401.484 652.444C397.906 645.006 394.15 629.844 410.858 611.964C411.033 611.786 411.169 611.573 411.255 611.338C411.341 611.104 411.377 610.854 411.358 610.605C411.328 610.364 411.249 610.132 411.126 609.923C411.003 609.714 410.838 609.533 410.643 609.389C408.961 607.923 402.414 593.225 395.474 577.634L387.782 560.469L374.008 530.86C369.643 521.812 365.171 512.98 360.771 504.755C359.932 505.589 359.048 506.377 358.123 507.115C362.345 515.018 366.638 523.529 370.824 532.147C364.879 533.8 358.629 534.033 352.578 532.826C352.077 532.826 351.54 532.826 350.932 532.612C346.178 532.167 341.528 530.959 337.158 529.036C333.61 526.76 330.947 523.341 329.609 519.345C328.22 516.069 326.312 513.038 323.957 510.369C320.874 507.414 316.972 505.457 312.759 504.755C305.281 503.426 297.582 504.18 290.506 506.936C290.373 507.442 290.1 507.901 289.719 508.259C289.39 508.532 289 508.72 288.582 508.808C288.164 508.895 287.732 508.879 287.321 508.76C275.122 505.398 271.83 505.899 262.278 508.259C253.082 510.999 245.039 516.677 239.381 524.423C234.265 530.681 226.072 543.09 228.863 555.892C229.05 557.489 229.813 558.964 231.009 560.04C232.758 560.785 234.695 560.973 236.555 560.576L238.809 560.04C247.815 542.205 261.553 527.187 278.52 516.627C290.899 508.974 302.169 506.149 311.971 508.152C315.495 508.749 318.766 510.365 321.381 512.801C323.455 515.202 325.134 517.918 326.354 520.847C328.572 525.353 330.826 530.001 335.62 532.183C340.368 534.29 345.434 535.595 350.61 536.045H352.184C358.907 537.408 365.864 537.089 372.434 535.115C376.011 543.018 379.875 550.957 383.167 558.574C342.525 577.491 303.135 555.928 302.705 555.713L301.739 555.105L300.165 554.283L299.378 556.214C298.801 557.691 298.604 559.289 298.806 560.862C299.175 562.734 299.788 564.55 300.63 566.262C301.06 567.299 301.489 568.265 301.811 569.266C301.985 570.817 301.738 572.385 301.095 573.808C302.133 574.344 303.135 574.952 304.136 575.56C305.186 573.332 305.524 570.834 305.102 568.408C304.726 567.263 304.284 566.14 303.779 565.046C303.067 563.62 302.55 562.104 302.24 560.541C302.223 560.255 302.223 559.968 302.24 559.682C308.752 562.972 346.245 580.137 384.848 562.186C387.567 568.193 390.143 573.951 392.504 579.279C396.933 590.094 401.949 600.659 407.53 610.927C390.572 629.844 394.615 646.115 398.586 654.197C404.597 666.355 417.798 675.223 429.569 675.402C430.499 686.416 433.683 693.962 439.264 698.396C443.385 701.36 448.398 702.824 453.467 702.544ZM573.64 524.709C573.891 525.567 574.105 526.425 574.32 527.284C580.975 556.428 555.895 589.971 539.295 612.143C534.394 618.687 530.136 624.337 527.489 628.807C524.484 633.885 521.657 638.891 518.938 643.755C504.878 668.787 492.714 690.243 470.139 694.749L466.955 695.428C464.844 695.893 462.555 696.358 460.229 696.751C454.576 697.431 450.605 695.893 448.423 692.21C443.378 683.699 448.029 666.391 455.578 656.056C459.228 650.661 463.244 645.524 467.599 640.679C471.177 636.674 474.754 632.526 477.759 628.092C487.67 614.217 493.43 597.946 499.011 582.211C501.336 575.631 503.733 568.837 506.416 562.329C514.144 543.59 528.24 519.881 551.638 513.373C562.657 510.262 569.526 513.766 573.64 524.709ZM436.187 683.591C436.205 683.485 436.205 683.376 436.187 683.27C434.291 673.736 436.205 663.839 441.518 655.698C445.274 649.657 449.497 643.918 454.147 638.534C456.043 636.209 458.011 633.813 459.907 631.382C469.625 618.837 477.493 604.964 483.269 590.186C485.523 584.5 487.455 578.6 489.315 572.914C491.39 566.548 493.573 559.968 496.113 553.71C505.236 531.539 519.618 514.374 536.612 505.613C540.155 503.549 544.12 502.312 548.209 501.996C552.298 501.681 556.406 502.294 560.224 503.789C561.585 505.052 562.875 506.389 564.088 507.794C559.463 506.703 554.628 506.888 550.099 508.331C524.662 515.483 509.636 540.515 501.479 560.326C498.76 566.942 496.328 573.808 493.966 580.459C488.528 595.836 482.876 611.749 473.395 625.052C470.354 629.272 466.883 633.348 463.52 637.282C459.03 642.267 454.893 647.561 451.142 653.124C442.77 664.853 437.654 684.092 443.987 694.82L444.237 695.213C443.619 694.854 443.022 694.46 442.448 694.033C439.337 691.279 437.151 687.633 436.187 683.591Z" fill="white"/>
<path d="M399.125 517.701C398.979 517.393 398.774 517.117 398.522 516.889C398.269 516.66 397.975 516.484 397.654 516.369C397.333 516.255 396.993 516.204 396.653 516.221C396.313 516.238 395.98 516.321 395.672 516.467C395.364 516.613 395.088 516.817 394.86 517.069C394.631 517.322 394.455 517.616 394.34 517.937C394.225 518.257 394.175 518.597 394.192 518.937C394.209 519.277 394.292 519.61 394.438 519.918L411.074 554.891C411.284 555.34 411.618 555.719 412.036 555.985C412.454 556.251 412.939 556.393 413.435 556.393C413.819 556.396 414.199 556.31 414.544 556.143C414.868 555.998 415.159 555.789 415.398 555.527C415.637 555.265 415.819 554.956 415.933 554.62C416.048 554.285 416.091 553.929 416.062 553.576C416.032 553.222 415.929 552.879 415.761 552.567L399.125 517.701Z" fill="white"/>
<path d="M334.229 302.961C340.525 293.806 341.957 279.717 340.704 264.948C316.233 258.511 290.617 272.1 275.448 285.832C286.61 293.913 299.955 303.712 313.944 314.225C317.953 313.987 321.858 312.851 325.369 310.902C328.881 308.952 331.908 306.238 334.229 302.961Z" fill="white"/>
<path d="M247.971 447.253C226.147 429.945 203.93 412.887 182.464 396.366C157.421 377.306 131.876 357.602 106.976 337.648L105.652 344.8L104.185 366.685C121.143 380.381 138.387 394.256 155.703 408.167C184.324 431.304 214.162 455.156 242.676 478.436L247.971 447.253Z" fill="white"/>
<path d="M658.644 136.497C656.739 134.154 654.28 132.323 651.489 131.169C647.138 129.586 642.352 129.688 638.073 131.455C638.114 133.665 637.611 135.851 636.606 137.82C639.591 137.924 642.534 138.553 645.299 139.68C649.28 137.188 653.967 136.07 658.644 136.497Z" fill="white"/>
<path d="M182.458 206.121C177.48 203.979 172.1 202.93 166.681 203.046C161.164 203.133 155.671 203.804 150.295 205.049C141.098 206.488 132.398 210.173 124.966 215.777C120.386 219.782 115.163 225.861 116.451 232.083C119.036 244.379 124.688 255.821 132.882 265.349C141.075 274.877 151.545 282.18 163.318 286.582C170.223 289.085 175.589 289.371 179.668 287.547C183.194 285.595 186.152 282.761 188.254 279.323C197.735 266.055 202.565 252.395 202.565 239.986C202.135 225.003 194.086 211.45 182.458 206.121Z" fill="white"/>
<path d="M356.298 207.409C356.728 209.447 359.232 221.713 360.234 228.651C360.97 231.957 360.897 235.392 360.019 238.663C359.405 240.299 358.468 241.795 357.264 243.062C371.575 235.552 389.105 231.046 405.491 234.515C402.543 215.056 396.364 196.225 387.209 178.801C378.158 161.851 363.168 148.977 348.106 145.186C343.432 143.253 338.28 142.793 333.338 143.866C328.396 144.94 323.899 147.496 320.45 151.194C334.296 157.166 344.278 170.04 350.109 184.093C351.039 186.275 352.47 190.459 352.864 191.639C352.922 191.709 352.954 191.798 352.954 191.889C352.954 191.98 352.922 192.069 352.864 192.139L334.976 203.118C334.725 203.368 335.226 203.833 335.226 203.833L356.048 206.873C356.146 206.919 356.224 206.998 356.27 207.096C356.315 207.194 356.326 207.304 356.298 207.409Z" fill="white"/>
<path d="M513.608 253.897C512.893 253.075 512.177 252.216 511.497 251.287C493.335 259.867 472.637 261.421 453.396 255.649C451.76 257.089 449.929 258.293 447.958 259.225C458.855 263.114 470.425 264.766 481.975 264.084C493.525 263.402 504.819 260.4 515.182 255.256C514.503 254.791 514.037 254.29 513.608 253.897Z" fill="white"/>
<path d="M549.638 252.86C544.537 245.335 541.446 236.632 540.658 227.578C540.591 226.895 540.799 226.214 541.235 225.684C541.671 225.154 542.3 224.819 542.983 224.753C543.666 224.686 544.348 224.894 544.878 225.33C545.408 225.766 545.743 226.394 545.81 227.077C546.495 235.673 549.513 243.92 554.539 250.929C555.029 251.111 555.444 251.451 555.72 251.895C555.915 252.147 556.05 252.44 556.113 252.753C557.512 254.265 559.072 255.62 560.764 256.794C569.458 262.873 581.514 263.946 596.541 260.012C628.739 251.644 639.472 234.158 644.517 221.606V221.32C649.176 210.005 652.594 198.218 654.713 186.167C657.826 165.426 654.391 151.587 644.481 145.043C640.409 143.101 635.835 142.464 631.387 143.219H631.208L630.492 143.398C619.402 146.795 619.366 152.231 620.94 177.37C621.334 183.95 621.799 191.353 622.121 200.293C622.14 200.979 621.888 201.645 621.419 202.148C620.951 202.65 620.303 202.947 619.616 202.975C619.275 202.989 618.934 202.935 618.614 202.817C618.294 202.698 618 202.517 617.751 202.284C617.501 202.052 617.3 201.771 617.16 201.46C617.019 201.149 616.942 200.813 616.933 200.471C616.933 199.256 616.933 198.076 616.933 196.895C615.063 198.174 613.478 199.825 612.278 201.745C611.077 203.665 610.287 205.812 609.957 208.053C609.964 213.327 612.046 218.388 615.753 222.142C616.208 222.626 616.461 223.266 616.461 223.93C616.461 224.595 616.208 225.234 615.753 225.718C615.272 226.181 614.631 226.44 613.964 226.44C613.296 226.44 612.655 226.181 612.175 225.718C609.747 223.332 607.827 220.481 606.53 217.334C605.232 214.188 604.585 210.812 604.626 207.409C605.134 203.979 606.42 200.71 608.386 197.853C610.351 194.996 612.945 192.625 615.967 190.923L616.504 190.673C616.253 185.881 616.003 181.554 615.753 177.549C615.753 177.156 615.753 176.762 615.753 176.369C606.844 166.249 575.075 160.456 559.762 166.356C559.445 166.477 559.108 166.533 558.769 166.523C558.429 166.513 558.096 166.436 557.787 166.296C557.477 166.157 557.199 165.957 556.967 165.71C556.735 165.463 556.554 165.172 556.435 164.854C556.188 164.214 556.204 163.502 556.479 162.873C556.753 162.244 557.265 161.748 557.902 161.493C567.848 157.667 584.842 158.131 598.973 161.993C600.041 159.754 600.638 157.32 600.726 154.841C594.999 155.07 589.351 153.439 584.627 150.193C584.115 149.761 583.789 149.149 583.716 148.483C583.642 147.818 583.828 147.149 584.233 146.617C584.442 146.355 584.7 146.138 584.993 145.977C585.286 145.816 585.608 145.714 585.941 145.677C586.273 145.641 586.609 145.67 586.93 145.764C587.251 145.858 587.551 146.014 587.811 146.223C592.249 149.037 597.498 150.295 602.73 149.799C607.727 149.101 612.641 147.903 617.398 146.223C618.652 144.187 620.302 142.422 622.25 141.034C624.198 139.646 626.404 138.662 628.739 138.141L629.634 137.927C630.814 137.069 631.729 135.897 632.274 134.543C632.818 133.189 632.969 131.71 632.711 130.274C629.634 121.155 619.08 117.15 604.447 119.546C574.86 124.302 533.216 154.663 533.288 207.302C533.288 207.994 533.013 208.658 532.523 209.148C532.033 209.637 531.369 209.912 530.676 209.912C529.99 209.903 529.335 209.624 528.852 209.135C528.37 208.646 528.1 207.988 528.1 207.302C528.086 202.516 528.421 197.735 529.102 192.998C521.553 188.599 515.65 188.885 511.5 193.784C500.982 206.193 505.955 237.591 517.367 250.321C525.918 259.619 536.901 260.477 549.638 252.86ZM599.689 236.84C599.528 237.368 599.201 237.831 598.756 238.159C598.312 238.488 597.773 238.664 597.22 238.663H596.433C579.01 233.192 575.182 220.283 575.611 214.239C575.625 213.896 575.707 213.559 575.855 213.249C576.002 212.939 576.211 212.661 576.468 212.434C576.726 212.207 577.027 212.034 577.353 211.926C577.679 211.819 578.024 211.778 578.366 211.807C579.053 211.862 579.69 212.186 580.139 212.709C580.588 213.231 580.813 213.91 580.763 214.597C580.477 219.21 583.661 229.223 598.007 233.728C598.625 233.941 599.139 234.381 599.445 234.959C599.751 235.537 599.825 236.209 599.653 236.84H599.689ZM554.933 196.681C568.313 197.861 579.511 194.178 582.015 191.782C582.527 191.398 583.162 191.215 583.8 191.268C584.437 191.321 585.033 191.606 585.474 192.069C585.916 192.532 586.171 193.141 586.193 193.78C586.215 194.419 586.002 195.044 585.593 195.537C582.015 199.113 571.748 202.081 560.156 202.081C558.26 202.081 556.364 202.081 554.432 201.83C553.749 201.769 553.118 201.438 552.678 200.912C552.239 200.385 552.027 199.706 552.088 199.023C552.15 198.34 552.481 197.71 553.007 197.271C553.534 196.831 554.214 196.619 554.897 196.681H554.933Z" fill="white"/>
<path d="M605.768 154.806C605.738 157.878 605.068 160.911 603.8 163.71C607.887 165.038 611.774 166.915 615.356 169.288C614.868 163.713 614.988 158.102 615.713 152.553C612.453 153.526 609.13 154.279 605.768 154.806Z" fill="white"/>
<path d="M424.385 511.549C424.622 511.584 424.863 511.584 425.101 511.549C425.667 511.547 426.218 511.362 426.67 511.02C427.121 510.678 427.45 510.198 427.605 509.654C430.53 499.181 431.116 488.194 429.322 477.47C429.143 476.856 428.745 476.329 428.203 475.989C427.661 475.649 427.013 475.519 426.382 475.625C425.751 475.731 425.181 476.065 424.78 476.563C424.379 477.061 424.175 477.689 424.206 478.328C425.859 488.255 425.309 498.424 422.596 508.116C422.469 508.458 422.416 508.823 422.439 509.187C422.461 509.551 422.56 509.906 422.729 510.229C422.897 510.553 423.132 510.837 423.417 511.064C423.702 511.292 424.032 511.457 424.385 511.549Z" fill="white"/>
<path d="M489.387 348.411C489.351 349.04 489.505 349.665 489.828 350.206C490.151 350.746 490.63 351.177 491.201 351.443C491.772 351.709 492.41 351.797 493.032 351.697C493.654 351.596 494.232 351.312 494.69 350.879C495.148 350.447 495.466 349.888 495.603 349.273C495.74 348.658 495.689 348.016 495.457 347.431C495.225 346.845 494.822 346.343 494.301 345.989C493.78 345.634 493.165 345.444 492.535 345.443C492.133 345.429 491.731 345.495 491.355 345.637C490.978 345.778 490.633 345.994 490.34 346.27C490.047 346.546 489.812 346.877 489.649 347.245C489.485 347.613 489.396 348.009 489.387 348.411Z" fill="white"/>
<path d="M500.874 348.09C500.831 349.046 501.075 349.992 501.575 350.808C502.075 351.624 502.808 352.271 503.68 352.667C504.551 353.063 505.521 353.189 506.465 353.029C507.408 352.869 508.282 352.43 508.974 351.769C509.667 351.109 510.145 350.256 510.348 349.321C510.551 348.386 510.469 347.412 510.114 346.524C509.758 345.635 509.145 344.874 508.352 344.337C507.56 343.801 506.625 343.513 505.668 343.512C505.052 343.498 504.44 343.605 503.866 343.828C503.292 344.05 502.767 344.383 502.322 344.808C501.877 345.233 501.52 345.742 501.271 346.305C501.023 346.868 500.888 347.475 500.874 348.09Z" fill="white"/>
<path d="M516.222 346.874C516.215 348.219 516.608 349.536 517.35 350.658C518.093 351.78 519.152 352.657 520.393 353.176C521.635 353.696 523.003 353.836 524.324 353.578C525.645 353.32 526.859 352.675 527.813 351.726C528.768 350.778 529.419 349.567 529.684 348.248C529.949 346.929 529.816 345.561 529.303 344.318C528.79 343.074 527.918 342.011 526.8 341.263C525.681 340.514 524.366 340.115 523.02 340.115C521.223 340.115 519.499 340.826 518.226 342.092C516.952 343.359 516.231 345.078 516.222 346.874Z" fill="white"/>
<path d="M543.265 40.6595C542.849 40.6897 542.438 40.5575 542.117 40.2907C541.797 40.0239 541.593 39.6434 541.547 39.2291C540.685 28.165 540.505 17.0582 541.011 5.9721C541.034 5.61217 541.182 5.2717 541.431 5.01023C541.679 4.74875 542.012 4.58291 542.37 4.54169C544.123 4.18409 547.594 3.71921 549.526 3.50465C551.65 3.22983 553.788 3.06274 555.93 3.00401C556.516 2.97526 557.094 3.14747 557.569 3.49213C558.044 3.8368 558.387 4.33325 558.541 4.8993C558.935 6.25818 559.937 9.36932 560.688 11.5507C561.761 14.4473 562.834 16.0565 563.836 15.9492C564.838 15.8419 565.446 13.9466 565.697 11.4076C565.947 8.86868 566.269 5.54298 566.448 4.00529C566.474 3.423 566.691 2.8655 567.066 2.41933C567.441 1.97316 567.953 1.6633 568.523 1.53784C570.169 1.14448 573.281 0.786876 574.927 0.608075C576.573 0.429274 579.578 0.000152355 581.724 0.000152355C582.089 -0.0337692 582.454 0.0575752 582.76 0.259112C583.066 0.46065 583.294 0.760336 583.406 1.10872C586.462 11.7734 588.852 22.6178 590.561 33.579C590.624 33.9904 590.525 34.4103 590.285 34.7504C590.045 35.0904 589.682 35.3243 589.273 35.4027C587.592 35.7961 584.408 36.1537 582.798 36.3683C581.188 36.5828 577.217 36.9762 575.464 36.9762C575.253 36.9923 575.041 36.9626 574.843 36.8892C574.644 36.8158 574.464 36.7004 574.315 36.551C574.165 36.4015 574.05 36.2216 573.976 36.0234C573.903 35.8252 573.873 35.6135 573.889 35.4027C573.889 32.5419 573.889 28.0719 573.424 25.2111C572.995 21.6351 572.136 19.561 571.278 19.6682C570.419 19.7755 569.811 22.1715 569.417 25.4614C569.417 27.0706 569.131 28.4295 569.095 29.9672C568.809 32.7207 567.736 33.9723 565.804 34.2226C563.872 34.473 562.691 33.1856 561.797 30.6466C561.296 29.1447 560.795 27.5355 560.259 26.0693C559.257 23.1727 558.434 21.2417 557.289 21.3847C556.144 21.5278 556.037 23.6019 556.538 27.3209C556.86 30.0745 557.754 34.473 558.327 37.0477C558.391 37.2449 558.413 37.4536 558.391 37.66C558.369 37.8664 558.304 38.0658 558.199 38.2449C558.094 38.4241 557.952 38.579 557.783 38.6993C557.614 38.8196 557.421 38.9027 557.218 38.943C555.5 39.3363 551.636 39.8012 550.062 39.98C547.81 40.3246 545.541 40.5514 543.265 40.6595Z" fill="white"/>
<path d="M590.566 19.3822C591.139 6.72309 599.403 -0.250142 611.245 0.2505C623.087 0.751143 630.636 8.58262 630.028 21.206C629.419 33.8293 621.334 37.5841 609.528 37.0477C597.721 36.5113 589.958 32.1843 590.566 19.3822ZM613.785 19.8471C613.785 16.2711 612.855 12.695 610.673 12.695C608.49 12.695 607.095 15.8777 606.88 19.5968C606.666 23.3158 607.954 24.6389 610.1 24.7462C612.247 24.8535 613.606 23.3873 613.785 19.8471Z" fill="white"/>
<path d="M630.49 37.9417C630.089 37.84 629.74 37.5941 629.509 37.251C629.278 36.908 629.181 36.4918 629.238 36.0822C631.42 24.031 634.247 11.05 636.393 3.89801C636.513 3.55924 636.745 3.27162 637.051 3.08296C637.357 2.8943 637.718 2.81596 638.075 2.86097C640.508 3.07553 643.083 3.50465 646.554 4.11257C649.022 4.50594 650.453 4.82778 652.385 5.29266C652.605 5.34135 652.812 5.43549 652.993 5.56901C653.174 5.70253 653.325 5.87248 653.436 6.06789C653.547 6.26331 653.616 6.47985 653.639 6.70356C653.661 6.92727 653.636 7.15319 653.566 7.36675C651.094 12.6516 649.21 18.1919 647.949 23.8879C647.484 26.6415 648.843 28.6083 652.672 29.252C654.659 29.7373 656.743 29.6599 658.689 29.0283C660.635 28.3967 662.367 27.2359 663.691 25.676C663.89 25.445 664.159 25.2855 664.457 25.2219C664.755 25.1584 665.066 25.1942 665.342 25.324C665.618 25.4538 665.844 25.6704 665.985 25.9406C666.126 26.2108 666.175 26.5198 666.123 26.8203C665.802 30.8254 664.943 38.2635 664.406 42.1256C664.353 42.5239 664.148 42.8866 663.836 43.1393C663.523 43.392 663.126 43.5155 662.725 43.4845C659.147 43.1984 650.239 41.5892 645.123 40.731C641.295 39.98 633.531 38.7284 630.49 37.9417Z" fill="white"/>
<path d="M671.277 45.7015C671.059 45.6199 670.861 45.4942 670.695 45.3323C670.529 45.1704 670.398 44.9758 670.31 44.7608C670.223 44.5458 670.181 44.315 670.187 44.083C670.194 43.8511 670.248 43.6229 670.347 43.4129C673.28 36.69 676.858 27.9645 678.217 24.9249C679.183 23.1726 678.217 22.0998 677.216 21.778C674.43 21.8598 671.675 22.3911 669.059 23.3514C668.164 23.8521 667.127 22.9938 667.52 21.5992C667.914 20.2045 670.382 12.3731 671.312 9.9056C671.369 9.71894 671.463 9.54551 671.588 9.39549C671.713 9.24548 671.866 9.12188 672.04 9.03195C672.213 8.94203 672.402 8.88758 672.597 8.8718C672.792 8.85603 672.987 8.87924 673.173 8.94008C677.251 9.83408 684.228 11.7294 688.378 12.8379C692.528 13.9465 699.504 15.8776 703.476 17.1649C703.664 17.1984 703.844 17.2704 704.004 17.3765C704.164 17.4826 704.3 17.6205 704.404 17.7816C704.508 17.9427 704.578 18.1235 704.609 18.3127C704.64 18.5019 704.632 18.6955 704.585 18.8814C704.155 21.4919 702.366 29.6095 701.937 31.0041C701.508 32.3988 700.256 32.5418 699.755 31.6478C698.002 30.1101 695.462 26.7129 693.494 26.1765C692.421 25.8904 691.168 26.391 691.097 28.3936C690.739 31.7193 689.415 41.0527 688.593 48.3478C688.566 48.5774 688.494 48.7993 688.38 49.0003C688.266 49.2013 688.112 49.3772 687.929 49.5175C687.745 49.6577 687.535 49.7594 687.311 49.8165C687.087 49.8736 686.853 49.8849 686.625 49.8497C684.693 49.5279 680.901 48.5266 679.004 47.9902C677.108 47.4538 673.173 46.4883 671.277 45.7015Z" fill="white"/>
<path d="M701.217 36.9406C705.653 25.0682 715.528 20.9558 726.761 25.0682C737.995 29.1807 742.646 38.9074 738.21 50.7798C733.774 62.6522 724.901 63.6892 713.846 59.541C702.791 55.3929 696.852 48.9203 701.217 36.9406ZM723.148 44.486C724.472 40.91 724.472 37.334 722.397 36.6545C720.322 35.9751 717.996 38.5856 716.708 42.0543C715.42 45.5231 716.136 47.168 718.175 47.9547C720.214 48.7415 722.039 47.8117 723.291 44.486H723.148Z" fill="white"/>
<path d="M552.393 93.6915C551.902 93.7114 551.422 93.5398 551.055 93.2129C550.688 92.8859 550.462 92.4293 550.425 91.9392C549.388 79.4231 549.173 66.6568 549.209 59.1114C549.217 58.7561 549.357 58.4164 549.601 58.1586C549.846 57.9008 550.178 57.7433 550.533 57.7167C557.33 56.7869 562.625 56.5009 569.816 55.8929C578.939 55.142 583.876 57.1088 584.127 61.7218C584.449 65.6197 580.549 69.4103 573.394 71.3056C572.464 71.7705 572.464 72.4499 573.573 72.736C582.731 73.5585 587.168 77.8497 587.49 81.8548C588.098 89.2929 576.757 92.0822 567.061 92.869C563.877 93.155 556.471 93.5484 552.393 93.6915ZM569.065 67.6223C569.065 66.1919 567.741 65.6197 565.988 65.7627H565.38C565.235 65.7613 565.092 65.7911 564.96 65.8501C564.828 65.9091 564.711 65.9959 564.616 66.1046C564.52 66.2133 564.45 66.3413 564.409 66.4799C564.368 66.6184 564.357 66.7641 564.378 66.9071L564.7 70.4831C564.7 71.1625 565.237 71.4129 565.845 71.2698C568.85 70.4831 569.172 68.7666 569.065 67.6223ZM568.564 81.4972C568.938 81.518 569.311 81.4548 569.657 81.3123C570.003 81.1698 570.313 80.9516 570.563 80.6737C570.814 80.3958 570.999 80.0654 571.105 79.7066C571.211 79.3479 571.235 78.97 571.176 78.6007C571.176 77.063 569.136 75.3107 566.131 75.0246C565.523 75.0246 565.094 75.3822 565.129 76.0974L565.487 80.4602C565.483 80.6294 565.517 80.7974 565.588 80.9513C565.658 81.1052 565.763 81.2409 565.895 81.3479C566.026 81.4549 566.18 81.5305 566.345 81.5688C566.51 81.607 566.682 81.607 566.847 81.5687L568.564 81.4972Z" fill="white"/>
<path d="M589.49 90.9382C589.083 90.8771 588.712 90.6685 588.448 90.3521C588.184 90.0357 588.046 89.6334 588.059 89.2217C588.811 76.9918 590.063 63.6532 591.279 56.2509C591.347 55.8976 591.54 55.5806 591.823 55.3575C592.105 55.1344 592.458 55.0199 592.818 55.035C595.608 55.035 602.763 55.3569 606.341 55.5357C611.6 55.786 617.468 56.1436 620.187 56.4297C620.576 56.4658 620.936 56.6486 621.195 56.9408C621.454 57.233 621.593 57.6128 621.582 58.0031C621.582 61.1142 621.582 65.8704 621.403 68.9815C621.403 70.2689 620.187 70.6265 619.077 69.7682C616.141 67.7693 612.715 66.6072 609.167 66.4067C606.27 66.2279 605.339 67.3723 605.304 68.4093V68.6239C605.304 69.804 606.556 70.4834 609.883 70.6622C612.101 70.6622 613.711 70.6622 616.287 70.6622C616.493 70.6412 616.701 70.6651 616.896 70.7321C617.092 70.7991 617.271 70.9078 617.42 71.0505C617.57 71.1933 617.687 71.3668 617.763 71.559C617.839 71.7513 617.872 71.9577 617.861 72.1641L617.611 76.0262C617.611 76.9918 616.645 77.4566 615.965 76.9202C614.04 75.7885 611.864 75.1498 609.632 75.0607C606.341 75.0607 604.946 75.6329 604.874 77.4209V77.9573C604.874 79.8883 606.52 81.1757 610.348 81.3545C612.372 81.6222 614.431 81.3226 616.294 80.4891C618.158 79.6556 619.753 78.321 620.902 76.6342C621.086 76.4081 621.335 76.2436 621.615 76.1629C621.896 76.0821 622.194 76.0888 622.47 76.1822C622.746 76.2755 622.988 76.451 623.161 76.6852C623.335 76.9194 623.433 77.201 623.442 77.4924C623.693 81.5333 623.728 87.0404 623.442 90.9382C623.447 91.1402 623.412 91.3411 623.339 91.5295C623.266 91.7178 623.157 91.89 623.017 92.0361C622.878 92.1823 622.711 92.2995 622.526 92.3811C622.341 92.4626 622.142 92.507 621.94 92.5117C618.362 92.5117 609.311 92.0826 604.051 91.8322C600.474 91.6892 592.639 91.3674 589.49 90.9382Z" fill="white"/>
<path d="M642.687 82.4991C641.685 82.3203 641.041 83.9295 640.683 86.0751C640.326 88.2207 640.254 91.8325 640.147 93.7635C640.147 94.8721 639.252 95.3012 638.251 95.2654C636.39 95.2654 633.206 94.6218 631.417 94.3357C629.293 94.0091 627.19 93.5554 625.121 92.9768C624.723 92.8908 624.371 92.6604 624.133 92.3302C623.895 91.9999 623.788 91.5933 623.833 91.1888C625.979 78.78 629.02 66.1567 630.988 59.0046C631.167 58.2537 631.847 57.9676 632.705 57.9318C634.109 58.0402 635.506 58.2192 636.891 58.4682C638.101 58.6633 639.296 58.9381 640.469 59.2907C641.198 59.4321 641.878 59.7601 642.442 60.2427C643.007 60.7254 643.436 61.3461 643.689 62.0442C644.69 64.8693 646.801 72.4862 649.198 72.7723C650.772 73.0584 651.345 66.6215 651.202 63.0098C651.19 62.7766 651.229 62.5436 651.316 62.327C651.403 62.1105 651.537 61.9154 651.707 61.7555C651.877 61.5956 652.08 61.4746 652.302 61.401C652.523 61.3273 652.758 61.3028 652.991 61.329C654.422 61.329 657.033 61.8297 658.393 62.0442C659.752 62.2588 662.543 62.831 664.045 63.2243C664.422 63.2976 664.761 63.497 665.009 63.7897C665.256 64.0823 665.396 64.4506 665.405 64.8335C664.833 71.771 663.831 81.6766 662.006 93.2271C661.541 96.231 659.967 99.4851 655.781 98.7699C646.551 97.0535 646.157 83.0712 642.687 82.4991Z" fill="white"/>
<path d="M662.618 99.6994C662.236 99.5411 661.923 99.2535 661.734 98.8872C661.544 98.5208 661.489 98.0993 661.58 97.6969C665.158 85.9318 669.272 73.2369 672.098 66.2994C672.241 65.9636 672.502 65.6912 672.831 65.5332C673.16 65.3753 673.535 65.3426 673.887 65.4412C676.642 66.0134 683.511 67.9802 686.981 69.0172C692.026 70.4476 697.714 72.0926 700.219 72.9866C700.409 73.0402 700.587 73.1309 700.742 73.2534C700.898 73.376 701.028 73.5281 701.124 73.7008C701.22 73.8736 701.282 74.0638 701.304 74.2603C701.327 74.4569 701.311 74.6559 701.256 74.8461C700.612 77.85 699.396 82.4988 698.609 85.5742C698.251 86.8258 697.07 86.8973 696.176 85.8603C693.758 83.2462 690.681 81.3315 687.267 80.3174C684.513 79.5307 683.332 80.3174 683.046 81.426V81.6406C682.724 82.7849 683.833 83.7147 687.053 84.6444C689.164 85.2523 690.63 85.5027 693.242 86.1463C693.447 86.1749 693.644 86.2467 693.82 86.3568C693.995 86.4669 694.145 86.6129 694.26 86.7852C694.375 86.9575 694.452 87.1522 694.486 87.3564C694.521 87.5606 694.511 87.7698 694.459 87.9701L693.349 91.5461C693.063 92.5117 692.097 92.762 691.525 92.0825C689.898 90.5461 687.921 89.4292 685.765 88.8284C682.581 87.9701 681.078 88.3635 680.613 90.08V90.5806C680.076 92.4759 681.472 94.1566 685.192 95.1579C687.108 95.8572 689.179 96.017 691.179 95.6197C693.179 95.2224 695.031 94.2833 696.534 92.905C696.759 92.7161 697.037 92.603 697.33 92.5818C697.623 92.5607 697.916 92.6325 698.165 92.787C698.415 92.9416 698.61 93.1711 698.722 93.4427C698.833 93.7143 698.856 94.0142 698.787 94.2997C698.144 98.3048 696.963 103.669 695.961 107.459C695.875 107.858 695.635 108.205 695.293 108.427C694.951 108.648 694.535 108.724 694.137 108.639C690.809 107.96 681.973 105.421 676.964 103.991C673.172 102.882 665.444 100.772 662.618 99.6994Z" fill="white"/>
<path d="M700.183 104.742C700.564 103.546 701.294 102.492 702.279 101.714C703.264 100.936 704.459 100.47 705.711 100.376C706.963 100.282 708.215 100.565 709.305 101.187C710.395 101.809 711.274 102.743 711.829 103.869C712.385 104.994 712.591 106.26 712.421 107.503C712.251 108.747 711.714 109.911 710.877 110.846C710.04 111.782 708.943 112.446 707.726 112.754C706.509 113.062 705.228 112.999 704.046 112.573C703.243 112.366 702.494 111.989 701.85 111.466C701.206 110.943 700.683 110.288 700.316 109.544C699.949 108.8 699.747 107.986 699.724 107.157C699.701 106.329 699.858 105.505 700.183 104.742ZM722.686 80.6751C723.036 80.825 723.322 81.0941 723.492 81.4345C723.662 81.775 723.706 82.1648 723.616 82.5346C720.933 88.7826 717.675 94.7683 713.885 100.415C713.705 100.674 713.454 100.876 713.162 100.996C712.87 101.117 712.55 101.151 712.239 101.094C711.202 100.808 709.628 100.307 708.662 99.9498C707.696 99.5922 706.193 99.02 705.084 98.4836C704.831 98.3171 704.626 98.0879 704.488 97.8185C704.35 97.549 704.284 97.2484 704.297 96.946C704.937 90.1956 706.134 83.5096 707.875 76.956C708.012 76.6057 708.275 76.3195 708.613 76.154C708.951 75.9885 709.338 75.9556 709.699 76.062C711.56 76.6342 714.851 77.7785 716.389 78.3149C717.928 78.8513 721.076 79.9956 722.686 80.6751Z" fill="white"/>
</g>
<defs>
<clipPath id="clip0_8599_49498">
<rect width="740" height="702.544" fill="white"/>
</clipPath>
</defs>
</svg>
