<svg width="740" height="715" viewBox="0 0 740 715" fill="none" xmlns="http://www.w3.org/2000/svg">
<g clip-path="url(#clip0_8599_49377)">
<path d="M564.555 192.46C564.691 190.98 566.006 189.911 567.458 190.021C580.417 191.199 591.266 187.608 593.677 185.306C594.745 184.292 596.444 184.319 597.485 185.388C598.498 186.457 598.471 188.157 597.403 189.198C593.868 192.597 583.869 195.64 572.527 195.64C570.719 195.64 568.856 195.558 566.965 195.394C565.486 195.256 564.39 193.941 564.527 192.488L564.555 192.46ZM109.585 194.16C101.668 189.171 94.0788 183.497 87.0654 177.302C81.4491 172.34 75.5315 166.254 74.2987 158.798C74.0521 157.345 72.6549 156.331 71.2029 156.578C69.7509 156.825 68.7647 158.195 68.9838 159.675C70.4906 168.776 77.1753 175.712 83.5038 181.304C90.7365 187.691 98.5444 193.529 106.708 198.683C107.147 198.957 107.64 199.094 108.133 199.094C109.037 199.094 109.886 198.656 110.407 197.833C111.201 196.572 110.818 194.928 109.558 194.133L109.585 194.16ZM201.225 275.382L207.718 280.864L211.17 276.753L204.677 271.27L201.225 275.382ZM72.3536 151.945C72.3536 151.945 72.4906 151.945 72.5728 151.945C73.9426 151.945 75.1206 150.876 75.2576 149.478C75.4494 147.093 76.5178 144.708 78.189 142.954C79.2026 141.885 79.1752 140.185 78.1068 139.144C77.0383 138.13 75.3398 138.157 74.2987 139.226C71.7509 141.885 70.1893 145.366 69.8879 149.012C69.7783 150.492 70.8742 151.781 72.3536 151.918V151.945ZM592.718 207.702C592.827 206.221 591.704 204.933 590.225 204.851C588.745 204.741 587.458 205.865 587.376 207.345C586.965 213.294 590.681 226.177 607.758 231.303C608.032 231.386 608.306 231.44 608.553 231.44C609.704 231.44 610.745 230.7 611.101 229.549C611.539 228.124 610.745 226.616 609.347 226.177C595.485 221.819 592.416 212.197 592.718 207.702ZM506.502 340.404C506.502 343.419 508.967 345.859 512.008 345.859C515.049 345.859 517.515 343.419 517.515 340.404C517.515 337.388 515.049 334.949 512.008 334.949C508.967 334.949 506.502 337.388 506.502 340.404ZM156.378 68.9688L152.077 71.1344C150.762 71.7922 150.214 73.4096 150.871 74.7528C151.337 75.6848 152.296 76.233 153.282 76.233C153.693 76.233 154.104 76.1508 154.488 75.9589L158.789 73.7933C160.104 73.1354 160.652 71.5181 159.994 70.1749C159.337 68.8591 157.72 68.3109 156.378 68.9688ZM144.543 75.0817C131.119 82.017 118.653 90.6792 107.503 100.822C106.407 101.809 106.325 103.508 107.311 104.605C107.832 105.18 108.571 105.482 109.311 105.482C109.969 105.482 110.599 105.262 111.119 104.769C121.913 94.9281 133.995 86.54 147.008 79.824C148.323 79.1387 148.844 77.5214 148.159 76.2056C147.474 74.8898 145.858 74.369 144.543 75.0543V75.0817ZM370.315 65.9535C367.904 66.8306 365.466 67.4885 363 67.9546C366.918 78.9742 374.753 88.5685 384.808 94.5443C394.287 87.3349 403.41 86.7593 412.067 92.8722C419.245 97.9434 420.724 105.235 416.478 114.555C419.683 114.994 423.053 116.008 426.614 117.735C455.819 131.962 480.941 189.829 475.982 225.766C476.037 225.766 476.119 225.766 476.174 225.794C487.544 229.001 503.625 228.809 514.611 218.694C514.803 218.529 515.022 218.42 515.241 218.31C513.214 205.097 515.022 191.583 521.296 184.182C524.501 180.399 531.432 175.328 543.185 181.304C551.897 138.979 588.143 114.528 614.854 110.224C630.579 107.702 642.387 111.978 647.127 121.765C652.99 119.763 658.441 119.763 663.4 121.765C670.496 124.615 674.194 130.673 675.646 133.634C691.372 140.624 694.687 169.873 687.701 192.46C682.03 210.744 671.345 220.256 658.825 218.42C650.031 238.074 633.84 250.739 609.402 257.126C603.238 258.743 597.485 259.538 592.197 259.538C583.65 259.538 576.307 257.427 570.253 253.206C568.5 252 566.938 250.656 565.541 249.204C554.445 256.029 545.624 256.331 538.966 254.11C523.789 266.61 504.173 273.134 484.311 273.134C472.558 273.134 460.75 270.832 449.737 266.172C449.627 266.555 449.518 266.967 449.408 267.35C449.052 268.694 448.696 269.954 448.504 271.215C448.312 272.422 448.175 274.587 449.161 276.15C452.339 275.903 455.49 276.917 457.654 278.973C458.504 279.768 459.134 280.645 459.709 281.468C460.613 282.701 461.873 284.455 462.394 286.539C465.572 286.073 468.585 286.128 471.407 286.813C477.818 288.375 483.599 293.2 486.831 299.724C489.982 306.111 490.365 313.156 490.393 317.871C490.502 333.88 486.283 350.738 478.174 366.61C475.325 372.174 470.722 380.261 463.462 386.346C461.079 388.347 458.504 390.02 455.791 391.363C455.791 391.418 455.764 391.472 455.737 391.5C452.86 397.284 453.435 406.823 454.011 416.061C454.504 423.983 454.942 431.494 453.408 437.305C451.846 443.172 447.71 447.558 442.285 449.01C441.984 449.093 441.682 449.12 441.381 449.202C450.723 473.544 457.435 518.774 429.628 542.541C434.587 552.244 439.025 561.016 442.449 567.924C442.696 559.317 444.806 553.259 448.805 549.86C451.929 547.201 456.093 546.323 460.778 547.173C465.818 527.793 476.914 510.331 490.037 498.709C510.995 480.178 536.419 475.847 558.062 487.086C574.965 495.858 586.417 506.631 592.279 519.24C592.389 519.377 592.526 519.487 592.636 519.624C593.101 520.172 593.293 520.858 593.266 521.516C594.225 523.9 595.019 526.34 595.594 528.862C603.046 561.482 576.198 597.392 558.418 621.159C553.432 627.82 549.13 633.576 546.555 637.935C543.487 643.143 540.583 648.297 537.761 653.313C523.871 678.011 511.68 699.612 489.982 707.041V707.096C489.872 707.096 489.735 707.123 489.626 707.15C487.708 707.781 485.735 708.329 483.653 708.74C480.804 709.288 477.928 709.563 475.078 709.563C473.572 709.563 472.037 709.48 470.558 709.316C462.229 709.782 453.161 709.754 443.682 709.097C404.834 706.438 373.986 694.733 374.781 682.946C375.356 674.475 392.068 668.28 415.82 666.443C406.971 654.3 404.286 635.961 422.532 616.416C420.039 614.717 409.875 591.005 397.465 563.483C356.014 584.646 314.756 564.662 309.687 561.811C309.331 561.592 308.948 561.373 308.591 561.153C308.098 562.36 307.906 563.758 308.098 565.046C308.537 568.006 310.235 570.611 311.139 573.461C311.769 575.435 311.852 577.765 311.057 579.602C315.879 582.727 320.207 586.756 323.002 592.129C326.152 598.187 326.18 606.192 323.084 612.496C321.303 616.142 318.646 618.856 315.44 620.418C323.166 627.984 328.536 637.332 330.618 647.2C333.851 662.578 328.481 678.834 317.468 688.318C316.043 697.063 308.454 703.45 301.496 706.602C295.578 709.288 288.976 710.604 282.127 710.604C281.524 710.604 280.949 710.577 280.346 710.549C280.318 710.549 280.291 710.604 280.236 710.632C269.524 711.015 257.771 710.961 245.525 710.358C195.171 707.945 154.707 697.611 155.227 687.277C155.638 678.697 183.993 672.83 222.321 672.447C200.349 637.606 194.212 586.126 204.431 546.598C213.252 512.415 232.649 493.226 257.799 493.774C263.196 491.773 268.648 490.841 273.908 491.17C286.291 491.91 297.167 500.024 300.811 510.468C307.249 508.467 313.961 507.672 320.564 509.043C324.509 509.838 328.426 511.483 331.248 514.361C337.001 520.227 337.933 530.671 345.439 534.043L345.385 534.262C350.782 535.962 356.288 537.278 361.877 538.155C369.521 539.361 377.794 539.608 384.753 536.044C379.739 525.518 374.644 515.293 369.767 506.357C365.795 510.414 361.274 513.402 355.795 513.402C354.288 513.402 352.699 513.182 351.028 512.689C333.221 507.453 335.084 495.556 336.864 484.043C338.563 473.161 340.316 461.894 328.947 451.423C328.536 451.066 328.344 450.573 328.207 450.08C304.153 463.018 280.291 475.271 250.539 486.51C250.292 486.757 249.991 486.949 249.662 487.058C249.361 487.168 249.032 487.223 248.731 487.223C248.374 487.223 248.018 487.113 247.662 486.976C247.142 486.812 246.676 486.483 246.32 486.044C221.334 465.622 195.445 444.734 169.939 424.202C154.46 426.67 139.611 427.903 125.639 427.903C89.2571 427.903 58.6281 419.652 36.9576 403.671C16.794 388.786 4.68487 367.788 1.01377 341.253C-9.4242 275.492 59.7239 235.662 109.503 224.615C107.147 223.162 104.763 221.709 102.435 220.256C84.4353 209.209 67.4223 198.793 51.0667 182.647C44.0259 174.917 40.3548 166.063 40.3 156.934C40.3 156.852 40.3 156.77 40.3 156.715C41.6424 139.966 63.5868 116.09 67.5044 112.719C105.421 67.3515 257.278 -4.35862 335.001 7.56565C358.042 11.1018 373.247 21.491 380.178 38.4865C382.726 44.7365 382.835 51.3428 380.507 56.6059C378.561 61.0193 375.027 64.2539 370.315 65.9535ZM309.687 693.499C303.852 696.323 297.112 697.803 290.017 697.803C286.044 697.803 281.962 697.337 277.88 696.432C254.018 691.032 232.95 670.72 222.896 643.39C213.499 617.924 213.855 590.073 215.444 566.197C216.102 556.439 216.978 546.104 220.184 536.044C223.827 524.586 230.348 514.142 239.032 505.863C240.813 504.164 242.676 502.601 244.594 501.148C228.54 506.549 216.102 522.914 209.609 548.023C192.513 614.168 221.362 680.862 257.936 699.365C271.743 706.355 287.195 707.26 299.277 701.805C303.085 700.078 307.139 697.227 309.687 693.499ZM294.537 577.683C275.36 570.556 257.36 567.623 241.06 568.966C238.128 569.213 234.649 569.487 231.718 567.54C229.498 566.033 228.046 563.538 227.252 559.92C223.882 544.459 233.334 530.013 239.251 522.776C247.443 512.771 256.374 506.521 265.798 504.218C274.757 501.998 284.921 503.917 294.482 509.427C290.647 502.437 282.483 497.119 273.606 496.598C273.031 496.57 272.428 496.543 271.853 496.543C267.963 496.543 263.963 497.311 259.963 498.763C259.634 498.983 259.251 499.147 258.812 499.202C253.224 501.422 247.744 505.013 242.758 509.756C234.731 517.404 228.704 527.053 225.307 537.661C222.293 547.118 221.444 557.096 220.814 566.526C219.252 589.854 218.896 616.992 227.937 641.526C237.389 667.156 256.977 686.208 279.086 691.197C290.948 693.883 302.619 692.211 311.057 686.591C311.578 686.235 312.071 685.879 312.564 685.495C312.893 684.782 313.55 684.234 314.317 684.042C323.659 675.764 328.18 661.728 325.358 648.406C322.509 634.81 312.564 622.282 298.756 614.909C285.633 607.864 271.332 606.795 260.511 612.085C259.169 612.743 257.58 612.167 256.922 610.852C256.265 609.508 256.84 607.918 258.155 607.261C270.538 601.257 286.674 602.326 301.304 610.194C304.701 612.003 307.906 614.141 310.838 616.471C313.961 615.841 316.591 613.62 318.262 610.249C320.591 605.479 320.591 599.256 318.262 594.733C313.577 585.715 303.112 580.918 294.537 577.71V577.683ZM283.469 539.361C283.99 539.964 284.702 540.265 285.414 540.265C286.017 540.265 286.62 540.046 287.085 539.635L291.496 535.825C292.565 534.893 292.702 533.248 291.77 532.151C290.839 531.055 289.222 530.945 288.126 531.877L283.716 535.688C282.647 536.62 282.51 538.264 283.442 539.361H283.469ZM284.674 518.116C287.003 516.691 289.414 515.348 291.88 514.142C283.469 509.262 274.702 507.563 267.059 509.454C258.812 511.483 250.84 517.102 243.388 526.203C238.073 532.672 229.608 545.529 232.485 558.796C232.978 561.016 233.69 562.414 234.704 563.1C236.046 564.004 238.293 563.812 240.457 563.648C241.334 563.566 242.21 563.511 243.087 563.483C252.456 544.953 266.976 529.054 284.647 518.144L284.674 518.116ZM323.276 524.969C320.509 521.79 315.961 520.337 311.057 521.077C307.085 521.68 303.605 523.489 300.236 525.244C298.975 525.901 298.482 527.464 299.14 528.752C299.605 529.657 300.509 530.178 301.441 530.178C301.852 530.178 302.235 530.096 302.619 529.876C305.605 528.314 308.701 526.696 311.852 526.23C314.29 525.874 317.55 526.23 319.44 528.396C320.372 529.492 322.016 529.575 323.084 528.643C324.152 527.683 324.262 526.038 323.331 524.969H323.276ZM660.359 138.075C669.509 146.244 672.605 160.608 669.564 180.92C667.51 194.599 663.099 207.4 660.907 213.239C674.304 214.089 680.797 196.572 682.577 190.87C688.961 170.284 686.221 143.612 673.044 138.376C672.824 138.321 672.605 138.239 672.386 138.13C668.825 136.183 663.482 136.896 660.387 138.13L660.359 138.075ZM647.236 132.894C650.003 133.058 652.962 133.607 655.428 134.703C658.332 132.62 663.263 131.359 667.948 131.578C666.249 129.604 664.058 127.795 661.4 126.726C657.619 125.218 653.318 125.273 648.579 126.945C648.606 128.864 648.168 130.948 647.236 132.894ZM531.131 242.515C539.131 251.451 549.788 252.274 562.061 245.009C555.678 236.128 553.897 225.519 553.377 220.476C553.24 218.995 554.308 217.68 555.788 217.542C557.267 217.405 558.582 218.474 558.719 219.955C559.185 224.724 560.911 235.031 567.294 243.063C567.76 243.255 568.171 243.584 568.5 244.05C568.691 244.324 568.801 244.598 568.883 244.9C570.198 246.298 571.678 247.614 573.349 248.792C581.787 254.659 593.458 255.728 608.06 251.917C639.154 243.803 649.538 226.808 654.633 214.609C654.661 214.5 654.688 214.418 654.743 214.335C655.455 212.608 661.756 197.066 664.304 180.125C667.345 160.004 664.003 146.572 654.442 140.268C651.181 138.102 644.798 137.993 641.839 138.513C641.784 138.513 641.702 138.513 641.648 138.541C641.401 138.596 641.154 138.65 640.963 138.705C630.305 141.967 630.251 147.23 631.785 171.627C632.168 178.014 632.634 185.251 632.935 193.941C632.99 195.421 631.84 196.654 630.333 196.709C628.826 196.709 627.621 195.613 627.566 194.105C627.538 193.036 627.484 191.994 627.456 190.953C623.511 194.16 621.347 197.669 620.991 201.452C620.306 208.771 626.525 215.048 626.607 215.103C627.648 216.144 627.675 217.844 626.607 218.913C625.566 219.982 623.867 219.982 622.826 218.941C622.497 218.612 614.744 210.854 615.621 201.013C616.169 194.873 619.922 189.418 626.689 184.84C626.826 184.73 626.99 184.648 627.127 184.593C626.881 179.988 626.634 175.821 626.388 171.956C626.388 171.572 626.333 171.216 626.306 170.832C617.621 161.046 586.882 155.454 572.088 161.183C570.691 161.704 569.157 161.019 568.609 159.648C568.089 158.25 568.773 156.715 570.143 156.167C579.787 152.439 596.279 152.877 610.06 156.633C611.183 153.727 611.649 152.165 611.676 150.163C607.895 150.109 601.128 149.396 596.225 145.394C595.074 144.462 594.882 142.762 595.814 141.611C596.745 140.46 598.444 140.268 599.594 141.2C604.854 145.476 613.758 144.708 613.977 144.708C613.977 144.708 614.005 144.708 614.032 144.708C618.909 144.352 625.675 142.241 628.196 141.419C630.223 137.746 633.675 135.279 639.319 133.552C639.565 133.47 639.839 133.415 640.141 133.332C642.552 131.633 643.702 128.124 643.072 126.041C643.072 126.013 643.072 125.986 643.072 125.959C640.113 117.187 629.894 113.294 615.758 115.569C587.047 120.175 546.61 149.697 546.665 200.849C546.665 202.329 545.459 203.535 543.98 203.535C542.5 203.535 541.295 202.329 541.295 200.849C541.295 196.024 541.624 191.391 542.254 186.923C535.049 182.757 529.405 183.003 525.433 187.691C515.241 199.752 520.063 230.207 531.131 242.542V242.515ZM626.196 147.614C623.566 148.382 620.196 149.231 617.046 149.725C617.046 152.74 616.47 154.906 615.183 158.168C619.21 159.593 622.881 161.348 625.84 163.376C625.511 156.934 625.484 151.781 626.169 147.614H626.196ZM111.119 219.379C111.996 214.993 114.845 209.62 121.667 203.699C130.214 196.243 141.42 193.118 150.241 191.227C150.625 191.145 151.036 191.062 151.447 190.98C149.995 189.938 148.433 188.787 146.899 187.663C146.515 187.91 146.077 188.047 145.611 188.074C145.255 188.239 144.57 188.623 144.022 188.924C141.639 190.24 137.337 192.625 132.899 192.625C129.831 192.625 126.68 191.474 124.05 188.047C120.215 183.031 121.968 178.727 123.831 174.204C124.105 173.546 124.379 172.833 124.68 172.093C124.379 171.819 123.886 171.463 123.502 171.161C121.338 169.489 117.612 166.611 115.585 162.417C110.078 156.989 109.859 148.765 110.434 140.651C111.393 127.165 103.996 122.203 97.6129 120.394C83.2299 116.364 60.4088 124.944 51.3955 142.461C51.2585 142.707 51.0941 142.927 50.9023 143.119C48.1627 148.053 46.1628 152.96 45.7792 157.126C45.8614 164.966 48.9846 172.34 55.0392 179.056C70.8468 194.681 87.5859 204.933 105.339 215.816C107.284 216.994 109.229 218.2 111.174 219.407L111.119 219.379ZM216.513 251.04C216.841 250.245 217.17 249.423 217.499 248.546C215.006 246.188 213.17 244.708 211.061 242.981C210.732 242.707 210.403 242.433 210.047 242.159C208.294 253.452 203.225 265.185 195.089 276.561C193.034 279.439 190.76 282.29 187.884 284.51C190.514 286.731 193.061 289.033 195.527 291.391C211.992 285.415 228.266 279.521 242.238 274.477C239.991 271.901 237.334 268.885 235.224 266.583C232.759 267.899 229.197 269.488 225.553 269.488C222.485 269.488 219.334 268.337 216.704 264.911C212.869 259.894 214.622 255.591 216.485 251.068L216.513 251.04ZM324.646 148.656C323.522 149.012 323.057 150.41 323.303 151.562C323.577 152.713 324.399 153.617 325.166 154.522C328.837 158.634 332.536 162.773 336.207 166.885C337.166 167.954 338.262 169.105 339.659 169.297C340.563 169.407 341.549 169.078 341.987 168.283C342.618 167.077 341.713 165.706 340.837 164.665C336.864 159.867 332.892 155.07 328.481 150.657C327.687 149.862 326.81 149.067 325.714 148.903C324.618 148.765 323.358 149.697 324.646 148.656ZM393.081 137.664C392.04 137.938 391.602 139.116 391.876 140.076C392.15 141.035 392.917 141.83 393.684 142.598C397.218 146.134 400.752 149.67 404.286 153.206C405.218 154.138 406.259 155.125 407.574 155.317C408.423 155.427 409.355 155.18 409.711 154.522C410.286 153.535 409.41 152.329 408.56 151.452C404.725 147.34 400.917 143.228 396.698 139.445C395.931 138.76 395.109 138.075 394.068 137.91C393.027 137.746 391.849 138.513 393.054 137.664H393.081ZM356.124 134.566C343.96 131.496 333.632 134.292 324.837 143.091C325.714 142.296 326.591 141.529 327.522 140.789C341.823 146.984 352.151 160.306 358.179 174.834C359.137 177.137 360.617 181.413 361.055 182.674C361.137 182.866 361.055 183.113 360.863 183.223L342.398 194.571C342.124 194.818 342.645 195.311 342.645 195.311L364.206 198.436C364.398 198.464 364.535 198.601 364.589 198.793C365.028 200.903 367.658 213.54 368.671 220.805C369.164 224.231 369.63 227.849 368.452 231.166C368.069 232.29 367.466 233.277 366.808 234.236C379.794 226.753 396.643 221.161 414.313 226.314C414.779 226.451 415.19 226.726 415.492 227.055C415.245 225.163 414.944 223.244 414.615 221.325C414.587 221.298 414.56 221.271 414.533 221.243C413.875 220.476 413.738 219.434 414.094 218.529C410.505 200.383 403.382 182.153 396.588 169.434C387.219 151.89 371.712 138.541 356.124 134.648V134.566ZM354.097 274.834C354.371 274.916 354.644 275.026 354.918 275.19C360.48 279.028 363.85 281.358 369.712 282.811C383.986 286.374 399.355 281.522 407.93 270.749C415.82 260.854 417.574 246.024 415.902 230.152C415.3 231.194 414.04 231.742 412.834 231.386C388.424 224.286 365.274 240.13 353.631 250.19C353.439 250.355 353.22 250.464 353.001 250.547C354.069 258.222 354.672 266.638 354.097 274.806V274.834ZM348.48 258.551C323.139 251.89 296.564 265.788 280.976 280.179C292.537 288.54 306.317 298.765 320.81 309.565C330.07 308.578 337.138 304.686 341.796 297.915C348.316 288.43 349.768 273.82 348.48 258.551ZM346.617 176.342C347.795 176.342 348.727 175.383 348.727 174.204C348.727 173.025 347.768 172.066 346.617 172.066C345.467 172.066 344.508 173.025 344.508 174.204C344.508 175.383 345.467 176.342 346.617 176.342ZM299.386 162.17C286.126 154.632 271.661 153.864 260.675 160.169C259.169 161.046 257.744 162.006 256.429 163.047C270.894 169.763 282.483 184.346 288.674 199.012C289.661 201.369 291.222 205.838 291.688 207.126C291.77 207.345 291.688 207.564 291.469 207.674L272.154 219.407C271.853 219.653 272.401 220.174 272.401 220.174L295.003 223.464C295.195 223.464 295.359 223.628 295.386 223.82C295.852 226.013 298.647 239.116 299.715 246.627C300.236 250.218 300.729 253.946 299.551 257.372C298.838 259.373 297.633 261.073 296.126 262.553C311.221 254.055 329.686 248.765 347.85 252.822C346.7 243.748 344.7 234.648 342.261 226.424C332.755 194.187 318.701 173.162 299.359 162.115L299.386 162.17ZM277.497 203.041C278.702 203.041 279.661 202.055 279.661 200.849C279.661 199.642 278.702 198.656 277.497 198.656C276.291 198.656 275.332 199.642 275.332 200.849C275.332 202.055 276.291 203.041 277.497 203.041ZM255.497 176.863C255.771 178.014 256.593 178.919 257.36 179.823C261.032 183.935 264.73 188.074 268.401 192.186C269.36 193.255 270.456 194.407 271.853 194.599C272.757 194.708 273.743 194.379 274.182 193.584C274.812 192.378 273.908 191.008 273.031 189.966C269.059 185.169 265.086 180.372 260.675 175.958C259.881 175.163 259.004 174.368 257.908 174.204C256.812 174.039 255.525 174.999 256.84 173.957C255.717 174.314 255.251 175.712 255.497 176.863ZM205.39 232.537C205.116 217.186 196.787 203.124 184.651 197.614C179.473 195.256 173.802 194.434 168.295 194.434C162.076 194.434 156.104 195.476 151.337 196.49C143.173 198.244 132.79 201.123 125.174 207.756C120.407 211.896 115.01 218.2 116.352 224.642C121.502 250.053 140.57 272.147 164.953 280.919C172.103 283.496 177.637 283.798 181.856 281.906C185.527 280.234 188.294 276.835 190.76 273.381C200.568 259.648 205.636 245.53 205.417 232.51L205.39 232.537ZM79.1478 255.974C79.641 256.714 80.4629 257.098 81.2848 257.098C81.7779 257.098 82.2984 256.961 82.7368 256.632C85.6956 254.576 89.1475 253.069 92.6542 252.301C94.0514 252 94.9281 250.629 94.6267 249.204C94.3254 247.805 92.9556 246.901 91.5583 247.202C87.3667 248.107 83.3121 249.889 79.778 252.328C78.5999 253.151 78.2986 254.768 79.1205 255.947L79.1478 255.974ZM72.2166 260.963C73.4494 260.251 73.9152 258.688 73.2029 257.427C72.518 256.166 70.929 255.728 69.6961 256.413C49.6421 267.707 32.7934 284.181 20.9582 304.055C20.2185 305.289 20.6021 306.879 21.8349 307.646C22.2459 307.893 22.7116 308.03 23.1499 308.03C24.0266 308.03 24.8759 307.591 25.369 306.769C36.7659 287.69 52.957 271.846 72.2166 260.991V260.963ZM111.64 377.3C107.476 373.929 103.284 370.557 99.1471 367.213C98.4622 366.664 98.1061 365.815 98.1609 364.937L100.599 327.959C100.599 327.959 100.599 327.712 100.599 327.602C100.681 326.698 101.202 325.903 101.969 325.491C102.873 324.998 145.995 309.318 189.829 293.419C187.555 291.309 185.226 289.28 182.815 287.306C180.651 288.101 178.295 288.54 175.72 288.54C171.994 288.54 167.829 287.69 163.145 286.018C152.131 282.043 142.132 275.519 133.831 267.295C133.721 267.35 133.612 267.378 133.475 267.405C108.517 272.997 90.5721 279.083 78.5999 286.045C56.4364 298.929 39.6151 323.929 50.4366 346.736C57.0665 360.771 78.7917 375.628 111.64 377.3ZM252.511 447.311C229.937 429.411 206.897 411.73 184.596 394.652C158.542 374.696 131.694 354.055 105.667 333.167L103.64 363.896C121.228 378.123 139.091 392.487 157.035 406.933C161.967 410.908 166.953 414.91 171.939 418.912C172.487 419.131 172.98 419.488 173.281 420.008C197.856 439.773 222.786 459.92 246.922 479.63L252.539 447.311H252.511ZM337.248 439.142C356.096 428.945 375.575 418.391 398.341 407.783C399.054 402.821 401.3 387.114 402.451 378.945C382.232 389.005 300.345 429.63 258.073 447.969C258.018 448.051 257.99 448.106 257.936 448.188C257.881 448.243 257.826 448.27 257.799 448.325L252.265 480.178C284.702 467.623 310.263 453.78 337.248 439.17V439.142ZM425.546 554.849L408.999 519.706C408.396 518.418 406.834 517.87 405.574 518.473C404.286 519.103 403.739 520.638 404.341 521.954L420.889 557.096C421.327 558.028 422.258 558.577 423.217 558.577C423.601 558.577 423.957 558.494 424.313 558.33C425.601 557.699 426.149 556.164 425.546 554.849ZM414.45 512.744C417.985 508.33 419.053 498.709 418.587 488.511C415.437 492.842 411.053 496.269 406.259 496.625C408.944 501.916 411.683 507.343 414.45 512.771V512.744ZM587.786 522.228C581.321 515.512 570.938 515.293 563.185 517.459C538.994 524.174 524.392 548.736 516.419 568.144C513.652 574.887 511.159 581.932 508.748 588.757C502.995 605.04 497.023 621.899 486.777 636.29C483.516 640.868 479.818 645.172 476.256 649.338C471.928 654.409 467.435 659.645 463.818 665.265C456.367 676.915 455.161 689.031 460.175 701.339C462.12 702.052 464.147 702.682 466.257 703.148C468.421 703.642 470.531 703.971 472.64 704.19C475.955 704.409 479.352 704.19 482.695 703.532C506.064 698.899 518.611 676.558 533.158 650.736C535.98 645.72 538.912 640.512 542.007 635.276C544.747 630.643 549.13 624.777 554.199 618.006C571.376 595.035 597.348 560.304 590.444 530.123C589.841 527.437 588.937 524.832 587.814 522.283L587.786 522.228ZM551.349 507.672C533.761 516.828 518.885 534.509 509.461 557.48C506.803 563.949 504.584 570.775 502.42 577.354C500.475 583.248 498.502 589.361 496.173 595.282C490.201 610.577 482.064 624.914 471.983 637.907C470.037 640.429 468.01 642.896 466.038 645.309C461.408 650.956 456.641 656.767 452.97 663.072C447.189 673.05 445.216 683.192 447.436 691.608C447.49 691.854 447.518 692.129 447.518 692.375C449.189 694.294 451.079 695.994 453.189 697.501C449.956 685.522 451.983 673.708 459.243 662.332C463.051 656.383 467.654 651.01 472.12 645.802C475.599 641.745 479.215 637.524 482.338 633.138C492.146 619.377 497.982 602.875 503.625 586.948C506.063 580.068 508.584 572.941 511.406 566.088C519.844 545.556 535.405 519.569 561.705 512.278C567.732 510.605 575.129 510.167 581.787 512.387C580.006 510.112 578.006 507.892 575.732 505.754C568.609 502.574 559.733 503.259 551.322 507.672H551.349ZM441.436 680.204C442.175 673.762 444.477 667.019 448.312 660.385C452.175 653.697 457.106 647.693 461.873 641.91C463.818 639.525 465.846 637.085 467.736 634.618C477.489 622.008 485.379 608.11 491.16 593.308C493.406 587.524 495.379 581.521 497.297 575.682C499.488 568.993 501.735 562.085 504.475 555.424C514.392 531.302 530.145 512.634 548.856 502.903C554.719 499.833 560.829 498.352 566.637 498.434C563.294 496.132 559.651 493.939 555.651 491.856C535.761 481.521 513.159 485.496 493.653 502.738C471.27 522.53 455.134 560.221 467.627 593.966C468.147 595.364 467.435 596.899 466.038 597.42C464.64 597.94 463.106 597.228 462.586 595.83C457.271 581.493 456.805 566.526 459.627 552.382C456.641 551.888 454.148 552.382 452.312 553.944C449.216 556.576 446.23 563.456 448.751 581.219C449.162 582.261 449.408 582.973 449.408 583.275C449.737 603.615 472.941 614.936 456.75 628.779C427.847 653.532 441.134 675.243 441.463 680.204H441.436ZM427.738 566.746C426.423 567.321 425.82 568.829 426.368 570.172L429.327 577.162C429.738 578.149 430.696 578.752 431.71 578.752C432.039 578.752 432.395 578.697 432.724 578.533C434.039 577.957 434.641 576.449 434.094 575.106L431.135 568.116C430.587 566.8 429.053 566.17 427.765 566.746H427.738ZM439.902 478.177C439.655 476.752 438.34 475.792 436.943 476.039C435.546 476.286 434.587 477.629 434.833 479.027C436.477 488.95 435.929 499.312 433.217 508.961C432.833 510.359 433.628 511.784 434.998 512.168C435.244 512.223 435.463 512.278 435.71 512.278C436.833 512.278 437.874 511.537 438.203 510.386C441.107 499.997 441.682 488.868 439.929 478.177H439.902ZM443.463 285.004C442.504 286.128 440.806 286.292 439.682 285.333C438.559 284.373 438.395 282.674 439.354 281.55C440.696 279.932 442.285 278.644 443.984 277.685C443.052 275.601 442.806 273.107 443.217 270.311C443.463 268.748 443.874 267.268 444.258 265.843C444.532 264.883 444.778 263.924 444.997 262.964C445.49 260.634 445.6 258.222 445.573 255.837C445.162 255.837 444.751 255.865 444.34 255.865C440.121 255.865 435.518 255.262 430.614 254.055C427.464 253.26 424.313 252.082 421.19 250.547C419.957 260.086 416.944 268.036 412.149 274.066C404.423 283.743 391.986 289.28 379.109 289.28C375.548 289.28 371.959 288.869 368.425 287.964C362.288 286.429 358.343 283.989 353.494 280.645C352.398 288.101 350.179 295.119 346.206 300.875C341.576 307.619 335.029 311.95 326.728 313.924C327.029 314.143 327.33 314.39 327.632 314.609C332.673 318.364 337.741 322.147 342.782 325.875C344.234 322.257 346.946 319.379 350.699 317.597C355.795 315.212 362.041 315.349 366.973 317.953C372.26 320.749 375.603 326.232 375.931 332.564C376.205 337.882 374.288 342.953 370.808 346.571C384.726 356.741 397.163 365.595 406.259 371.571C406.67 371.626 407.053 371.763 407.382 372.01C408.204 372.585 408.615 373.572 408.478 374.559C408.286 375.875 404.013 406.028 403.465 409.701C403.41 410.634 402.834 411.538 401.93 411.949C395.081 415.102 388.561 418.281 382.26 421.434C386.178 424.477 388.232 428.945 387.931 434.098C387.438 442.02 381.438 449.997 373.986 452.656C372.205 453.287 370.37 453.588 368.562 453.588C364.644 453.588 360.781 452.163 357.603 449.422C353.987 446.324 351.85 442.048 351.466 437.47C347.549 439.581 343.659 441.664 339.823 443.747C337.467 445.008 335.138 446.297 332.81 447.53C346.097 459.92 343.96 473.681 342.234 484.756C340.398 496.433 339.303 503.506 352.59 507.398C360.562 509.756 365.85 503.561 373.575 493.062C379.438 485.112 385.465 476.943 394.287 475.6C396.013 470.693 398.835 465.458 401.629 460.304C403.3 457.207 404.889 454.274 406.095 451.642C406.725 450.299 408.314 449.696 409.656 450.326C410.999 450.957 411.601 452.547 410.971 453.89C409.684 456.686 408.067 459.701 406.341 462.881C401.821 471.297 396.177 481.741 398.478 487.058C399.273 488.895 401.054 490.156 403.985 490.951C408.862 492.239 413.848 486.51 416.012 482.344C418.669 477.218 419.163 470.776 419.656 463.977C420.258 456.11 420.861 447.996 425.08 441.554C421.957 436.565 419.382 427.602 423.436 412.278C423.82 410.853 425.299 410.003 426.724 410.359C428.149 410.743 428.998 412.223 428.642 413.649C425.354 426.012 426.395 435.962 431.436 441.006C434.039 443.583 437.573 444.597 440.915 443.692C444.504 442.733 447.162 439.827 448.257 435.798C449.572 430.809 449.134 423.736 448.696 416.253C448.23 408.386 447.764 400.299 449.326 393.775C446.367 394.597 443.354 395.063 440.395 395.063C439.847 395.063 439.299 395.063 438.751 395.009C434.998 394.789 431.82 393.912 429.299 392.35C426.971 390.924 424.916 388.786 422.998 385.826C417.957 378.095 415.875 368.994 417.19 360.168C417.409 358.688 418.779 357.701 420.231 357.893C421.71 358.112 422.724 359.482 422.505 360.935C421.409 368.337 423.217 376.313 427.491 382.865C428.998 385.195 430.45 386.73 432.094 387.744C433.847 388.813 436.176 389.444 439.025 389.608C446.203 389.992 453.846 387.251 460.038 382.043C465.051 377.821 469.188 372.257 473.407 363.978C481.133 348.874 485.16 332.893 485.023 317.734C484.968 310.963 484.037 306.084 482.01 301.917C479.489 296.791 475.051 293.035 470.147 291.829C465.407 290.678 459.764 291.72 453.408 294.954C444.641 299.423 437.299 305.919 432.176 313.814C431.381 315.047 429.71 315.404 428.45 314.609C427.217 313.814 426.861 312.142 427.655 310.881C433.272 302.191 441.326 295.037 450.942 290.157C453.052 289.088 455.134 288.238 457.134 287.58C456.887 286.621 456.175 285.552 455.326 284.373C454.86 283.715 454.422 283.112 453.928 282.646C452.696 281.468 450.641 280.974 448.696 281.413C446.805 281.824 444.915 283.057 443.408 284.867L443.463 285.004ZM503.461 236.731C503.68 238.019 504.748 238.924 506.009 238.924C506.146 238.924 506.283 238.924 506.42 238.897C509.159 238.431 511.707 237.142 513.789 235.169C514.83 234.182 514.858 232.537 513.871 231.495C512.885 230.454 511.269 230.399 510.228 231.413C508.913 232.674 507.296 233.496 505.598 233.798C504.201 234.017 503.242 235.36 503.461 236.786V236.731ZM477.133 241.089C480.941 242.268 484.886 242.844 488.831 242.844C492.228 242.844 495.626 242.405 498.94 241.528C500.31 241.172 501.132 239.746 500.776 238.348C500.42 236.95 498.995 236.128 497.625 236.484C491.489 238.129 484.722 237.965 478.612 236.101C477.243 235.689 475.818 236.457 475.407 237.827C474.996 239.198 475.763 240.651 477.133 241.089ZM470.668 205.673C470.12 205.892 469.489 205.975 468.887 205.783C449.052 200.026 430.203 211.731 419.875 220.147C419.957 220.53 420.039 220.942 420.094 221.325C421.519 229.851 422.039 237.718 421.683 244.818C421.765 244.845 421.847 244.872 421.93 244.927C425.217 246.709 428.56 248.025 431.874 248.847C450.915 253.562 463.271 248.546 468.585 233.935C471.407 226.177 471.928 216.309 470.668 205.646V205.673ZM393.465 129.248C394.013 128.782 394.561 128.289 395.136 127.85C407.519 133.168 416.45 144.571 421.71 156.989C422.532 158.935 423.82 162.609 424.204 163.678C424.258 163.87 424.204 164.061 424.012 164.144L408.095 173.82C407.875 174.012 408.314 174.451 408.314 174.451L426.943 177.164C427.107 177.192 427.217 177.301 427.272 177.466C427.655 179.275 429.957 190.048 430.861 196.271C431.299 199.204 431.71 202.301 430.669 205.097C430.422 205.783 430.094 206.413 429.738 207.016C440.806 200.876 454.997 196.38 469.955 200.547C464.723 169.188 445.436 132.894 424.313 122.587C413.108 117.132 402.78 119.407 393.465 129.275V129.248ZM412.314 161.128C413.327 161.128 414.149 160.306 414.149 159.292C414.149 158.277 413.327 157.455 412.314 157.455C411.3 157.455 410.478 158.277 410.478 159.292C410.478 160.306 411.3 161.128 412.314 161.128ZM363.904 82.0992C363.904 82.0992 363.959 81.8799 363.987 81.7703C363.987 81.7428 363.959 81.7154 363.932 81.688C363.932 81.8251 363.932 81.9621 363.932 82.0992H363.904ZM360.233 93.8864C356.754 95.8875 353.055 96.9017 349.521 96.9017C347.33 96.9017 345.165 96.518 343.165 95.723C337.385 93.4204 333.138 87.7187 332.344 81.222C331.796 76.7264 332.755 72.4501 334.864 69.1333C288.181 66.6114 245.47 81.4413 204.486 99.9445C207.664 103.508 209.198 108.634 208.65 114.171C207.992 120.613 204.924 126.068 200.184 129.111C197.472 130.838 194.267 131.715 191.007 131.715C187.966 131.715 184.843 130.948 182.076 129.413C176.651 126.425 172.87 120.668 172.459 115.076C170.733 115.926 169.008 116.748 167.282 117.598C129.091 136.128 120.242 148.327 119.53 155.262C119.009 160.251 122.598 163.623 126.406 166.583C126.982 164.061 127.365 161.156 127.256 157.647C127.201 156.167 128.379 154.933 129.858 154.878C131.283 154.824 132.571 156.002 132.625 157.483C132.872 166.309 130.543 172.038 128.817 176.205C126.954 180.755 126.461 182.291 128.351 184.758C131.365 188.678 135.42 187.526 141.447 184.182C141.556 184.127 141.693 184.045 141.803 183.99C141.337 183.661 140.899 183.387 140.515 183.113C139.283 182.291 138.926 180.618 139.748 179.385C140.57 178.151 142.241 177.795 143.474 178.617C146.296 180.481 150.953 183.88 154.679 186.622C156.159 187.718 157.528 188.705 158.597 189.472C158.679 189.527 158.734 189.61 158.816 189.664C167.473 188.513 177.72 188.458 186.925 192.652C200.897 199.012 210.513 214.993 210.814 232.372C210.814 233.442 210.814 234.538 210.759 235.607C212.184 236.813 213.389 237.8 214.513 238.732C216.047 239.993 217.526 241.199 219.225 242.734C219.718 240.349 220.047 237.636 219.937 234.428C219.882 232.948 221.06 231.715 222.54 231.66C224.019 231.605 225.252 232.784 225.307 234.264C225.553 243.091 223.225 248.82 221.499 252.986C219.636 257.537 219.143 259.072 221.033 261.539C224.019 265.459 228.101 264.308 234.128 260.963C236.265 259.785 237.553 259.072 239.06 259.593C240.457 260.059 241.224 261.594 240.731 262.992C240.621 263.348 240.43 263.622 240.183 263.896C242.621 266.61 245.498 269.9 247.662 272.394C249.635 271.681 251.552 270.969 253.415 270.311C234.32 246.682 226.951 214.774 234.704 187.91C238.95 173.135 247.224 161.594 257.99 155.399C270.648 148.135 287.113 148.875 302.044 157.373C303.852 158.387 305.578 159.538 307.276 160.717C308.619 157.071 310.263 153.645 312.235 150.492C323.851 131.77 339.056 124.615 357.439 129.248C365.082 131.167 372.699 135.142 379.685 140.651C379.986 139.253 380.507 137.664 381.575 135.964C386.89 127.439 396.725 115.542 410.56 114.363C410.642 114.199 410.725 114.034 410.834 113.815C413.711 108.278 415.738 101.973 408.971 97.2033C400.615 91.3097 392.068 93.53 382.068 104.248C381.054 105.345 379.356 105.4 378.26 104.385C377.164 103.371 377.109 101.671 378.123 100.575C378.918 99.7252 379.739 98.9028 380.534 98.1353C375.712 95.0377 371.384 91.1726 367.712 86.7593C365.795 90.1858 362.672 92.3788 360.206 93.8042L360.233 93.8864ZM197.253 124.561C198.294 123.903 199.198 123.025 199.993 122.039C199.116 123.025 198.102 123.903 197.034 124.67C197.089 124.643 197.171 124.615 197.226 124.561H197.253ZM368.507 60.8548C371.849 59.6487 374.233 57.4557 375.603 54.3581C377.356 50.4108 377.219 45.3396 375.219 40.4602C369.055 25.3287 355.247 16.036 334.207 12.8014C299.825 7.53824 246.292 18.9143 187.39 44.0238C135.666 66.0631 89.1201 95.1474 71.5591 116.392C71.3947 116.584 71.2029 116.776 70.9838 116.913C70.6276 117.187 69.8331 117.954 68.7647 119.078C79.0109 114.199 90.2981 112.746 99.0101 115.186C110.599 118.42 116.681 127.85 115.749 141.008C115.557 143.749 115.42 146.655 115.667 149.369C120.516 138.486 136.707 126.452 164.898 112.746C219.252 86.3481 275.469 59.073 339.686 64.0346H341.878C350.343 64.0072 359.959 63.9798 368.507 60.8548ZM624.36 359.647C628.607 361.237 636.168 361.484 639.154 352.41C641.401 345.694 645.949 325.464 647.401 321.105C648.305 318.392 649.62 320.393 650.277 321.791C653.099 327.904 653.291 334.181 664.825 338.265C668.907 339.718 673.564 338.265 677.893 334.592C657.976 328.507 662.934 309.017 648.634 306.796C647.921 306.687 647.209 306.742 646.606 307.016C646.004 307.29 645.593 307.811 645.291 308.359C643.51 311.539 638.278 337.306 635.292 346.215C634.99 345.859 631.538 340.184 624.908 339.801C620.689 339.554 616.827 341.418 615.292 344.625C611.758 351.944 619.539 357.893 624.36 359.647ZM277.716 85.4983C271.908 82.4556 263.579 83.3328 257.936 87.5816C256.182 88.8974 254.73 90.4599 253.744 92.132C252.867 93.5849 252.237 95.257 251.854 97.121C250.676 102.96 252.539 108.936 256.758 112.746C259.936 115.624 264.401 117.187 268.976 117.187C270.648 117.187 272.319 116.967 273.963 116.556C280.373 114.857 285.661 109.895 287.14 104.221C288.209 100.109 287.387 95.6134 284.784 91.5564C283.332 89.2538 280.949 87.2253 277.716 85.5531V85.4983ZM350.973 106.496C341.796 100.219 328.454 99.8348 317.796 105.509C308.427 110.498 300.893 119.983 297.14 131.523C296.674 132.949 297.441 134.456 298.866 134.922C299.14 135.005 299.414 135.059 299.688 135.059C300.811 135.059 301.879 134.347 302.235 133.195C305.55 122.971 312.126 114.61 320.29 110.279C329.248 105.509 340.344 105.756 347.905 110.937C349.138 111.787 350.809 111.458 351.631 110.224C352.48 108.99 352.151 107.318 350.919 106.496H350.973ZM629.484 322.97C602.8 314.801 609.43 288.704 590.28 285.716C589.321 285.579 588.334 285.634 587.567 286.018C586.773 286.402 586.252 287.087 585.841 287.827C583.43 292.076 576.472 326.615 572.445 338.54C572.034 338.046 567.404 330.453 558.527 329.932C552.884 329.603 547.706 332.125 545.624 336.374C540.884 346.188 551.322 354.137 557.76 356.522C563.459 358.605 573.54 358.989 577.595 346.818C580.581 337.799 586.691 310.716 588.636 304.905C589.841 301.287 591.595 303.945 592.471 305.81C596.252 314.006 596.498 322.394 611.977 327.904C617.429 329.85 623.676 327.904 629.484 322.97ZM274.921 130.153C265.744 123.875 252.402 123.492 241.745 129.166C232.375 134.182 224.841 143.639 221.088 155.18C220.622 156.605 221.389 158.113 222.814 158.579C223.088 158.661 223.362 158.716 223.636 158.716C224.759 158.716 225.827 158.003 226.183 156.852C229.498 146.627 236.074 138.267 244.238 133.908C253.196 129.138 264.292 129.413 271.853 134.566C273.086 135.416 274.757 135.087 275.579 133.853C276.428 132.62 276.099 130.948 274.867 130.125L274.921 130.153ZM496.584 339.417C496.584 341.007 497.817 342.295 499.324 342.295C500.831 342.295 502.064 341.007 502.064 339.417C502.064 337.827 500.831 336.539 499.324 336.539C497.817 336.539 496.584 337.827 496.584 339.417ZM521.899 339.636C521.899 343.145 524.638 345.996 528.008 345.996C531.378 345.996 534.117 343.145 534.117 339.636C534.117 336.127 531.378 333.276 528.008 333.276C524.638 333.276 521.899 336.127 521.899 339.636ZM405.108 302.383C394.095 312.032 389.191 328.013 392.917 342.185C393.246 343.392 394.314 344.187 395.52 344.187C395.739 344.187 395.985 344.159 396.205 344.104C397.629 343.721 398.506 342.268 398.122 340.815C394.917 328.589 399.163 314.746 408.67 306.413C409.793 305.426 409.903 303.726 408.916 302.63C407.93 301.506 406.232 301.396 405.136 302.383H405.108ZM445.545 369.433C453.408 371.105 462.476 359.757 465.846 344.077C469.188 328.479 465.599 314.499 457.874 312.663C460.147 310.908 462.777 309.401 465.818 308.304C467.216 307.811 467.928 306.248 467.435 304.878C466.942 303.48 465.38 302.767 464.01 303.26C453.709 306.988 447.463 314.636 443.545 322.202C440.915 326.478 438.751 331.906 437.436 337.991C434.066 353.671 437.71 367.761 445.573 369.46L445.545 369.433ZM176.076 147.614C173.144 147.505 169.966 148.272 166.597 149.889C160.323 152.85 156.405 159.977 157.227 166.857C157.501 168.941 158.159 170.942 159.172 172.669C160.049 174.149 161.282 175.52 162.789 176.781C166.514 179.906 171.199 181.578 175.884 181.578C177.199 181.578 178.487 181.441 179.774 181.167C185.911 179.878 191.144 175.355 193.144 169.626C195.226 163.568 193.555 156.633 188.925 152.384C185.747 149.451 181.171 147.751 176.048 147.587L176.076 147.614ZM558.938 38.2398C560.555 38.0479 564.198 37.6367 565.815 37.253C566.527 37.0611 567.102 36.458 566.883 35.4438C566.335 32.8944 565.486 28.7826 565.185 26.1785C564.719 22.6423 565.13 20.6138 565.924 20.5316C566.993 20.4219 567.787 22.2311 568.746 24.9998C569.267 26.4252 569.732 27.9603 570.198 29.3857C571.047 31.6609 572.225 32.8396 574.034 32.6477C575.897 32.4284 576.883 31.2223 577.157 28.5907C577.184 27.1653 577.349 25.8495 577.458 24.3145C577.842 21.1621 578.116 18.9143 579.239 18.7772C580.061 18.695 580.855 20.5042 581.266 24.0677C581.568 26.7815 581.732 31.0578 581.705 33.799C581.705 34.8407 582.417 35.3067 583.211 35.3067C584.882 35.3067 588.581 34.8955 590.197 34.7036C591.759 34.5118 594.772 34.1828 596.361 33.799C597.183 33.6072 597.731 32.8944 597.594 32.0721C595.923 20.1752 592.882 8.1413 590.937 1.09639C590.718 0.383673 590.06 -9.68339e-05 589.348 0.0547274C587.375 0.136964 584.417 0.438497 582.718 0.630382C581.157 0.822267 578.198 1.15121 576.609 1.53498C575.513 1.8091 574.801 2.57664 574.664 3.89242C574.472 5.34527 574.28 8.27836 573.951 10.9373C573.677 13.377 573.047 15.1862 572.171 15.2959C571.184 15.4055 570.171 13.843 569.184 11.1018C568.445 9.01849 567.513 6.05798 567.13 4.76961C566.691 3.53607 565.842 2.933 564.637 2.933C563.02 2.933 560.144 3.26195 558.527 3.42642C556.883 3.6183 553.569 4.0569 551.87 4.38584C551.185 4.5229 550.61 5.01632 550.61 5.75645C550.308 13.0481 550.007 25.4658 551.103 37.4449C551.185 38.2672 551.897 38.8429 552.747 38.8429C554.363 38.8429 557.431 38.4865 558.993 38.322L558.938 38.2398ZM615.758 35.3067C627.018 35.8275 634.716 32.401 635.292 20.23C635.839 8.19613 628.634 0.767443 617.374 0.246612C606.115 -0.219394 598.252 6.41434 597.704 18.4757C597.129 30.6741 604.553 34.7859 615.758 35.3067ZM616.306 23.4921C614.251 23.4099 613.101 21.957 613.238 18.5853C613.402 15.0492 614.717 11.9242 616.826 12.0338C618.936 12.1435 619.95 15.3781 619.785 18.8869C619.621 22.2585 618.333 23.5743 616.279 23.4921H616.306ZM649.538 38.7058C654.414 39.5282 663.044 41.0358 666.277 41.3374C667.071 41.3648 667.811 40.844 667.893 40.0216C668.414 36.321 669.208 29.2486 669.509 25.4384C669.619 23.9033 668.167 23.3824 667.208 24.3419C663.866 27.7136 661.044 28.4263 656.715 27.6861C653.099 27.0831 651.757 25.2191 652.222 22.5875C653.072 17.5162 654.798 13.7882 657.565 6.82552C657.893 6.08539 657.373 5.04373 656.469 4.85185C654.606 4.38584 653.263 4.11172 650.907 3.70054C647.62 3.1523 645.154 2.7137 642.853 2.52182C642.113 2.52182 641.428 2.76853 641.237 3.48124C639.264 10.3617 636.607 22.8342 634.524 34.3199C634.387 35.1422 634.963 35.8824 635.702 36.1017C638.606 36.8418 646.004 38.0479 649.538 38.651V38.7058ZM681.92 45.7507C683.728 46.2442 687.317 47.2036 689.153 47.5051C690.139 47.6148 690.933 46.9569 691.015 46.0797C691.837 39.1444 693.07 30.2355 693.399 27.0831C693.454 25.1642 694.659 24.6708 695.7 24.9723C697.536 25.4658 699.974 28.7278 701.645 30.1806C702.138 31.0304 703.371 30.8934 703.727 29.5776C704.111 28.0973 705.837 20.5042 706.248 18.0097C706.412 17.2421 706.056 16.6391 705.179 16.3375C701.399 15.104 694.741 13.2948 690.796 12.2531C686.851 11.2115 680.194 9.37485 676.331 8.55248C675.427 8.3606 674.824 8.68955 674.578 9.45708C673.701 11.8145 671.427 19.0239 670.961 20.6138C670.605 21.9296 671.592 22.7794 672.441 22.286C674.633 21.8748 678.304 20.2575 680.194 20.7783C681.29 21.0798 682.057 22.0941 681.153 23.7936C679.865 26.6993 676.441 35.0052 673.646 41.4196C673.263 42.242 673.646 43.2014 674.523 43.5852C676.304 44.2705 680.057 45.2847 681.893 45.7781L681.92 45.7507ZM715.206 56.7704C725.754 60.7177 734.137 59.8406 738.438 48.4097C742.657 37.1159 738.055 27.8506 727.507 23.9033C716.932 20.0108 707.426 23.9033 703.179 35.2245C698.906 46.6553 704.686 52.8505 715.206 56.7978V56.7704ZM719.343 45.6959C717.425 44.9832 716.741 43.2562 717.946 40.1038C719.179 36.787 721.398 34.2376 723.37 34.9778C725.343 35.7179 725.316 39.117 724.083 42.4065C722.905 45.5863 721.261 46.436 719.343 45.6959ZM575.403 88.5136C584.499 87.7735 595.43 85.0871 594.827 78.0148C594.526 74.2045 590.28 70.1201 581.568 69.3252C580.526 69.0784 580.499 68.4206 581.403 67.9546C588.334 66.1454 591.978 62.5544 591.677 58.8537C591.321 54.4678 586.636 52.5763 577.951 53.2891C571.102 53.8647 566.061 54.1114 559.596 55.016C558.829 55.1257 558.363 55.6465 558.336 56.3592C558.281 63.5412 558.5 75.7396 559.486 87.6364C559.568 88.6233 560.363 89.336 561.349 89.3086C565.212 89.1715 572.28 88.7878 575.403 88.5411V88.5136ZM574.143 68.0642C573.568 68.2013 573.102 67.9545 573.047 67.3241L572.773 63.8427C572.719 63.2123 573.075 62.7737 573.705 62.7188L574.28 62.664C575.951 62.527 577.129 63.0752 577.239 64.4458C577.321 65.5149 576.91 67.187 574.143 68.0368V68.0642ZM575.102 77.8229C574.28 77.9051 573.897 77.4666 573.842 76.7538L573.486 72.5872C573.431 71.9019 573.842 71.4633 574.444 71.5729C577.321 71.7922 579.129 73.437 579.239 74.9172C579.376 76.5894 578.417 77.5488 576.773 77.6859L575.102 77.8229ZM610.717 87.5816C615.648 87.8283 624.415 88.3217 627.648 88.2395C628.442 88.1847 629.1 87.5816 629.1 86.7319C629.182 83.0038 629.155 77.7407 628.908 73.903C628.826 72.5324 627.237 72.1486 626.497 73.0806C623.566 76.699 620.854 77.7955 616.443 77.5762C612.772 77.3843 611.128 76.1782 611.21 74.3142V73.8207C611.32 72.0938 612.635 71.4359 615.758 71.5455C617.868 71.6004 619.32 72.1212 621.813 73.3273C622.47 73.8482 623.319 73.4096 623.374 72.4775L623.621 68.8043C623.676 67.9271 622.963 67.3515 622.114 67.3515C619.676 67.2692 618.142 67.4063 616.032 67.2967C612.854 67.1322 611.621 66.4743 611.676 65.3504V65.1585C611.731 64.1717 612.635 63.1026 615.374 63.2397C618.607 63.4041 621.73 64.4458 624.826 66.4743C625.867 67.2692 626.963 66.9403 627.018 65.7068C627.127 62.7737 627.264 58.1958 627.21 55.2627C627.21 54.4678 626.689 53.8647 625.867 53.7825C623.292 53.5084 617.703 53.1794 612.717 52.9053C609.293 52.7408 602.498 52.3845 599.841 52.4393C599.101 52.4393 598.444 52.8505 598.361 53.5906C597.211 60.6629 596.033 73.3547 595.293 85.0049C595.238 85.8272 595.896 86.5126 596.69 86.6496C599.649 87.0334 607.156 87.3897 610.717 87.5542V87.5816ZM659.756 93.9961C663.756 94.6814 665.236 91.5564 665.701 88.7055C667.455 77.7133 668.386 68.2835 668.934 61.6498C668.962 60.9096 668.414 60.3614 667.647 60.1421C666.222 59.7583 663.619 59.2375 662.277 59.0182C660.962 58.7989 658.496 58.47 657.126 58.3329C656.14 58.3329 655.318 59.0182 655.4 59.9228C655.537 63.3767 654.989 69.4896 653.483 69.2429C651.209 68.8591 649.181 61.5949 648.25 58.8811C647.291 57.1816 646.688 56.6608 645.182 56.2496C644.332 56.0029 642.743 55.6191 641.839 55.482C641.072 55.345 638.634 54.9886 637.839 54.9886C637.045 54.9886 636.387 55.2901 636.223 56.0029C634.305 63.0478 631.401 74.972 629.374 86.8141C629.237 87.5816 629.812 88.2943 630.607 88.5136C632.251 89.0345 635.018 89.5279 636.607 89.802C638.305 90.1035 641.346 90.6244 643.127 90.6792C644.058 90.734 644.88 90.3228 644.908 89.2538C645.017 87.4446 645.072 83.9084 645.428 81.9347C645.757 80.0159 646.387 78.4534 647.346 78.6453C650.633 79.2209 651.017 92.5158 659.756 94.0235V93.9961ZM679.783 99.0399C684.55 100.383 692.961 102.823 696.139 103.481C696.933 103.59 697.7 103.152 697.892 102.357C698.823 98.7384 699.974 93.6123 700.577 89.8294C700.823 88.4588 699.344 87.7461 698.413 88.4862C694.741 91.3645 691.865 91.8305 687.618 90.6244C684.084 89.6101 682.742 88.075 683.262 86.2658L683.399 85.7998C683.865 84.1551 685.29 83.7988 688.331 84.5937C690.358 85.1145 691.673 85.9369 693.81 87.6913C694.33 88.3492 695.262 88.1025 695.536 87.1979L696.577 83.6617C696.824 82.8119 696.248 82.0992 695.454 81.9073C693.07 81.2768 691.563 81.0575 689.536 80.4819C686.468 79.6047 685.399 78.7001 685.728 77.6036L685.783 77.4117C686.057 76.4797 687.153 75.6025 689.81 76.3701C692.933 77.2473 695.755 78.9742 698.303 81.6332C699.152 82.6474 700.275 82.5652 700.604 81.3865C701.371 78.5356 702.522 74.1223 703.125 71.244C703.289 70.4765 702.933 69.7637 702.138 69.4896C699.673 68.6398 694.33 67.0774 689.509 65.7068C686.221 64.7747 679.646 62.9107 677.071 62.3625C676.358 62.198 675.619 62.4721 675.372 63.1574C672.687 69.7912 668.688 81.9073 665.345 93.0915C665.126 93.8864 665.592 94.6814 666.331 95.0103C669.153 96.052 676.359 98.0531 679.81 99.0399H679.783ZM705.755 107.291C708.987 108.442 712.083 107.373 713.316 103.919C714.604 100.356 712.932 97.587 709.672 96.4083C706.412 95.2296 703.344 96.3261 702.084 99.8348C700.823 103.344 702.467 106.112 705.755 107.291ZM717.562 74.5883C716.083 74.0675 712.932 72.971 711.207 72.4501C710.439 72.2308 709.617 72.6694 709.453 73.2725C707.535 79.9336 706.412 87.8009 705.946 92.3239C705.919 92.8448 706.22 93.5849 706.714 93.8042C707.837 94.2976 709.097 94.8184 710.165 95.2022C711.097 95.5311 712.576 96.0246 713.59 96.2713C714.193 96.4357 714.878 96.052 715.179 95.6408C717.782 91.995 721.644 85.0049 724.411 78.6453C724.685 78.0696 724.247 77.1924 723.535 76.8635C722.001 76.2056 719.069 75.1091 717.59 74.5609L717.562 74.5883Z" fill="black"/>
<path d="M261.913 271.367C275.398 280.477 296.056 295.786 318.469 312.439C318.787 312.849 319.214 313.16 319.702 313.335L325.23 317.443C353.732 338.651 383.019 360.569 401.697 373.002C381.599 382.823 298.595 424.119 256.01 442.564C233.186 424.492 209.914 406.682 187.388 389.581C161.015 369.38 133.559 348.508 107.41 327.375C127.432 319.907 213.35 288.879 261.913 271.367Z" fill="white"/>
<g clip-path="url(#clip1_8599_49377)">
<path d="M270.099 312.069C276.69 313.114 285.644 315.815 292.897 322.6C296.67 320.392 301.218 318.537 305.782 317.469C305.782 317.469 316.693 315.01 321.469 322.683C326.111 330.125 318.338 337.301 307.865 346.886C315.771 377.183 291.39 406.92 259.012 404.845C251.626 404.564 245.013 402.283 238.911 398.75C240.304 397.446 242.968 395.097 244.467 394.013C250.901 396.925 256.243 398.184 261.626 398.146C273.841 398.066 285.541 392.203 292.862 383.197C300.182 374.191 306.282 361.789 299.002 342.202C305.256 339.405 311.361 333.644 313.545 329.467C314.447 328.174 313.399 325.89 311.289 325.718C293.543 323.92 274.007 351.893 263.153 363.694C257.136 370.413 251.043 377.057 244.677 383.445C236.72 391.607 226.258 398.182 214.83 399.894C200.046 400.762 195.995 388.046 205.222 377.546C207.358 374.993 213.073 370.974 216.581 368.984C215.814 369.228 207.555 322.258 254.057 312.554C259.341 311.451 264.76 311.232 270.085 312.071L270.099 312.069ZM233.055 374.522C229.86 368.873 228.138 362.932 228.402 356.372C232.466 357.304 234.935 356.09 235.448 353.178C235.84 350.416 233.84 348.314 230.253 348.012C231.762 341.594 238.766 332.825 244.246 330.341C244.367 332.778 245.634 334.413 247.989 334.708C249.939 335.046 251.356 334.216 252.416 332.607C253.69 330.431 253.071 328.456 251.235 326.609C252.829 326.168 254.288 325.742 255.641 325.599C264.252 324.281 269.499 324.379 281.477 330.978L286.577 327.228C271.348 315.094 247.486 315.711 232.824 332.229C218.404 348.448 221.156 370.609 231.731 382.691C232.741 381.903 235.293 379.783 236.303 378.996C235.107 377.639 234.008 376.163 233.055 374.522ZM219.597 377.85C216.117 379.85 213.113 382.481 210.722 385.727C209.875 386.769 209.191 388.066 209.889 389.489C210.586 390.913 212.102 391.024 213.482 391.151L213.753 391.122C217.945 390.679 221.752 389.188 225.233 387.187C223.39 383.98 221.561 380.908 219.597 377.85ZM248.16 341.494C245.726 341.751 243.911 343.984 244.302 346.392C244.558 348.814 246.785 350.483 249.084 350.24C251.518 349.983 253.333 347.75 253.077 345.328C252.821 342.906 250.593 341.236 248.16 341.494ZM272.912 337.653C270.699 336.118 268.386 336.226 266.813 338.161C265.361 339.948 265.588 342.101 267.111 343.573C268.969 341.744 270.933 339.631 272.912 337.653ZM250.115 363.875C248.051 362.46 245.617 362.717 244.179 364.638C242.863 366.41 243.119 368.832 244.762 370.155C246.592 368.057 248.286 365.973 250.115 363.875Z" fill="black"/>
<path d="M282.296 353.344C285.513 350.146 288.609 347.097 291.947 343.751C296.088 351.886 296.792 359.84 293.859 368.314C292.187 366.722 290.344 366.1 288.266 367.136C286.579 367.995 285.774 369.441 285.824 371.204C285.959 373.775 287.724 374.95 289.973 375.528C282.421 388.165 262.999 394.572 250.616 388.669C259.171 379.056 267.876 369.563 276.552 359.802C277.52 361.196 279.014 362.399 281.028 362.05C282.096 361.801 283.256 361.134 283.982 360.241C286.081 358.114 285.406 355.6 282.296 353.344ZM268.226 376.112C265.792 376.369 263.977 378.602 264.233 381.025C264.489 383.447 266.866 385.237 269.165 384.994C271.463 384.751 273.278 382.518 273.037 380.23C272.902 377.659 270.66 375.855 268.226 376.112Z" fill="black"/>
</g>
</g>
<defs>
<clipPath id="clip0_8599_49377">
<rect width="740" height="714.966" fill="white"/>
</clipPath>
<clipPath id="clip1_8599_49377">
<rect width="128.467" height="93.2476" fill="white" transform="translate(192.817 318.781) rotate(-6.03308)"/>
</clipPath>
</defs>
</svg>
