<svg width="491" height="80" viewBox="0 0 491 80" fill="none" xmlns="http://www.w3.org/2000/svg">
<path d="M473.42 35.8331C473.22 46.7331 467.62 54.4331 458.42 59.6331C445.12 67.1331 427.82 63.5331 418.72 51.7331C410.82 41.5331 411.52 27.1331 420.32 17.8331C427.42 10.3331 436.22 7.33311 446.42 8.23311C457.02 9.13311 464.82 14.5331 470.22 23.5331C472.52 27.2331 473.42 31.4331 473.42 35.8331ZM461.22 35.7331C461.12 34.8331 461.12 33.9331 461.02 33.1331C460.82 32.1331 460.62 31.1331 460.22 30.2331C455.82 18.7331 440.52 15.2331 431.22 23.6331C424.22 29.9331 423.62 39.5331 429.82 46.5331C434.32 51.6331 440.12 53.2331 446.72 52.2331C454.52 50.9331 461.42 43.4331 461.22 35.7331Z" fill="black"/>
<path d="M314.12 36.3331C314.12 29.4331 314.22 22.5331 314.12 15.7331C314.02 11.2331 317.42 9.43311 320.42 9.43311C324.82 9.53311 329.32 9.23311 333.72 9.73311C344.62 10.8331 353.02 15.9331 358.22 25.7331C363.02 34.7331 360.92 46.2331 353.82 53.6331C347.32 60.3331 339.42 63.4331 330.32 63.5331H320.52C316.42 63.5331 314.22 61.2331 314.22 57.2331C314.12 50.1331 314.12 43.2331 314.12 36.3331ZM326.22 20.3331V52.6331H329.92C335.22 52.6331 339.92 50.9331 343.92 47.2331C349.62 42.0331 350.42 33.2331 345.52 27.3331C340.42 21.2331 333.72 19.7331 326.22 20.3331Z" fill="black"/>
<path d="M405.22 63.4331C403.12 63.4331 401.32 62.3331 400.32 60.1331C399.22 57.5331 398.02 54.9331 396.92 52.3331C396.62 51.6331 396.22 51.3331 395.42 51.3331H378.92C378.22 51.3331 377.82 51.5331 377.52 52.2331C376.42 54.8331 375.32 57.4331 374.12 60.0331C373.12 62.3331 371.22 63.4331 368.72 63.4331C366.22 63.4331 364.12 62.6331 363.02 60.1331C362.32 58.6331 362.42 57.2331 363.02 55.7331C367.42 45.5331 371.82 35.3331 376.22 25.1331C377.92 21.3331 379.52 17.4331 381.22 13.6331C382.32 10.9331 384.32 9.63308 387.22 9.53308C390.12 9.53308 392.02 10.8331 393.12 13.5331C399.12 27.6331 405.22 41.7331 411.32 55.7331C413.02 59.7331 410.32 63.4331 405.22 63.4331ZM387.22 29.5331C385.52 33.3331 384.02 36.9331 382.52 40.5331H392.02C390.42 36.9331 388.82 33.4331 387.22 29.5331Z" fill="black"/>
<path d="M130.42 43.533V57.733C130.42 61.033 127.92 63.433 124.52 63.433C121.12 63.433 118.52 61.133 118.42 57.833V15.133C118.42 11.933 120.72 9.53305 124.02 9.53305C130.12 9.43305 136.22 9.33305 142.22 9.73305C148.72 10.233 153.72 13.533 156.92 19.233C161.32 27.033 157.92 36.733 149.42 41.133C146.22 42.733 142.92 43.533 139.42 43.533C136.42 43.533 133.52 43.533 130.42 43.533ZM130.42 32.733H140.32C143.42 32.433 146.12 30.233 146.62 27.733C147.32 24.533 144.72 21.033 141.12 20.633C138.22 20.333 135.22 20.433 132.22 20.433H130.32C130.42 24.433 130.42 28.533 130.42 32.733Z" fill="black"/>
<path d="M294.72 26.733C296.42 24.633 298.42 23.733 301.02 24.233C303.62 24.733 305.52 26.933 305.52 29.633V57.433C305.52 60.233 304.32 62.033 301.92 62.933C299.52 63.833 296.92 63.233 295.22 61.333C295.02 61.133 294.92 60.933 294.72 60.733C292.02 62.033 289.22 62.833 286.32 63.233C277.22 64.333 267.82 59.233 264.42 51.333C260.22 41.533 264.72 30.333 274.92 25.933C281.22 23.233 287.62 23.333 293.92 26.233C294.12 26.433 294.42 26.633 294.72 26.733ZM284.12 52.933C289.12 52.933 293.22 49.733 293.82 45.433C294.52 40.833 291.92 36.633 287.52 35.233C282.72 33.633 277.72 35.533 275.52 39.633C272.62 45.233 276.02 52.933 284.12 52.933Z" fill="black"/>
<path d="M242.02 52.9331H254.22C255.22 52.9331 256.32 53.1331 257.22 53.5331C259.42 54.5331 260.52 56.4331 260.22 58.7331C260.02 60.7331 258.42 62.5331 256.22 63.0331C255.62 63.2331 255.02 63.2331 254.42 63.2331H230.22C227.42 63.2331 225.32 61.6331 224.62 59.2331C224.12 57.5331 224.52 56.1331 225.72 54.8331C231.32 48.1331 236.92 41.4331 242.42 34.7331V34.5331C242.02 34.5331 241.62 34.4331 241.32 34.4331H230.62C229.82 34.4331 229.02 34.3331 228.22 34.1331C225.82 33.4331 224.22 31.3331 224.32 29.0331C224.42 26.8331 226.22 24.7331 228.52 24.2331C229.22 24.1331 229.82 24.0331 230.52 24.0331H253.72C255.72 24.0331 257.42 24.5331 258.82 25.9331C260.42 27.5331 260.62 30.4331 259.12 32.2331C253.62 38.8331 248.12 45.4331 242.52 52.0331C242.52 52.3331 242.32 52.5331 242.02 52.9331Z" fill="black"/>
<path d="M201.02 34.6331C200.42 34.6331 200.02 34.5331 199.62 34.5331H188.72C185.72 34.5331 183.32 32.7331 182.92 30.3331C182.32 27.1331 184.72 24.1331 188.42 24.1331C196.62 24.0331 204.72 24.0331 212.92 24.1331C215.82 24.1331 217.92 25.8331 218.52 28.1331C218.92 29.6331 218.62 31.1331 217.62 32.3331C212.12 38.8331 206.72 45.4331 201.22 51.9331C201.02 52.1331 200.82 52.4331 200.52 52.8331C201.12 52.8331 201.52 52.9331 201.92 52.9331H212.92C215.62 52.9331 217.92 54.5331 218.62 56.7331C219.52 59.9331 217.12 63.1331 213.42 63.3331C211.92 63.4331 210.42 63.3331 209.02 63.3331H189.02C186.22 63.3331 184.12 61.9331 183.42 59.7331C182.82 57.9331 183.22 56.3331 184.52 54.7331C188.82 49.7331 193.02 44.6331 197.22 39.5331C198.22 38.0331 199.52 36.4331 201.02 34.6331Z" fill="black"/>
<path d="M164.72 43.7331V29.9331C164.72 26.5331 167.02 24.2331 170.52 24.1331C173.92 24.1331 176.42 26.5331 176.42 29.9331V57.5331C176.42 61.0331 174.02 63.3331 170.52 63.3331C167.02 63.3331 164.62 60.9331 164.62 57.4331C164.72 52.9331 164.72 48.3331 164.72 43.7331Z" fill="black"/>
<path d="M176.42 15.633C176.72 19.733 173.22 21.733 170.52 21.733C166.92 21.633 164.82 19.333 164.62 15.533C164.52 11.933 167.32 9.63304 170.52 9.53304C173.72 9.43304 176.82 11.733 176.42 15.633Z" fill="black"/>
<g clip-path="url(#clip0_6711_5821)">
<path d="M57.0399 6.21309C61.7799 7.49309 68.1199 10.1731 72.8999 15.7231C75.8299 14.3931 79.2999 13.3831 82.7199 12.9531C82.7199 12.9531 90.8899 11.9931 93.7899 18.0031C96.6099 23.8331 90.3699 28.5031 81.9699 34.7331C85.4099 57.6131 65.2799 77.5731 41.7599 73.5331C36.3799 72.7531 31.7199 70.5631 27.5299 67.4931C28.6499 66.6431 30.7799 65.1231 31.9599 64.4431C36.4399 67.0831 40.2499 68.4231 44.1899 68.8131C53.1299 69.7031 62.1399 66.3031 68.1899 60.2531C74.2399 54.2031 79.6599 45.5631 75.8499 30.6031C80.6399 29.0331 85.5499 25.2731 87.4699 22.3731C88.2299 21.4931 87.6399 19.7331 86.1099 19.4431C73.2699 16.7431 56.8199 35.7831 47.9699 43.6131C43.0499 48.0831 38.0799 52.4931 32.9299 56.6931C26.4799 62.0731 18.3199 66.0931 9.82993 66.4631C-1.05007 65.9531 -3.03007 56.2931 4.52993 49.2931C6.28993 47.5831 10.7799 45.0731 13.4999 43.8831C12.9199 44.0031 10.5099 8.84309 45.2699 5.32309C49.2199 4.92309 53.1999 5.18309 57.0299 6.21309H57.0399ZM25.1199 49.2331C23.2199 44.8331 22.4199 40.3331 23.1199 35.5331C26.0199 36.5331 27.9199 35.8331 28.5199 33.7331C29.0199 31.7331 27.7199 30.0331 25.1199 29.5331C26.7199 24.9331 32.5199 19.0331 36.7199 17.6331C36.6199 19.4331 37.4199 20.7331 39.1199 21.1331C40.5199 21.5331 41.6199 21.0331 42.5199 19.9331C43.6199 18.4331 43.3199 16.9331 42.1199 15.4331C43.3199 15.2331 44.4199 15.0331 45.4199 15.0331C51.8199 14.7331 55.6499 15.2131 63.8999 20.9931L67.9199 18.6331C57.7199 8.53309 40.2199 7.13309 28.2199 18.1331C16.4199 28.9331 16.7199 45.4331 23.5199 55.1331C24.3199 54.6331 26.3499 53.2731 27.1499 52.7731C26.3799 51.6831 25.6899 50.5131 25.1199 49.2331ZM15.0199 50.6331C12.3199 51.8331 9.91993 53.5331 7.91993 55.7331C7.21993 56.4331 6.61993 57.3331 7.01993 58.4331C7.41993 59.5331 8.51993 59.7331 9.51993 59.9331H9.71993C12.8199 59.9331 15.7199 59.1331 18.4199 57.9331C17.3199 55.4331 16.2199 53.0331 15.0199 50.6331ZM38.7199 26.1331C36.9199 26.1331 35.4199 27.6331 35.5199 29.4331C35.5199 31.2331 37.0199 32.6331 38.7199 32.6331C40.5199 32.6331 42.0199 31.1331 42.0199 29.3331C42.0199 27.5331 40.5199 26.1331 38.7199 26.1331ZM57.1199 25.2331C55.6199 23.9331 53.9199 23.8331 52.6199 25.1331C51.4199 26.3331 51.4199 27.9331 52.4199 29.1331C53.9199 27.9331 55.5199 26.5331 57.1199 25.2331ZM38.4199 42.7331C37.0199 41.5331 35.2199 41.5331 34.0199 42.8331C32.9199 44.0331 32.9199 45.8331 34.0199 46.9331C35.5199 45.5331 36.9199 44.1331 38.4199 42.7331Z" fill="black"/>
<path d="M62.7701 37.4931C65.3701 35.3931 67.8701 33.3931 70.5701 31.1931C72.9701 37.4931 72.8701 43.3931 70.0701 49.3931C68.9701 48.0931 67.6701 47.4931 66.0701 48.0931C64.7701 48.5931 64.0701 49.5931 63.9701 50.8931C63.8701 52.7931 65.0701 53.7931 66.6701 54.3931C60.1701 63.0931 45.4701 66.2931 36.8701 60.9931C43.8701 54.5931 50.9701 48.2931 58.0701 41.7931C58.6701 42.8931 59.6701 43.8931 61.1701 43.7931C61.9701 43.6931 62.8701 43.2931 63.4701 42.6931C65.1701 41.2931 64.8701 39.3931 62.7701 37.4931ZM50.7201 53.1331C48.9201 53.1331 47.4201 54.6331 47.4201 56.4331C47.4201 58.2331 49.0201 59.7331 50.7201 59.7331C52.4201 59.7331 53.9201 58.2331 53.9201 56.5331C54.0201 54.6331 52.5201 53.1331 50.7201 53.1331Z" fill="black"/>
</g>
<defs>
<clipPath id="clip0_6711_5821">
<rect width="94.48" height="68.91" fill="white" transform="translate(0 5.14307)"/>
</clipPath>
</defs>
</svg>
